<?xml version="1.0" encoding="UTF-8"?>
<svg   version="1.1" xmlns="http://www.w3.org/2000/svg" width="512" height="512">
<path d="M0 0 C12.16676119 7.96241707 15.9262843 18.12526713 19.4140625 31.69140625 C19.8068514 33.17766424 20.2008954 34.66359105 20.59613037 36.14920044 C21.62665817 40.03499931 22.64149769 43.92471747 23.65258789 47.81561279 C24.88803923 52.55883746 26.14078179 57.29751827 27.39233017 62.03651619 C28.36469818 65.71889804 29.33402032 69.40198468 30.29400635 73.08761597 C30.55872742 74.09934624 30.55872742 74.09934624 30.82879639 75.1315155 C31.30506036 76.95197374 31.77934088 78.77295055 32.253479 80.59396362 C32.91315234 83.2600293 32.91315234 83.2600293 34.0234375 85.32421875 C35.209375 84.96328125 36.3953125 84.60234375 37.6171875 84.23046875 C50.22503451 80.55094228 64.17765504 76.86677403 76.71484375 82.87109375 C85.81177946 88.59708374 92.27774861 95.90132374 95.3359375 106.26171875 C97.40216277 116.43236158 95.82465865 125.89365551 90.515625 134.875 C82.12619147 146.48363477 69.58890339 150.44608807 56.0234375 153.32421875 C54.7034375 153.32421875 53.3834375 153.32421875 52.0234375 153.32421875 C53.20825721 157.86329172 54.39387064 162.4021548 55.58081055 166.94067383 C56.58853864 170.79406729 57.59352536 174.6481626 58.59692383 178.50268555 C60.77025744 186.83618609 62.94984249 195.16320547 65.3125 203.4453125 C65.63855225 204.59918457 65.96460449 205.75305664 66.30053711 206.94189453 C66.88341554 208.98736171 67.47938723 211.02917091 68.09204102 213.06591797 C70.82070635 222.69879235 71.62761866 232.7550618 67.35546875 242.0390625 C62.6035092 250.19125117 56.15341661 255.72509321 47.0234375 258.32421875 C36.14650233 259.43253205 27.36949046 258.01964315 18.7109375 251.19921875 C11.50160281 244.36855618 9.94997048 236.95688364 8.0234375 227.32421875 C-30.0915625 225.83921875 -30.0915625 225.83921875 -68.9765625 224.32421875 C-66.6665625 232.24421875 -64.3565625 240.16421875 -61.9765625 248.32421875 C-60.21362065 254.59815213 -58.45488089 260.86855605 -56.7487793 267.1574707 C-56.26795377 268.92182087 -55.78212058 270.6848126 -55.29174805 272.4465332 C-54.56234489 275.06823563 -53.8479582 277.69363222 -53.13671875 280.3203125 C-52.80874046 281.48293861 -52.80874046 281.48293861 -52.47413635 282.66905212 C-50.77857046 289.0409567 -49.9106891 295.24502892 -52.1015625 301.57421875 C-57.27593307 309.16329558 -63.64355959 310.84966249 -72.27001953 313.11938477 C-74.21382607 313.63335108 -76.14749434 314.17690868 -78.08203125 314.72460938 C-95.39769324 319.41538468 -95.39769324 319.41538468 -102.8515625 315.76171875 C-109.84048971 310.31035553 -111.34819593 302.32523696 -113.5078125 294.1015625 C-113.98450378 292.33505089 -113.98450378 292.33505089 -114.4708252 290.53285217 C-115.48196704 286.77821353 -116.47961969 283.02014973 -117.4765625 279.26171875 C-118.14621022 276.76212175 -118.81677434 274.26277006 -119.48828125 271.76367188 C-120.45821094 268.15348786 -121.42751288 264.54315456 -122.39282227 260.93173218 C-124.50454361 253.0375835 -126.67258944 245.16453601 -128.9765625 237.32421875 C-129.7099585 237.4850293 -130.44335449 237.64583984 -131.19897461 237.81152344 C-148.09972893 240.9311142 -164.65442596 237.66941284 -178.9765625 228.32421875 C-183.10046014 225.02290707 -187.05247734 221.54619526 -190.515625 217.546875 C-192.13934545 215.90673923 -192.13934545 215.90673923 -195.7265625 216.51171875 C-198.36851649 216.94247212 -200.6647322 217.5491973 -203.2265625 218.38671875 C-209.80668357 220.03174902 -216.97136288 220.56860688 -223.3515625 217.88671875 C-231.29713125 212.95853872 -234.16425908 203.99847892 -236.3515625 195.38671875 C-236.74021484 193.99936523 -236.74021484 193.99936523 -237.13671875 192.58398438 C-239.12039023 185.09536215 -240.54618195 177.41326725 -237.4140625 170.07421875 C-232.02771455 160.96872579 -224.50764764 158.83548137 -214.7421875 156.20703125 C-210.9765625 155.32421875 -210.9765625 155.32421875 -207.9765625 155.32421875 C-207.95529297 154.45023437 -207.95529297 154.45023437 -207.93359375 153.55859375 C-207.10409685 139.30021455 -199.34040953 126.66805143 -189.0546875 117.0078125 C-176.68823935 106.98912988 -162.61888321 103.42518845 -147.4921875 99.66796875 C-120.05463793 93.10945011 -120.05463793 93.10945011 -96.03369141 78.91357422 C-92.41106465 76.11470166 -88.49660151 73.7833898 -84.6015625 71.38671875 C-83.04052996 70.40675631 -81.48064479 69.42496393 -79.921875 68.44140625 C-79.1268457 67.94092773 -78.33181641 67.44044922 -77.51269531 66.92480469 C-72.82571556 63.96679167 -68.15145755 60.98878016 -63.4765625 58.01171875 C-62.15132568 57.16782593 -62.15132568 57.16782593 -60.79931641 56.30688477 C-59.07969174 55.2116841 -57.36012677 54.11638971 -55.640625 53.02099609 C-51.08685056 50.12063572 -46.53167364 47.22247918 -41.9765625 44.32421875 C-42.3065625 43.16921875 -42.6365625 42.01421875 -42.9765625 40.82421875 C-45.11630557 30.93766867 -45.70378926 20.22007615 -40.40234375 11.3046875 C-38.48516026 8.64164084 -36.47751815 6.45003105 -33.9765625 4.32421875 C-32.831875 3.27234375 -32.831875 3.27234375 -31.6640625 2.19921875 C-22.56552732 -4.14859649 -9.9355311 -5.26324603 0 0 Z M-25.8515625 20.51171875 C-29.47656613 29.57422783 -25.30464363 39.81094596 -22.8671875 48.7578125 C-22.42776953 50.40298506 -21.98932782 52.04841865 -21.55178833 53.6940918 C-20.36943594 58.12972451 -19.17322661 62.561511 -17.97429657 66.99268723 C-16.71666374 71.64999132 -15.47168841 76.31067806 -14.22509766 80.97094727 C-11.65657308 90.56377344 -9.07232408 100.15230973 -6.48376465 109.73974609 C-5.04141053 115.08226117 -3.60267479 120.42574483 -2.16503906 125.76953125 C2.97637947 144.8781373 2.97637947 144.8781373 8.15185547 163.97753906 C8.35443781 164.72256306 8.55702015 165.46758705 8.76574135 166.23518753 C9.9618099 170.63370072 9.9618099 170.63370072 11.15825272 175.03211212 C13.43096742 183.38947274 15.67339874 191.75336718 17.85818481 200.13426208 C18.94961084 204.32032486 20.05347774 208.50305624 21.15838623 212.68557739 C21.64234638 214.53374636 22.11956107 216.38369824 22.58917236 218.23556519 C23.21435549 220.70090942 23.86222566 223.15919852 24.515625 225.6171875 C24.68354553 226.30818542 24.85146606 226.99918335 25.0244751 227.71112061 C26.44638983 232.91689306 29.03550899 236.75510335 33.0234375 240.32421875 C36.75195092 241.56705656 40.15090511 241.85229135 44.0234375 241.32421875 C48.38389597 239.10285312 51.15621171 236.88854846 53.0234375 232.32421875 C53.30758029 226.70800915 52.67518495 221.88029529 51.16943359 216.45556641 C50.97023315 215.70660756 50.77103271 214.95764872 50.5657959 214.18599415 C49.90225775 211.70078384 49.22460085 209.21965661 48.546875 206.73828125 C48.06794144 204.95580655 47.58990588 203.17309037 47.11270142 201.39015198 C45.82152502 196.57577922 44.51819313 191.76477349 43.21264648 186.95428085 C41.84680578 181.91327024 40.49224118 176.86923246 39.13671875 171.82543945 C36.89179554 163.47705142 34.64068979 155.13035351 32.38574219 146.78466797 C29.17743757 134.907917 25.99172107 123.02518925 22.8125 111.140625 C21.82773015 107.46074973 20.84281827 103.78091248 19.85791016 100.10107422 C19.62002714 99.21225555 19.38214413 98.32343689 19.13705254 97.40768433 C15.68771914 84.52030479 12.23802216 71.63308562 8.75514793 58.7547226 C7.59689342 54.46686167 6.45289821 50.17550579 5.32019043 45.8808279 C4.77760941 43.82901148 4.23015607 41.77856736 3.68066406 39.72859192 C3.01513354 37.24397941 2.35761661 34.75719974 1.70996094 32.26786804 C-0.12088197 25.49226135 -1.6865519 20.06589425 -7.2265625 15.44921875 C-14.9010182 12.30966869 -20.57248256 14.35279215 -25.8515625 20.51171875 Z M-42.31640625 64.96484375 C-43.64901489 65.81973389 -43.64901489 65.81973389 -45.00854492 66.69189453 C-45.96736572 67.31306152 -46.92618652 67.93422852 -47.9140625 68.57421875 C-49.92948545 69.86880419 -51.94511392 71.16306972 -53.9609375 72.45703125 C-54.97478516 73.10961914 -55.98863281 73.76220703 -57.03320312 74.43457031 C-61.22941017 77.12855194 -65.44507052 79.79111559 -69.6640625 82.44921875 C-71.19924232 83.41793139 -72.73439853 84.38668147 -74.26953125 85.35546875 C-75.8385218 86.34508359 -77.40753293 87.33466578 -78.9765625 88.32421875 C-82.47687466 90.53205777 -85.97680766 92.74049644 -89.4765625 94.94921875 C-90.28440186 95.45855957 -91.09224121 95.96790039 -91.92456055 96.49267578 C-92.67390869 96.96560059 -93.42325684 97.43852539 -94.1953125 97.92578125 C-94.85466797 98.34166504 -95.51402344 98.75754883 -96.19335938 99.18603516 C-97.80076061 100.21200785 -99.38990592 101.2664477 -100.9765625 102.32421875 C-100.35653636 108.34982106 -99.16074637 113.98703702 -97.58398438 119.82958984 C-97.34160538 120.7443811 -97.09922638 121.65917236 -96.84950256 122.60168457 C-96.05320996 125.6017263 -95.24941132 128.59969827 -94.4453125 131.59765625 C-93.88823378 133.6888285 -93.33155846 135.78010825 -92.77526855 137.87149048 C-91.61171285 142.24153186 -90.44468174 146.61062445 -89.27490234 150.97900391 C-87.77334106 156.58671104 -86.27835313 162.19614367 -84.78566742 167.8062191 C-83.63797819 172.11826149 -82.48793328 176.42967254 -81.33705139 180.7408638 C-80.78475693 182.81006759 -80.23294729 184.87940085 -79.68162537 186.94886398 C-78.91303553 189.83158527 -78.14154095 192.71351255 -77.36914062 195.59521484 C-77.14053848 196.45442535 -76.91193634 197.31363586 -76.67640686 198.19888306 C-75.60081545 202.36049693 -75.60081545 202.36049693 -73.9765625 206.32421875 C-71.17230627 207.27771625 -68.45816518 207.49367059 -65.51293945 207.62133789 C-64.63217239 207.66129379 -63.75140533 207.70124969 -62.84394836 207.74241638 C-61.89384384 207.78101273 -60.94373932 207.81960907 -59.96484375 207.859375 C-58.4744886 207.92397667 -58.4744886 207.92397667 -56.95402527 207.98988342 C-53.73256181 208.12727769 -50.51086567 208.25755282 -47.2890625 208.38671875 C-46.20286621 208.4315741 -45.11666992 208.47642944 -43.99755859 208.52264404 C-28.31346261 209.1664507 -12.67460542 209.61612451 3.0234375 209.32421875 C-0.00611277 195.99403034 -3.44917066 182.79172283 -6.9921875 169.58984375 C-7.57284234 167.41921997 -8.15330284 165.24854419 -8.73358154 163.07781982 C-9.94565608 158.54576154 -11.15940677 154.01415687 -12.37451172 149.48291016 C-13.90765098 143.76552574 -15.43760013 138.04729409 -16.96643829 132.32875824 C-23.21237199 108.96872916 -29.4741311 85.61441024 -35.9765625 62.32421875 C-38.73667825 62.32421875 -39.99997893 63.46952131 -42.31640625 64.96484375 Z M38.0234375 102.32421875 C39.28661811 109.98277716 40.99784468 117.41327706 43.0859375 124.88671875 C43.35470703 125.86962891 43.62347656 126.85253906 43.90039062 127.86523438 C45.15588333 132.70857658 45.15588333 132.70857658 47.0234375 137.32421875 C64.20159694 134.24120608 64.20159694 134.24120608 77.0234375 123.32421875 C79.20801615 119.26714412 79.48872683 115.89956384 79.0234375 111.32421875 C76.89573655 105.18263872 73.8252161 101.51601983 68.16015625 98.25 C58.70049677 94.15139068 47.16142662 99.32464436 38.0234375 102.32421875 Z M-134.90991211 113.74926758 C-136.80873026 114.25210902 -138.70845625 114.75153637 -140.60913086 115.24731445 C-165.92185938 121.46968652 -165.92185938 121.46968652 -184.8515625 138.51171875 C-193.21936066 152.83390756 -193.2370182 165.33854038 -189.2890625 180.94921875 C-188.92385498 182.39820557 -188.92385498 182.39820557 -188.55126953 183.87646484 C-184.98536553 197.06243541 -178.8264601 208.25559292 -167.0390625 215.76171875 C-148.79581494 225.62368872 -131.29957125 220.68252788 -112.4765625 215.32421875 C-110.38202738 214.74422358 -108.28697725 214.16608494 -106.19140625 213.58984375 C-101.11364985 212.18928141 -96.04320946 210.76438276 -90.9765625 209.32421875 C-92.21628196 202.78470078 -93.67412275 196.35286404 -95.40673828 189.92724609 C-95.64111603 189.04796448 -95.87549377 188.16868286 -96.11697388 187.26275635 C-96.88232189 184.39442479 -97.65205516 181.52729054 -98.421875 178.66015625 C-98.95737529 176.65669929 -99.49259841 174.65316823 -100.02755737 172.64956665 C-101.42873808 167.4046337 -102.8336558 162.16070898 -104.23937988 156.91699219 C-105.6761877 151.55464558 -107.10942341 146.19134451 -108.54296875 140.828125 C-111.35069061 130.32589086 -114.16236518 119.82471942 -116.9765625 109.32421875 C-122.64358743 109.32421875 -129.42337465 112.29172293 -134.90991211 113.74926758 Z M-216.7265625 174.82421875 C-217.52578125 175.10265625 -218.325 175.38109375 -219.1484375 175.66796875 C-219.75171875 175.88453125 -220.355 176.10109375 -220.9765625 176.32421875 C-222.735269 181.49374998 -221.06985314 185.95620606 -219.6640625 191.01171875 C-219.3247168 192.31206055 -219.3247168 192.31206055 -218.97851562 193.63867188 C-217.82186725 198.4376821 -217.82186725 198.4376821 -214.9765625 202.32421875 C-212.92667362 202.42229598 -212.92667362 202.42229598 -210.6640625 202.07421875 C-209.90480469 201.9865625 -209.14554688 201.89890625 -208.36328125 201.80859375 C-205.47383089 201.29645407 -205.47383089 201.29645407 -200.9765625 199.32421875 C-203.2865625 190.74421875 -205.5965625 182.16421875 -207.9765625 173.32421875 C-211.55719763 173.32421875 -213.45144236 173.668294 -216.7265625 174.82421875 Z M-99.5390625 228.19921875 C-101.15844727 228.60333984 -101.15844727 228.60333984 -102.81054688 229.015625 C-103.83599609 229.27988281 -104.86144531 229.54414063 -105.91796875 229.81640625 C-106.86357666 230.0572998 -107.80918457 230.29819336 -108.78344727 230.54638672 C-111.15436136 231.10190947 -111.15436136 231.10190947 -111.9765625 233.32421875 C-111.54304536 235.46763987 -111.01079392 237.59125613 -110.43774414 239.70166016 C-110.2623259 240.35544144 -110.08690765 241.00922272 -109.90617371 241.68281555 C-109.32313192 243.84903174 -108.72997222 246.0123415 -108.13671875 248.17578125 C-107.73110118 249.67491068 -107.32611531 251.17421117 -106.92173767 252.67367554 C-105.85451239 256.62425256 -104.77869652 260.57244095 -103.70111084 264.52020264 C-102.60351287 268.54722451 -101.51400598 272.57643311 -100.42382812 276.60546875 C-98.28267887 284.51388878 -96.13245469 292.4198051 -93.9765625 300.32421875 C-92.397679 300.01267427 -90.81903005 299.69994093 -89.24047852 299.38671875 C-87.92177513 299.12568359 -87.92177513 299.12568359 -86.57643127 298.859375 C-82.98837053 298.1208096 -79.45961021 297.24757604 -75.9140625 296.32421875 C-75.25212891 296.15921875 -74.59019531 295.99421875 -73.90820312 295.82421875 C-72.2462962 295.38786165 -70.60809393 294.86315042 -68.9765625 294.32421875 C-67.44664352 291.2643808 -68.62975913 289.2083084 -69.51538086 285.94677734 C-69.6907991 285.29299606 -69.86621735 284.63921478 -70.04695129 283.96562195 C-70.62999308 281.79940576 -71.22315278 279.636096 -71.81640625 277.47265625 C-72.22202382 275.97352682 -72.62700969 274.47422633 -73.03138733 272.97476196 C-74.09861261 269.02418494 -75.17442848 265.07599655 -76.25201416 261.12823486 C-77.34961213 257.10121299 -78.43911902 253.07200439 -79.52929688 249.04296875 C-81.67044613 241.13454872 -83.82067031 233.2286324 -85.9765625 225.32421875 C-90.5389889 225.32421875 -95.14488881 227.06710689 -99.5390625 228.19921875 Z " fill="#ffff" transform="translate(307.9765625,187.67578125)"/>
<path d="M0 0 C0.65437068 -0.00297112 1.30874136 -0.00594224 1.98294145 -0.0090034 C4.17990945 -0.01768834 6.37682295 -0.01919849 8.57380676 -0.02069092 C10.14745704 -0.02531933 11.72110619 -0.03034402 13.29475403 -0.03573608 C17.57390225 -0.04886205 21.85303479 -0.05530572 26.1322 -0.05974674 C28.80657331 -0.06267786 31.48094234 -0.06678281 34.15531349 -0.07125092 C42.52529988 -0.08492794 50.89527648 -0.09459292 59.26527327 -0.09845281 C68.92208143 -0.10293066 78.57874785 -0.12046502 88.23551291 -0.1494534 C95.70230625 -0.17108819 103.16905977 -0.18115809 110.63588411 -0.18249393 C115.09404435 -0.1835409 119.55207139 -0.18942549 124.01019859 -0.20731354 C128.20696075 -0.22382474 132.40349002 -0.22593498 136.60027313 -0.21717453 C138.13691393 -0.21640572 139.67356741 -0.2207263 141.21017647 -0.23063278 C150.91333362 -0.28949727 159.55131241 -0.34011702 167.19807434 6.55450439 C173.63111701 13.93251379 174.72903046 21.4069177 174.74201965 30.90289307 C174.74698456 31.77513519 174.75194946 32.64737732 174.75706482 33.54605103 C174.77164156 36.42517901 174.77848168 39.30425185 174.78401184 42.18341064 C174.78976786 44.19255066 174.79552554 46.20169068 174.80128479 48.21083069 C174.81178263 52.42312881 174.81763297 56.63540793 174.82112122 60.84771729 C174.82659724 66.22639243 174.85061146 71.60481334 174.87909317 76.98340893 C174.89778515 81.13487972 174.90292868 85.28629014 174.90445709 89.43779945 C174.90747036 91.41959329 174.91545372 93.40138641 174.92864227 95.38313866 C175.08222276 120.23875103 175.08222276 120.23875103 168.39338684 127.51544189 C167.86358215 128.12130127 167.33377747 128.72716064 166.78791809 129.35137939 C158.52413443 136.05016332 150.67006364 135.63311327 140.58088684 135.39044189 C139.12388015 135.37034525 137.66684669 135.35210007 136.20979309 135.33575439 C132.66626134 135.2920109 129.12374807 135.22315956 125.58088684 135.14044189 C125.7172052 135.95496826 125.7172052 135.95496826 125.85627747 136.78594971 C130.30308442 163.72903903 130.30308442 163.72903903 127.56135559 169.15997314 C125.48897279 171.83340956 123.79074706 173.07048849 120.58088684 174.14044189 C114.73948439 174.6915176 112.21581245 173.62539226 107.58088684 170.14044189 C105.7532285 168.3207879 103.98354559 166.44150164 102.26838684 164.51544189 C101.79546204 163.98837646 101.32253723 163.46131104 100.83528137 162.91827393 C99.87091364 161.84247102 98.90929135 160.76420034 97.95051575 159.68341064 C95.96632141 157.44809724 93.95962172 155.23323602 91.95588684 153.01544189 C91.24174622 152.21751221 90.52760559 151.41958252 89.79182434 150.59747314 C88.22461298 148.85581953 86.64520962 147.12510175 85.05744934 145.40216064 C84.24018372 144.51141846 83.42291809 143.62067627 82.58088684 142.70294189 C81.83838684 141.89985596 81.09588684 141.09677002 80.33088684 140.26934814 C78.58088684 138.14044189 78.58088684 138.14044189 77.58088684 135.14044189 C75.99474327 135.15709648 75.99474327 135.15709648 74.3765564 135.17408752 C64.3871937 135.27566371 54.39793647 135.35050316 44.40817356 135.39950275 C39.27289789 135.42554142 34.1380408 135.46083455 29.00300598 135.51763916 C24.04277397 135.5721636 19.0829433 135.6019055 14.12243462 135.61482811 C12.23466109 135.6240314 10.34690831 135.6420033 8.45930672 135.66909218 C-11.30832796 135.94136684 -11.30832796 135.94136684 -18.93936157 128.69728088 C-24.69308338 122.35072192 -25.86422876 116.62464106 -25.82316589 108.40655518 C-25.83002914 107.4431723 -25.8368924 106.47978943 -25.84396362 105.48721313 C-25.86222204 102.31157574 -25.85839501 99.13643289 -25.85270691 95.96075439 C-25.85726952 93.7464685 -25.86257533 91.53218403 -25.86859131 89.31790161 C-25.87752082 84.6794255 -25.87510142 80.04112156 -25.86515808 75.40264893 C-25.8536753 69.46879556 -25.87387059 63.53553789 -25.90307522 57.60176277 C-25.92145397 53.02914678 -25.92114126 48.45667306 -25.9154377 43.88402939 C-25.91528465 41.69683879 -25.92131492 39.50963844 -25.93372917 37.32248306 C-25.94866664 34.25898542 -25.93794084 31.19658193 -25.92082214 28.13311768 C-25.93049011 27.2362323 -25.94015808 26.33934692 -25.95011902 25.4152832 C-25.86476593 18.09222396 -23.81404714 12.98847149 -19.10661316 7.39044189 C-13.17703903 2.42614727 -7.78306312 0.0197187 0 0 Z M-8.41911316 22.14044189 C-9.66073158 25.86529716 -9.56664201 29.32484027 -9.56437683 33.20440674 C-9.56773544 34.02586685 -9.57109406 34.84732697 -9.57455444 35.69367981 C-9.5840638 38.41292833 -9.58600758 41.13211527 -9.58708191 43.85137939 C-9.59029461 45.74083481 -9.59365869 47.63028998 -9.59716797 49.51974487 C-9.60315928 53.48250912 -9.60500788 57.44525156 -9.60441589 61.40802002 C-9.6043143 66.48452108 -9.61796399 71.56088219 -9.6351881 76.63735008 C-9.64630991 80.5407068 -9.64833504 84.44402972 -9.64780617 88.34740067 C-9.64898611 90.21888333 -9.65340866 92.09036688 -9.66113853 93.96183395 C-9.67094156 96.58055147 -9.66805909 99.19896554 -9.66203308 101.81768799 C-9.66765259 102.58981125 -9.67327209 103.36193451 -9.67906189 104.15745544 C-9.65007166 109.11812574 -9.15030831 112.93710261 -6.04411316 116.89044189 C-2.07575961 119.94302155 2.93308057 119.26729528 7.71076965 119.23468018 C9.40333539 119.23189417 11.09590133 119.22922422 12.78846741 119.22665405 C14.13114056 119.22207876 14.13114056 119.22207876 15.50093842 119.21741104 C20.25288808 119.20604517 25.0047433 119.22657428 29.75666809 119.24200439 C35.79834974 119.26028474 41.83952055 119.2689973 47.88117981 119.24005127 C52.76856661 119.21747327 57.654845 119.22899259 62.5421524 119.26305771 C64.399983 119.2698128 66.25790308 119.26418586 68.11565399 119.24570084 C84.47447642 119.09342487 84.47447642 119.09342487 89.62654114 123.53277588 C91.26257324 125.38676453 91.26257324 125.38676453 92.58088684 127.14044189 C93.4071759 127.99509033 94.23346497 128.84973877 95.08479309 129.73028564 C95.76412903 130.50501221 96.44346497 131.27973877 97.14338684 132.07794189 C97.88588684 132.91969971 98.62838684 133.76145752 99.39338684 134.62872314 C100.11526184 135.45759033 100.83713684 136.28645752 101.58088684 137.14044189 C102.28213684 137.93837158 102.98338684 138.73630127 103.70588684 139.55841064 C105.33571064 141.41496396 106.96073796 143.27544737 108.58088684 145.14044189 C109.83038042 141.39196117 109.15624779 139.04011054 108.58088684 135.14044189 C108.14551277 130.04172782 108.28936951 126.28531557 111.58088684 122.14044189 C115.2572229 119.68955119 118.06618666 119.8442943 122.31916809 119.83184814 C123.87711442 119.80668077 125.43505704 119.78128286 126.99299622 119.75567627 C129.44179765 119.726988 131.89053444 119.70296382 134.33943176 119.68414307 C136.70802174 119.66239095 139.0758459 119.62293869 141.44416809 119.58184814 C142.16937149 119.58173233 142.89457489 119.58161652 143.64175415 119.58149719 C148.33652372 119.49081752 151.64506271 118.73139452 155.58088684 116.14044189 C158.29607727 112.39971846 157.86923874 108.11296287 157.85554504 103.68756104 C157.86065598 102.83669418 157.86576691 101.98582733 157.87103271 101.10917664 C157.88492715 98.29791216 157.88397208 95.48689287 157.88166809 92.67559814 C157.88555505 90.72031056 157.88988972 88.76502381 157.89465332 86.80973816 C157.90211517 82.71169294 157.90182446 78.61373387 157.89656067 74.51568604 C157.89076552 69.26537895 157.90769836 64.01542458 157.93090534 58.76517582 C157.94564034 54.72712646 157.94651471 50.6891621 157.94339561 46.65109062 C157.94390892 44.71541075 157.94914848 42.77972614 157.95920753 40.84407234 C157.97155029 38.13672111 157.96479333 35.43005759 157.95320129 32.72271729 C157.96084503 31.92411285 157.96848877 31.12550842 157.97636414 30.30270386 C157.93317602 25.73694775 157.45384448 22.74600149 154.58088684 19.14044189 C151.04360292 16.78225261 149.56220359 16.88348553 145.36936951 16.86628723 C144.06827744 16.8563121 142.76718536 16.84633698 141.42666626 16.83605957 C139.98149121 16.83516375 138.536316 16.83450019 137.09114075 16.83404541 C135.5717325 16.82642534 134.05232812 16.8179981 132.53292847 16.80882263 C128.40272942 16.78685588 124.27260441 16.77807585 120.14235353 16.77299619 C117.56247228 16.76935523 114.9826105 16.76311655 112.40273666 16.7559948 C103.40384314 16.7314929 94.40500733 16.71844677 85.40608215 16.71490479 C77.01548196 16.71126874 68.62524739 16.68137052 60.23475897 16.6395002 C53.03296865 16.60482056 45.83129964 16.58935675 38.62942636 16.58865875 C34.32720119 16.58786514 30.02534835 16.57908858 25.72320938 16.55066109 C21.6765171 16.52451992 17.63050688 16.52225259 13.58376884 16.53831673 C12.09907356 16.5401344 10.61433942 16.53341165 9.12972832 16.51749802 C7.10204355 16.49708929 5.07410233 16.51056025 3.04637146 16.52571106 C1.91185358 16.52369973 0.7773357 16.5216884 -0.39156151 16.51961613 C-4.38772647 17.33906447 -5.87735448 19.02086357 -8.41911316 22.14044189 Z " fill="#ffff" transform="translate(25.419113159179688,62.85955810546875)"/>
<path d="M0 0 C2.33297967 1.49021721 2.33297967 1.49021721 6.15625 1.171875 C8.55821692 -0.02371775 8.55821692 -0.02371775 10.96875 -1.640625 C22.16805181 -8.62371907 34.30902205 -10.94776201 47.33203125 -8.14453125 C59.68762549 -3.93279403 69.48467021 4.17093767 75.8671875 15.51953125 C81.84238848 27.81395993 81.63680496 41.09317319 77.6171875 53.9765625 C72.83019385 64.44651118 64.81764749 71.93688303 56.76953125 79.921875 C55.46198749 81.22889931 54.15496374 82.53644403 52.84843445 83.84448242 C50.12394619 86.56888144 47.39440861 89.28808166 44.66088867 92.00341797 C41.15513834 95.48635853 37.66070373 98.98039925 34.16970539 102.4781189 C31.47897955 105.17218048 28.78330233 107.86124132 26.085989 110.54870605 C24.79484079 111.83600447 23.50503906 113.12465486 22.21660805 114.41467285 C20.42182853 116.20982223 18.62070747 117.99834989 16.81762695 119.78515625 C16.28614548 120.31911514 15.754664 120.85307404 15.20707703 121.4032135 C11.04705232 125.50332015 8.28714409 126.25562311 2.484375 126.59765625 C-3.55869005 125.49246482 -8.18174465 121.21095715 -12.39257812 117.01123047 C-12.8992955 116.50977005 -13.40601288 116.00830963 -13.92808533 115.49165344 C-15.5846315 113.848202 -17.23008488 112.19414907 -18.875 110.5390625 C-20.03606225 109.38002495 -21.1975692 108.22143272 -22.35949707 107.06326294 C-24.78835347 104.6388165 -27.21173609 102.20906249 -29.63134766 99.77539062 C-32.71082674 96.67887824 -35.80350312 93.59595605 -38.90048981 90.51696587 C-41.30137739 88.12700124 -43.69497258 85.72983487 -46.08653259 83.3305397 C-47.22286225 82.19222847 -48.36136988 81.0560866 -49.50221252 79.92229843 C-61.83938991 67.64468768 -72.03070974 55.62830408 -72.09375 37.546875 C-72.07475433 23.92426854 -68.12730228 13.66522229 -58.84375 3.484375 C-42.06130824 -12.61190219 -18.6629287 -12.56637199 0 0 Z M-48.84375 18.171875 C-54.32499514 26.13717378 -56.26158569 33.57990832 -54.84375 43.171875 C-51.78193614 54.81034875 -41.10551473 63.05144883 -32.87890625 71.234375 C-31.83493934 72.2764724 -30.79119628 73.31879409 -29.74766541 74.36132812 C-27.02589078 77.07931946 -24.30112477 79.7942919 -21.57568359 82.50860596 C-18.78493927 85.28904518 -15.99709129 88.07238529 -13.20898438 90.85546875 C-7.75670642 96.29708342 -2.30125891 101.73550603 3.15625 107.171875 C6.87827836 105.61260739 9.26979413 103.3237098 12.12084961 100.49780273 C12.60108078 100.02428879 13.08131195 99.55077484 13.57609558 99.06291199 C15.15892728 97.49904317 16.73414132 95.92777041 18.30859375 94.35546875 C19.41176541 93.25872905 20.51508499 92.16213813 21.61854553 91.06568909 C23.93116116 88.76504402 26.23960947 86.46030648 28.5456543 84.15307617 C31.48526799 81.21325996 34.43835625 78.28740532 37.39527035 75.36500454 C39.68000876 73.10263498 41.95546579 70.83109907 44.22851753 68.55699348 C45.31243605 67.47541855 46.39956095 66.39704622 47.49006462 65.32211113 C55.89209642 57.02881715 63.12805388 49.347798 63.46875 37.046875 C63.37613837 28.37611138 60.25206342 21.26768842 54.15625 15.171875 C47.59259703 9.64053364 41.55553061 7.65831428 32.9453125 7.8671875 C25.87965341 8.63906622 20.86933721 12.35691175 15.21875 16.421875 C10.71250784 19.43929567 7.36117377 21.48275595 1.859375 21.0390625 C-3.13611286 19.43646379 -7.3051144 16.33089017 -11.5859375 13.375 C-24.30535186 4.77338166 -38.79692598 6.53327022 -48.84375 18.171875 Z " fill="#ffff" transform="translate(332.84375,15.828125)"/>
<path d="M0 0 C0.9095343 -0.00511093 1.8190686 -0.01022186 2.75616455 -0.01548767 C5.75678115 -0.02936566 8.75716766 -0.02842846 11.7578125 -0.02612305 C13.84619227 -0.0300105 15.93457126 -0.03434528 18.02294922 -0.03910828 C22.39748703 -0.04656629 26.77194412 -0.04628188 31.14648438 -0.04101562 C36.75211181 -0.0352167 42.3574093 -0.05216436 47.96298218 -0.0753603 C52.27467785 -0.09009049 56.58629388 -0.09097039 60.89801025 -0.08785057 C62.96487075 -0.08836398 65.03173568 -0.09360539 67.09857178 -0.10366249 C69.98780801 -0.11599776 72.87639911 -0.10925295 75.765625 -0.09765625 C76.61876282 -0.10529999 77.47190063 -0.11294373 78.35089111 -0.12081909 C83.02796666 -0.07932227 86.06817658 0.26623829 89.8828125 3.2746582 C91.81145089 5.81695426 91.89183541 7.05810838 91.7578125 10.2746582 C90.69600192 13.91515163 89.95384841 15.04210418 86.8828125 17.2746582 C83.72720773 17.87565115 80.60856203 17.82090266 77.40429688 17.79223633 C76.44453445 17.79924561 75.48477203 17.80625488 74.4959259 17.81347656 C71.3225107 17.8310858 68.14998682 17.8194231 64.9765625 17.8059082 C62.77225574 17.80860227 60.56795015 17.81248397 58.36364746 17.81750488 C53.74345589 17.82340392 49.1235736 17.81482368 44.50341797 17.79614258 C38.57805514 17.77335311 32.65341699 17.78647398 26.72808075 17.81043243 C22.17619353 17.82487928 17.62447843 17.82028947 13.07258606 17.80992126 C10.88767918 17.80725091 8.70275674 17.81053453 6.51786804 17.81983948 C3.46526639 17.82998644 0.41384198 17.81452926 -2.63867188 17.79223633 C-3.99625862 17.80438171 -3.99625862 17.80438171 -5.38127136 17.81677246 C-11.49951879 17.73389996 -11.49951879 17.73389996 -14.65100098 15.39074707 C-16.41684522 12.8421741 -17.04306087 11.38797678 -17.1171875 8.2746582 C-15.94894605 4.96464075 -15.1829914 2.877803 -12.06982422 1.11604309 C-8.00989516 -0.04087639 -4.20222057 -0.01220278 0 0 Z " fill="#ffff" transform="translate(62.1171875,103.725341796875)"/>
<path d="M0 0 C1.21742889 0.32441071 2.43485779 0.64882141 3.68917847 0.98306274 C6.25333878 1.66802418 8.81680018 2.35514655 11.37939453 3.04589844 C14.64976009 3.92700839 17.92287641 4.79736741 21.19691658 5.66470909 C24.3412653 6.49947035 27.48299196 7.34397873 30.625 8.1875 C31.79386749 8.49698578 32.96273499 8.80647156 34.16702271 9.12533569 C47.93395705 12.85796682 47.93395705 12.85796682 51.1796875 17.7265625 C51.60347971 21.61132441 51.79426742 23.82833031 49.5546875 27.1015625 C45.81523529 29.66013506 42.49550574 29.93638883 38.0553894 29.22834778 C36.94382477 28.93618881 35.83226013 28.64402985 34.68701172 28.34301758 C32.78506546 27.85174126 32.78506546 27.85174126 30.84469604 27.35054016 C29.47441056 26.98305621 28.10430765 26.61489086 26.734375 26.24609375 C25.31781137 25.8724416 23.90107043 25.49946109 22.48416138 25.12712097 C19.52160118 24.34555424 16.56157835 23.55514865 13.60302734 22.75854492 C9.81691741 21.73999849 6.02510178 20.74489602 2.23103142 19.75647449 C-0.6935771 18.99159359 -3.61462588 18.21377824 -6.53478622 17.43210411 C-7.93149746 17.06001035 -9.32931827 16.6920553 -10.72824478 16.32837868 C-12.6844783 15.81786501 -14.6355965 15.28787089 -16.58642578 14.75708008 C-17.69639923 14.46094315 -18.80637268 14.16480621 -19.94998169 13.85969543 C-23.09846799 12.61675385 -24.69396307 11.33556578 -26.8203125 8.7265625 C-27.31640625 6.47265625 -27.31640625 6.47265625 -27.2578125 4.1640625 C-27.25652344 3.39964844 -27.25523437 2.63523437 -27.25390625 1.84765625 C-26.71788237 -0.77451461 -25.91750893 -1.64996074 -23.8203125 -3.2734375 C-16.35756946 -5.76101851 -7.30789241 -1.96706479 0 0 Z " fill="#ffff" transform="translate(454.8203125,346.2734375)"/>
<path d="M0 0 C2.68976372 3.2435386 2.71891274 5.24700374 2.7890625 9.34375 C1.80875143 12.61914229 -0.1089556 13.62528435 -2.875 15.5625 C-5.69354248 16.65093994 -5.69354248 16.65093994 -8.80761719 17.48535156 C-9.97943542 17.80538147 -11.15125366 18.12541138 -12.35858154 18.45513916 C-13.61696838 18.78447449 -14.87535522 19.11380981 -16.171875 19.453125 C-17.48858729 19.80536915 -18.80509219 20.15838935 -20.12139893 20.512146 C-22.87639768 21.24953377 -25.63354951 21.97803668 -28.39257812 22.70019531 C-31.90811984 23.62103389 -35.41762849 24.56281907 -38.92579269 25.51132584 C-41.64329708 26.24367728 -44.3636126 26.96510115 -47.08487701 27.68334198 C-49.00335438 28.19159528 -50.91952717 28.70852237 -52.83563232 29.22564697 C-59.35205576 30.91700265 -65.13639825 32.164068 -71.875 31.5625 C-75.22852755 28.86331929 -75.77877072 27.24813364 -76.375 23 C-75.78258353 18.92713675 -74.98864401 18.1261172 -71.875 15.5625 C-69.35980225 14.52548218 -69.35980225 14.52548218 -66.49902344 13.76318359 C-64.88649689 13.32285294 -64.88649689 13.32285294 -63.24139404 12.87362671 C-61.50541962 12.42184555 -61.50541962 12.42184555 -59.734375 11.9609375 C-58.53822571 11.63839996 -57.34207642 11.31586243 -56.10968018 10.98355103 C-52.93252706 10.12956916 -49.75253219 9.28748211 -46.57073975 8.45098877 C-43.35561487 7.60250401 -40.14490621 6.73780187 -36.93359375 5.875 C-5.2370036 -2.6185018 -5.2370036 -2.6185018 0 0 Z " fill="#ffff" transform="translate(509.875,259.4375)"/>
<path d="M0 0 C3.00342896 2.05497771 3.83287356 3.47633714 4.9375 6.9375 C5.0312087 11.52922641 2.90632339 13.98664895 -0.09364319 17.34088135 C-0.898134 18.14394714 -1.70262482 18.94701294 -2.53149414 19.77441406 C-3.44576675 20.69176331 -4.36003937 21.60911255 -5.30201721 22.55426025 C-6.29621656 23.54156346 -7.29060063 24.52868068 -8.28515625 25.515625 C-9.30777364 26.53704926 -10.33002052 27.55884459 -11.35191345 28.58099365 C-13.48811999 30.7156404 -15.6276313 32.84689796 -17.76977539 34.97558594 C-20.51777675 37.70654432 -23.25909531 40.44409335 -25.99820805 43.18396378 C-28.10567497 45.29115916 -30.21573493 47.39574129 -32.32668877 49.49944305 C-33.33880945 50.50837922 -34.35032354 51.51792426 -35.36122322 52.5280838 C-36.77093503 53.93563284 -38.18432919 55.33949098 -39.59790039 56.74316406 C-40.40159561 57.54304749 -41.20529083 58.34293091 -42.03334045 59.16705322 C-44.4599485 61.4286767 -45.49979312 61.94442146 -48.8125 62.3125 C-52.91448247 61.91034486 -54.36270753 61.18026445 -57 58 C-58.00792104 54.80486621 -57.88051815 52.22222576 -57 49 C-54.00978721 44.7334038 -50.31692484 41.24360046 -46.5703125 37.65625 C-45.49704399 36.59724683 -44.42568969 35.53630048 -43.35617065 34.47351074 C-40.5456075 31.69153144 -37.70865136 28.93804651 -34.86560059 26.18933105 C-31.97216177 23.38111872 -29.10713708 20.54421668 -26.23828125 17.7109375 C-22.04992826 13.58594325 -17.85539142 9.46743529 -13.63330078 5.37695312 C-12.78502716 4.55360474 -11.93675354 3.73025635 -11.06277466 2.88195801 C-7.45374617 -0.41071385 -4.83745457 -0.41702195 0 0 Z " fill="#ffff" transform="translate(452,174)"/>
<path d="M0 0 C1.06790771 -0.00622879 2.13581543 -0.01245758 3.23608398 -0.01887512 C4.38407471 -0.00966537 5.53206543 -0.00045563 6.71484375 0.0090332 C7.89828369 0.0085347 9.08172363 0.00803619 10.30102539 0.00752258 C12.8025887 0.00986259 15.30415438 0.01958674 17.80566406 0.03613281 C21.63758367 0.05972358 25.46880749 0.05669302 29.30078125 0.05004883 C31.7304729 0.05562565 34.16016162 0.06273555 36.58984375 0.0715332 C38.31182983 0.07016609 38.31182983 0.07016609 40.06860352 0.06877136 C41.13651123 0.07830338 42.20441895 0.08783539 43.3046875 0.09765625 C44.24304443 0.10226364 45.18140137 0.10687103 46.14819336 0.11161804 C48.7911376 0.38676369 50.40630788 0.97879728 52.65234375 2.37231445 C55.21501284 5.54514285 54.70027114 8.63291107 54.33203125 12.4699707 C53.37516457 15.14809757 52.06075922 15.89741742 49.65234375 17.37231445 C47.11695862 17.75999451 47.11695862 17.75999451 44.22875977 17.77636719 C42.6017086 17.79539345 42.6017086 17.79539345 40.94178772 17.81480408 C39.77506027 17.81186844 38.60833282 17.8089328 37.40625 17.8059082 C36.20298569 17.81115005 34.99972137 17.81639191 33.75999451 17.8217926 C31.21557385 17.82821554 28.67112351 17.82687235 26.12670898 17.81835938 C22.2330232 17.80985416 18.34080627 17.83860244 14.44726562 17.87036133 C11.97526086 17.87197352 9.50325349 17.87139547 7.03125 17.8684082 C5.28419518 17.88525917 5.28419518 17.88525917 3.50184631 17.90245056 C-4.55936217 17.83293583 -4.55936217 17.83293583 -8.56274414 15.49365234 C-10.67119227 12.98779736 -11.26786297 11.64383902 -11.34765625 8.37231445 C-9.71339747 2.13241728 -6.28477801 -0.00421566 0 0 Z " fill="#ffff" transform="translate(56.34765625,139.627685546875)"/>
</svg>
