<?xml version="1.0" encoding="UTF-8"?>
<svg  stroke="#ffff" stroke-width="7" version="1.1" xmlns="http://www.w3.org/2000/svg" width="512" height="512">
<path d="M0 0 C26.54122186 22.43407661 43.19150909 54.07307662 46.15966797 88.79272461 C48.38509199 119.99156751 39.00860276 148.27058624 22.69091797 174.72241211 C9.09234697 197.45118475 -3.68961536 220.00365875 -13.30908203 244.72241211 C-13.97383167 246.38984431 -14.6397071 248.0568313 -15.30908203 249.72241211 C-14.77798828 250.13491211 -14.24689453 250.54741211 -13.69970703 250.97241211 C-7.58986415 255.96732016 -3.90083013 260.00533438 -2.89892578 267.99194336 C-2.56246412 275.95486944 -3.5079882 282.2338051 -8.30908203 288.72241211 C-10.532391 291.01003167 -12.73765837 292.80644938 -15.30908203 294.72241211 C-14.31908203 295.80522461 -14.31908203 295.80522461 -13.30908203 296.90991211 C-9.96302691 301.89922562 -10.70951619 307.98997775 -11.30908203 313.72241211 C-13.54631721 320.31636843 -18.38635055 324.71362198 -24.43798828 327.94116211 C-30.85667099 330.62119664 -38.49798663 329.83509567 -45.30908203 329.72241211 C-45.35033203 331.02178711 -45.39158203 332.32116211 -45.43408203 333.65991211 C-46.39728745 342.06486897 -51.90159563 348.01103759 -58.23486328 353.22241211 C-68.80376432 360.86545919 -80.66550453 361.87654972 -93.30908203 360.72241211 C-104.0734612 358.50399205 -111.31582407 352.51129052 -117.86376953 343.96850586 C-120.50160332 339.86916956 -121.58843915 336.61116163 -121.30908203 331.72241211 C-122.14310547 331.7572168 -122.97712891 331.79202148 -123.83642578 331.82788086 C-133.26566809 332.05470112 -141.08359014 331.16935823 -148.73876953 325.31225586 C-153.54996408 320.44122058 -156.04130983 314.20345077 -156.55908203 307.47241211 C-156.06253948 300.02427383 -153.31259596 295.13161636 -148.30908203 289.72241211 C-149.03095703 289.57803711 -149.75283203 289.43366211 -150.49658203 289.28491211 C-155.46895145 286.52248465 -157.55760668 280.97683817 -159.30908203 275.72241211 C-159.89806722 269.00798101 -158.70647011 263.59685835 -155.30908203 257.72241211 C-153.16692622 255.41053518 -150.89909463 253.51213991 -148.30908203 251.72241211 C-148.95718794 247.35894725 -150.55264822 243.63381629 -152.41455078 239.67553711 C-152.88812263 238.65546066 -152.88812263 238.65546066 -153.3712616 237.61477661 C-154.4053926 235.39697821 -155.44970897 233.18422216 -156.49658203 230.97241211 C-157.03221771 229.83609344 -157.03221771 229.83609344 -157.57867432 228.67681885 C-166.30331151 210.21574546 -176.12968634 192.50629043 -187.07470703 175.26538086 C-207.05247649 143.72560627 -217.09738105 109.50697595 -209.21337891 72.06518555 C-203.32234994 46.97413072 -190.8737581 26.39919057 -173.30908203 7.72241211 C-172.77154297 7.12041992 -172.23400391 6.51842773 -171.68017578 5.89819336 C-127.69426353 -41.39493034 -47.53294796 -39.21307839 0 0 Z M-169.02001953 27.87866211 C-187.6453046 51.01724151 -197.96387563 80.9881553 -195.10693359 110.83422852 C-192.08833685 136.36700056 -179.6834931 158.8481499 -167.69580078 181.20288086 C-162.43637774 191.11050272 -157.75967581 201.07856985 -153.68408203 211.53491211 C-153.20406738 212.76306641 -152.72405273 213.9912207 -152.22949219 215.2565918 C-147.92481395 226.43484529 -144.79960195 236.79825275 -143.30908203 248.72241211 C-121.52908203 248.39241211 -99.74908203 248.06241211 -77.30908203 247.72241211 C-74.2008146 240.75658175 -74.2008146 240.75658175 -71.23095703 233.74194336 C-67.28103211 224.24443192 -63.16424317 215.14940495 -57.84033203 206.33959961 C-55.30755637 202.0106208 -54.88745342 198.69762974 -55.30908203 193.72241211 C-57.68038984 188.33307619 -61.19513765 186.17219618 -66.35986328 183.81225586 C-73.19534519 181.28629632 -80.37626076 180.14672277 -87.56298828 179.08569336 C-99.54470261 177.27174466 -109.88968074 174.53662261 -118.00439453 164.84741211 C-122.01946215 158.30790077 -122.42311418 151.15459802 -121.30908203 143.72241211 C-119.54843193 138.93895914 -117.2253302 134.61242765 -114.70898438 130.18823242 C-113.12603581 127.39999026 -111.58651772 124.589745 -110.04736328 121.77709961 C-103.13460059 109.2149279 -95.92221688 96.87114416 -88.30908203 84.72241211 C-87.79007324 83.8885498 -87.27106445 83.0546875 -86.73632812 82.19555664 C-85.11915929 79.59755341 -83.49656521 77.00303376 -81.87158203 74.40991211 C-81.37513184 73.61472168 -80.87868164 72.81953125 -80.3671875 72.00024414 C-79.65973389 70.87851807 -79.65973389 70.87851807 -78.93798828 69.73413086 C-78.52621338 69.07888428 -78.11443848 68.4236377 -77.69018555 67.74853516 C-76.02862255 65.31096907 -74.15193454 63.02597775 -72.30908203 60.72241211 C-76.92908203 61.05241211 -81.54908203 61.38241211 -86.30908203 61.72241211 C-85.09447601 54.43477598 -85.09447601 54.43477598 -81.30908203 50.72241211 C-78.78042862 49.12754714 -76.14333881 47.85510379 -73.43408203 46.59741211 C-72.391875 46.09661133 -72.391875 46.09661133 -71.32861328 45.58569336 C-69.96394763 44.93034545 -68.59599886 44.2817834 -67.22460938 43.640625 C-65.47124142 42.80014362 -63.7547253 41.88387756 -62.04345703 40.96069336 C-58.45912904 39.33750483 -56.08459344 39.8917996 -52.30908203 40.72241211 C-48.60495056 51.16806287 -45.7106664 61.50641091 -47.30908203 72.72241211 C-49.13731073 75.4817181 -50.38392008 77.27384874 -53.37158203 78.72241211 C-55.30908203 78.72241211 -55.30908203 78.72241211 -56.79345703 77.48413086 C-58.42222953 75.59089272 -59.42607565 73.78666692 -60.49658203 71.53491211 C-61.01285156 70.46176758 -61.01285156 70.46176758 -61.53955078 69.36694336 C-61.79349609 68.82424805 -62.04744141 68.28155273 -62.30908203 67.72241211 C-64.82442845 70.82952272 -66.49612796 73.98974471 -68.17236328 77.61303711 C-68.72230957 78.78543945 -69.27225586 79.9578418 -69.83886719 81.16577148 C-70.12884583 81.78605225 -70.41882446 82.40633301 -70.71759033 83.04541016 C-77.46732994 97.43355269 -85.11787397 111.10076244 -93.30908203 124.72241211 C-95.60002281 128.54424187 -97.86794315 132.37849012 -100.12158203 136.22241211 C-100.63156738 137.06481445 -101.14155273 137.9072168 -101.66699219 138.77514648 C-104.63917455 143.8620916 -106.19990919 147.78854723 -106.30908203 153.72241211 C-102.76899121 160.2968665 -97.15210983 161.59618952 -90.30908203 163.72241211 C-85.5166033 164.92235356 -80.67541246 165.84825771 -75.82666016 166.78881836 C-64.67799319 169.05914703 -53.94364856 172.52791785 -46.67236328 181.81225586 C-42.47680717 188.26788231 -41.56392175 194.07061696 -42.30908203 201.72241211 C-44.95040439 212.97178505 -53.2909468 223.23990664 -59.62939453 232.68334961 C-60.17917969 233.50254883 -60.72896484 234.32174805 -61.29541016 235.16577148 C-62.37456279 236.76713624 -63.45907472 238.36490444 -64.54931641 239.95874023 C-65.03980469 240.68254883 -65.53029297 241.40635742 -66.03564453 242.15209961 C-66.47473145 242.7938916 -66.91381836 243.43568359 -67.36621094 244.09692383 C-68.47633306 245.69755681 -68.47633306 245.69755681 -68.30908203 247.72241211 C-52.46908203 247.72241211 -36.62908203 247.72241211 -20.30908203 247.72241211 C-18.32908203 241.12241211 -16.34908203 234.52241211 -14.30908203 227.72241211 C-7.76483166 208.49032937 0.74302634 190.16440288 10.10107422 172.15209961 C10.47663452 171.42872406 10.85219482 170.70534851 11.23913574 169.96005249 C13.06872381 166.44441098 14.91214673 162.93703108 16.77832031 159.44067383 C23.0453975 147.6021586 28.55681728 135.2737767 31.06591797 122.03491211 C31.30387085 120.79680786 31.30387085 120.79680786 31.54663086 119.53369141 C36.66499325 90.23348104 29.10021822 59.69041756 12.38232422 35.26147461 C-5.97375882 9.74891992 -32.24718714 -6.53131017 -63.05908203 -12.09008789 C-103.4810635 -18.53910436 -142.31098972 -2.69987379 -169.02001953 27.87866211 Z M-145.30908203 267.72241211 C-147.56491312 271.25327816 -147.66158935 274.53328594 -146.95751953 278.65600586 C-145.69278644 282.68639023 -143.72524246 285.26292129 -140.30908203 287.72241211 C-132.08891354 289.83220277 -123.68669655 288.14046941 -115.47314453 286.85131836 C-103.54867398 285.11328702 -91.75198923 284.26038795 -79.70751953 283.99975586 C-78.92778023 283.98239002 -78.14804092 283.96502419 -77.34467316 283.94713211 C-71.791462 283.82857143 -66.23793368 283.74186755 -60.68408203 283.65991211 C-55.03350316 283.5737667 -49.38343586 283.47609969 -43.73347855 283.35565376 C-41.50829908 283.31322412 -39.28339842 283.28836308 -37.05795288 283.26463318 C-35.70333262 283.23827577 -34.34872714 283.21114328 -32.99414062 283.18310547 C-31.81967377 283.16630234 -30.64520691 283.14949921 -29.43515015 283.13218689 C-25.1680532 282.57284248 -22.58714032 280.87266457 -19.43408203 278.03491211 C-18.04364877 275.1767993 -18.20343917 272.84926933 -18.49658203 269.72241211 C-19.79980699 266.51447375 -21.33407952 265.53037913 -24.30908203 263.72241211 C-27.98237995 263.1216687 -31.6228782 263.17612779 -35.33813477 263.20483398 C-36.45088776 263.19782471 -37.56364075 263.19081543 -38.71011353 263.18359375 C-42.38788826 263.16599106 -46.06489323 263.17764619 -49.74267578 263.19116211 C-52.29948576 263.18846768 -54.85629473 263.18458567 -57.4131012 263.17956543 C-62.77217305 263.17366709 -68.13096931 263.18186177 -73.48999023 263.20092773 C-79.6766488 263.22268471 -85.86277981 263.21565213 -92.04942554 263.19362211 C-98.01085495 263.1732474 -103.97212116 263.17544958 -109.9335804 263.18714905 C-112.46571998 263.18981678 -114.99787302 263.18654499 -117.52999687 263.17723083 C-121.07057153 263.1670664 -124.61013534 263.1825673 -128.15063477 263.20483398 C-129.19654282 263.19673706 -130.24245087 263.18864014 -131.3200531 263.18029785 C-137.28608072 263.24976836 -140.77386153 263.72586674 -145.30908203 267.72241211 Z M-140.25048828 298.89819336 C-141.46245245 300.84478282 -141.46245245 300.84478282 -142.30908203 303.72241211 C-140.58777698 308.98195532 -139.11967828 311.68522497 -134.30908203 314.72241211 C-131.00442246 315.33486555 -127.73564988 315.31705507 -124.3815918 315.31591797 C-123.38588165 315.33107452 -122.39017151 315.34623108 -121.36428833 315.36184692 C-118.07625114 315.40659644 -114.78878731 315.42266706 -111.50048828 315.43725586 C-109.21270972 315.45986082 -106.9249437 315.48376942 -104.63719177 315.50892639 C-99.84317767 315.55726498 -95.049321 315.59177243 -90.25512695 315.61621094 C-84.11349547 315.64834265 -77.97266931 315.71163003 -71.83140659 315.78490353 C-67.10713997 315.83835577 -62.38284418 315.87682293 -57.65839958 315.91061592 C-55.39416723 315.92831562 -53.12996416 315.95030338 -50.86581612 315.9766674 C-47.69908278 316.0109787 -44.53285966 316.02549135 -41.3659668 316.03466797 C-39.96541801 316.05544655 -39.96541801 316.05544655 -38.53657532 316.0766449 C-33.39392866 316.06781099 -29.70824181 315.70076105 -25.30908203 312.72241211 C-23.17101354 309.0670047 -22.27095946 306.71359887 -22.43408203 302.47241211 C-23.36858825 299.53539256 -23.89161245 298.55440626 -26.30908203 296.72241211 C-28.84932184 296.26262629 -28.84932184 296.26262629 -31.75390625 296.32177734 C-32.87677032 296.30836304 -33.9996344 296.29494873 -35.15652466 296.28112793 C-36.37991547 296.28108765 -37.60330627 296.28104736 -38.86376953 296.28100586 C-40.81368911 296.26181747 -42.76360862 296.24261565 -44.71352196 296.22280312 C-46.78407247 296.20424507 -48.85456118 296.19258007 -50.9251709 296.18283081 C-58.0144299 296.14824925 -65.10312407 296.05979288 -72.19189453 295.97241211 C-73.2424855 295.96012227 -73.2424855 295.96012227 -74.31430054 295.94758415 C-88.39376834 295.77921093 -102.41615247 295.15920334 -116.46504211 294.24981689 C-119.4123727 294.06112364 -122.36037238 293.88806996 -125.30908203 293.72241211 C-126.80846313 293.63600464 -126.80846313 293.63600464 -128.33813477 293.54785156 C-129.22960205 293.51780029 -130.12106934 293.48774902 -131.03955078 293.45678711 C-131.78873779 293.42681641 -132.5379248 293.3968457 -133.30981445 293.3659668 C-136.67262684 293.96551571 -138.29299578 296.25308309 -140.25048828 298.89819336 Z M-88.11621094 330.040802 C-89.57934401 330.07857354 -91.04256803 330.11297158 -92.50585938 330.14401245 C-94.58648036 330.1892216 -96.66637807 330.24713819 -98.74658203 330.30834961 C-99.96216797 330.33977051 -101.17775391 330.37119141 -102.43017578 330.40356445 C-105.43626483 330.43294744 -105.43626483 330.43294744 -107.30908203 332.72241211 C-98.15295811 341.18885396 -91.35829769 345.11737697 -78.70751953 345.00366211 C-72.35113507 344.4776165 -67.35714718 342.45188934 -62.49658203 338.34741211 C-61.77470703 337.48116211 -61.05283203 336.61491211 -60.30908203 335.72241211 C-58.64241536 333.72241211 -56.9757487 331.72241211 -55.30908203 329.72241211 C-66.24802957 329.58567527 -77.18094939 329.74980552 -88.11621094 330.040802 Z " fill="#ffff" transform="translate(338.30908203125,118.277587890625)"/>
<path d="M0 0 C1.66666667 0.66666667 3.33333333 1.33333333 5 2 C6.64635125 1.99442859 8.29277261 1.94831623 9.9375 1.875 C14.81630515 1.80250661 17.35617111 2.52968677 21 6 C25.03643106 11.24736037 25.63251337 16.60594787 25.37890625 23.1015625 C24.48404712 29.94677354 21.30102547 34.52782832 15.921875 38.74609375 C10.60882111 42.21253745 5.35430907 43.75390108 -1 43 C-10.08428239 40.86014682 -15.25967713 37.00718521 -20.16015625 29.13671875 C-22.58795148 22.959956 -21.79214108 14.98099769 -19.3125 8.9375 C-14.94326987 0.46337039 -8.77671945 -0.60191218 0 0 Z M-0.4375 8.375 C-4.06424452 12.0902017 -4.94998667 15.84862724 -5 21 C-3.27578554 24.37946035 -2.09286201 25.53984758 1.375 27 C5.04180322 27 6.98902853 26.07422479 10 24 C11.76217403 21.2972332 11.76217403 21.2972332 12 18 C10.74852344 13.46339746 9.60279721 11.47018183 5.875 8.5625 C2.62960621 6.54199296 2.62960621 6.54199296 -0.4375 8.375 Z " fill="#ffff" transform="translate(308,239)"/>
<path d="M0 0 C2.9375 1.5 2.9375 1.5 5 3 C4.55022843 8.30730454 3.96368662 11.49004209 1 16 C0.69559061 19.16796326 0.69559061 19.16796326 3.0625 21.6875 C5.6881282 26.17647724 5.14658897 28.00414806 4 33 C3.34 33.99 2.68 34.98 2 36 C-7.27814259 35.64587242 -7.27814259 35.64587242 -10.375 32.875 C-10.91125 32.25625 -11.4475 31.6375 -12 31 C-14.9969269 31 -16.44572527 32.30347253 -18.9375 34 C-21.82901302 35.88833504 -23.58177345 36.81009852 -27 37 C-29.48018753 34.51981247 -29.32361558 33.61484049 -29.375 30.1875 C-29.32005518 26.39081278 -29.11495655 25.17961961 -27 21.875 C-26.34 21.25625 -25.68 20.6375 -25 20 C-26.21130822 16.55243044 -27.38510218 14.50594374 -30 12 C-31.70215513 9.44676731 -32.04686626 8.40304985 -31.6875 5.3125 C-31 3 -31 3 -30 2 C-23.45537436 1.14330008 -19.39873607 2.32426481 -14 6 C-13.57589844 5.566875 -13.15179688 5.13375 -12.71484375 4.6875 C-8.53219795 0.71628465 -6.00966071 -1.00161012 0 0 Z " fill="#ffff" transform="translate(206,188)"/>
<path d="M0 0 C0.33 0.33 0.66 0.66 1 1 C0.79103366 4.69173862 0.62783221 7.20291348 -1.6953125 10.15234375 C-7.09585102 14.48192802 -16.38855421 14.5086651 -23.15625 14.3125 C-25 14 -25 14 -27.5 12.375 C-29.33258527 9.47340665 -29.8572612 7.42573131 -30 4 C-28.87981101 0.63943304 -28.05465901 0.03643934 -25 -2 C-16.01402425 -3.72807226 -8.61079631 -2.8752313 0 0 Z " fill="#ffff" transform="translate(440,235)"/>
<path d="M0 0 C4.92295679 0.06652644 9.7650674 1.22427765 14.25 3.25 C15.24 4.735 15.24 4.735 16.25 6.25 C14.82211418 10.53365746 14.05556278 12.71295815 10.25 15.25 C3.85640208 16.97339911 -4.19055648 18.6940566 -10.75 17.25 C-13.94832531 13.8844895 -14.75 10.89120904 -14.75 6.25 C-12.4182747 2.99971624 -10.79174006 1.55094713 -6.9375 0.4375 C-4.62440465 0.30143557 -2.31196179 0.15413079 0 0 Z " fill="#ffff" transform="translate(85.75,231.75)"/>
<path d="M0 0 C1.216875 0.268125 2.43375 0.53625 3.6875 0.8125 C3.6875 1.4725 3.6875 2.1325 3.6875 2.8125 C4.27144531 3.05613281 4.85539062 3.29976563 5.45703125 3.55078125 C9.95537017 6.09537577 13.81529425 11.02346998 15.359375 15.9609375 C15.625 17.875 15.625 17.875 15.6875 20.8125 C11.81430058 23.54652312 9.41076994 24.33604317 4.6875 23.8125 C2.2340891 22.47738802 0.16434588 21.19552031 -2.0625 19.5625 C-2.63871094 19.16675781 -3.21492188 18.77101563 -3.80859375 18.36328125 C-6.85732435 16.19576882 -9.14949721 14.43656676 -10.3125 10.8125 C-10.22955048 6.91387237 -9.50161223 5.08184165 -7.25 1.875 C-4.08244761 -0.34902614 -3.60959611 -0.44799952 0 0 Z " fill="#ffff" transform="translate(121.3125,96.1875)"/>
<path d="M0 0 C2.24016656 2.62640217 2.94435584 4.42631651 3.27734375 7.859375 C2.9499773 11.56645423 1.95834194 13.16507951 -0.25 16.125 C-0.85328125 16.95257813 -1.4565625 17.78015625 -2.078125 18.6328125 C-6.89263804 24.56288344 -6.89263804 24.56288344 -10.375 25.9375 C-13.95856067 26.02282287 -15.9857088 24.87555897 -19 23 C-21 20 -21 20 -21.0625 16.8125 C-19.00974026 9.44671507 -13.37864804 4.56106871 -6.85546875 0.8515625 C-4.30606277 -0.31848067 -2.73055835 -0.78015953 0 0 Z " fill="#ffff" transform="translate(396,96)"/>
<path d="M0 0 C3.78207976 0.29092921 5.30186263 0.87908694 8.25 3.25 C9.15217858 5.82210517 9.70328534 7.91649765 10.125 10.5625 C10.49238281 12.50576172 10.49238281 12.50576172 10.8671875 14.48828125 C11.234547 18.0981506 11.20861895 20.76225872 10.25 24.25 C6.90603092 27.35511415 5.14999293 28.25 0.5625 28.25 C-3.18934902 27.11736633 -3.81732427 26.53274776 -5.75 23.25 C-7.53598345 15.54088158 -6.82189938 8.50394062 -3.75 1.25 C-2.75 0.25 -2.75 0.25 0 0 Z " fill="#ffff" transform="translate(253.75,32.75)"/>
</svg>
