<?xml version="1.0" encoding="UTF-8"?>
<svg fill="currentColor" stroke="currentColor" version="1.1" xmlns="http://www.w3.org/2000/svg" width="512" height="512">
<path d="M0 0 C0.9724968 -0.00525911 0.9724968 -0.00525911 1.96463999 -0.01062447 C4.14014838 -0.01993872 6.31538909 -0.01501518 8.49090862 -0.01015663 C10.06519832 -0.01389288 11.63948616 -0.01849431 13.21377105 -0.02388728 C17.54245183 -0.0361358 21.87105543 -0.03585463 26.19974959 -0.03349853 C30.86721881 -0.03309083 35.53466313 -0.04412501 40.20212078 -0.05361366 C49.34757338 -0.07023477 58.4930002 -0.07572371 67.63846663 -0.07683842 C75.0715403 -0.07778836 82.50460545 -0.08189598 89.93767643 -0.08823967 C111.00655055 -0.10585508 132.07540429 -0.11507807 153.14428584 -0.11357872 C154.8484411 -0.11345885 154.8484411 -0.11345885 156.58702374 -0.11333656 C158.29325701 -0.11321392 158.29325701 -0.11321392 160.03395965 -0.1130888 C178.47080581 -0.11227581 196.90757028 -0.13141606 215.34439281 -0.1596133 C234.27004325 -0.18833002 253.19565384 -0.20215426 272.12132663 -0.20042574 C282.74872453 -0.19976143 293.37603681 -0.20527207 304.00341511 -0.22678185 C313.05154376 -0.24497768 322.09954798 -0.24935411 331.147687 -0.235763 C335.76438243 -0.22922529 340.38083903 -0.22914507 344.99751186 -0.2464695 C349.2248602 -0.26216984 353.45177972 -0.25936783 357.6791174 -0.24190123 C359.20736587 -0.23882462 360.73564609 -0.24248863 362.2638571 -0.25362138 C371.44138888 -0.31604346 378.47066426 -0.09850738 385.68345928 6.22211266 C386.22228741 6.87308922 386.76111553 7.52406578 387.31627178 8.19476891 C387.87056866 8.84316734 388.42486553 9.49156578 388.99595928 10.15961266 C392.45257427 15.17637549 392.72288906 19.80290899 392.6726408 25.75693321 C392.67392096 27.03801856 392.67392096 27.03801856 392.67522699 28.34498441 C392.67584079 31.20597331 392.66232711 34.06672355 392.64903545 36.92767906 C392.646874 38.9795073 392.64568759 41.03133676 392.64540386 43.08316612 C392.64334815 47.50241677 392.63564535 51.92160961 392.62397099 56.34084511 C392.60681551 63.33412497 392.61006204 70.32730139 392.61761761 77.32059288 C392.63680402 97.20725621 392.64351772 117.09378611 392.5958128 136.98041344 C392.56963393 147.96328162 392.56836997 158.94585579 392.59496003 169.92872655 C392.60793694 175.7380218 392.60795855 181.54667959 392.57709599 187.35592079 C392.54810295 192.82435648 392.55166207 198.29181675 392.57970333 203.76024818 C392.58418622 205.76166335 392.57680856 207.76314755 392.55637455 209.76446342 C392.44627041 221.27522871 392.83265718 229.01663428 400.44127178 238.25726891 C401.93768804 240.84174622 403.24087829 243.48944293 404.50377178 246.19476891 C404.83393291 246.90149742 405.16409405 247.60822594 405.50426006 248.33637047 C408.02599209 253.93507827 410.02857738 259.63581536 411.81627178 265.50726891 C412.05482891 266.28578209 412.29338604 267.06429527 412.53917217 267.86639977 C415.95230642 279.70937119 416.85249927 291.53718645 416.81627178 303.81976891 C416.81545605 304.86816948 416.81545605 304.86816948 416.81462383 305.93774986 C416.75604234 322.38696523 414.02013489 337.11084648 408.2845335 352.52631187 C406.44711049 357.38735019 406.44711049 357.38735019 407.44127178 362.25726891 C409.26840167 364.44934999 409.26840167 364.44934999 411.58970928 366.59320641 C412.43017803 367.41047203 413.27064678 368.22773766 414.13658428 369.06976891 C415.91505947 370.77046821 417.69370378 372.47099067 419.47252178 374.17133141 C420.73709209 375.40109703 420.73709209 375.40109703 422.02720928 376.65570641 C422.80113018 377.39482262 423.57505108 378.13393883 424.37242413 378.8954525 C426.7302841 381.58720815 428.16759097 383.90893551 429.44127178 387.25726891 C429.13218975 390.06513023 429.13218975 390.06513023 428.55845928 393.02680016 C428.41394648 399.3113228 430.5421501 402.21277805 434.65471172 406.6070919 C438.54116479 410.4805253 442.52976946 414.22861765 446.56627178 417.94476891 C449.01106408 420.2408718 451.44598359 422.54635924 453.87068462 424.86366844 C455.37553096 426.29704656 456.89297917 427.71736058 458.42518902 429.12145042 C465.98025595 436.22056225 471.88172666 444.67285423 472.77720928 455.21039391 C473.03551363 467.4855276 471.08470908 476.99918718 462.44127178 486.25726891 C453.72693647 494.44545567 445.72859974 496.83661496 433.88389874 496.73871422 C417.36151823 496.0929828 407.43021645 484.61329758 396.82017803 473.27680016 C395.11946313 471.48066505 393.41721857 469.68599294 391.71446514 467.89179039 C390.5649697 466.66748834 389.42638122 465.43286206 388.29844952 464.18866539 C381.76520072 456.56770627 381.76520072 456.56770627 372.94468975 452.60248375 C370.7216614 452.67021441 368.49929361 452.81067915 366.28648663 453.03412437 C363.00497042 453.29148715 360.86383772 452.66467019 358.14097881 450.76361656 C353.23159642 446.41272754 348.81627503 441.55193623 344.38072491 436.72797203 C343.57441631 435.88556969 342.76810772 435.04316734 341.93736553 434.17523766 C341.21734356 433.39946373 340.49732159 432.6236898 339.75548077 431.82440758 C337.4867209 429.94652508 337.4867209 429.94652508 334.40562725 430.43085289 C332.07125568 431.08163923 329.78698502 431.72269176 327.51549053 432.56195641 C302.71295151 441.45771714 273.196576 444.49616767 247.44127178 437.25726891 C246.65349346 437.0421566 245.86571514 436.8270443 245.05406475 436.60541344 C225.73315554 431.1648286 207.65169089 422.45160884 192.44127178 409.25726891 C191.90598858 408.80271324 191.37070538 408.34815758 190.81920147 407.8798275 C175.68941515 394.961454 164.55368293 379.3675204 156.20299053 361.33930016 C155.83862896 360.55865196 155.47426739 359.77800377 155.09886456 358.97369957 C154.21048103 357.06939592 153.32551891 355.16349677 152.44127178 353.25726891 C151.22316814 353.25506907 151.22316814 353.25506907 149.98045635 353.25282478 C130.20776485 353.2157497 110.43524467 353.15672562 90.66269207 353.07336617 C81.10076401 353.03358143 71.53891818 353.00118605 61.97691631 352.98627281 C53.64125644 352.97325338 45.30577755 352.94628124 36.97021961 352.90265584 C32.55784769 352.88004759 28.14569895 352.86435784 23.73326397 352.86538506 C19.57662328 352.86613205 15.42047579 352.84816585 11.26396275 352.81610107 C9.74186675 352.80761112 8.21971538 352.80584602 6.69760609 352.81146622 C-2.49523615 352.84087761 -9.57779436 352.62209422 -16.80091572 346.29242516 C-17.33974384 345.64144859 -17.87857197 344.99047203 -18.43372822 344.31976891 C-18.98802509 343.67137047 -19.54232197 343.02297203 -20.11341572 342.35492516 C-22.94138354 338.25055023 -23.80873574 334.64484084 -23.81599712 329.69805241 C-23.82244602 328.58531096 -23.82889491 327.47256952 -23.83553922 326.32610863 C-23.83244202 325.10880824 -23.82934481 323.89150785 -23.82615376 322.63731956 C-23.83068487 321.34012232 -23.83521598 320.04292507 -23.8398844 318.70641881 C-23.8521202 315.1074344 -23.85185326 311.50854291 -23.84949565 307.90954244 C-23.84908763 304.0273542 -23.86012523 300.14519581 -23.86961079 296.26302147 C-23.88622499 288.65763001 -23.89172052 281.05226955 -23.89283554 273.44686147 C-23.89378583 267.26474072 -23.89789515 261.08263021 -23.90423679 254.9005127 C-23.92185044 237.37323952 -23.93107549 219.84599083 -23.92957585 202.31870874 C-23.92949593 201.37377295 -23.92941602 200.42883716 -23.92933369 199.45526695 C-23.92925193 198.50917745 -23.92917016 197.56308794 -23.92908593 196.58832905 C-23.92827301 181.25540848 -23.94741163 165.92258614 -23.97561042 150.58969399 C-24.00433597 134.84615729 -24.01815089 119.1026685 -24.01642287 103.35910493 C-24.01575885 94.52022327 -24.02125642 85.68144458 -24.04277897 76.84258652 C-24.06098645 69.31691873 -24.06534171 61.7914006 -24.05176012 54.26572033 C-24.0452282 50.42670956 -24.04512106 46.58798594 -24.06246662 42.74900246 C-24.08108626 38.58517385 -24.06864876 34.42201061 -24.05320454 30.25816917 C-24.06349166 29.04756095 -24.07377879 27.83695272 -24.08437765 26.58965939 C-24.01907986 18.63427288 -22.98443706 13.16652711 -17.59388447 7.01508141 C-16.94290791 6.47625328 -16.29193134 5.93742516 -15.62122822 5.38226891 C-14.97282978 4.82797203 -14.32443134 4.27367516 -13.65638447 3.70258141 C-9.194158 0.6280492 -5.36931509 0.006554 0 0 Z M-5.55872822 19.25726891 C-9.04429092 27.0736482 -9.04429092 27.0736482 -7.55872822 48.25726891 C119.16127178 48.25726891 245.88127178 48.25726891 376.44127178 48.25726891 C378.23012616 26.71694368 378.23012616 26.71694368 373.44127178 18.25726891 C369.73813807 16.06035007 366.33976506 16.00609932 362.09560013 16.00279331 C360.80745551 15.99696112 359.51931089 15.99112893 358.19213158 15.98512 C356.76464418 15.98875311 355.33715726 15.99257748 353.90967083 15.99657249 C352.39170326 15.99355214 350.87373721 15.98966324 349.35577387 15.98497993 C345.18284896 15.97467628 341.01000975 15.97688775 336.83707774 15.98116052 C332.33734017 15.98362344 327.83762346 15.97461901 323.33789349 15.96712303 C314.52197582 15.9543621 305.70608859 15.95258406 296.89016325 15.95492329 C289.72595144 15.95670499 282.56174889 15.95496001 275.39753819 15.95069885 C274.37861504 15.95010366 273.35969189 15.94950847 272.30989228 15.94889525 C270.24007833 15.94768352 268.17026439 15.94646939 266.10045045 15.94525287 C246.68211176 15.93437205 227.26379042 15.93654245 207.84545075 15.94263772 C190.07331891 15.94780787 172.30124187 15.9365498 154.52912087 15.9175395 C136.28826824 15.89817711 118.04744155 15.88990226 99.80657858 15.89366275 C89.56267585 15.89557716 79.31881978 15.89306388 69.07492542 15.87894821 C60.35466912 15.86705383 51.63448819 15.86560768 42.91423089 15.87773838 C38.46389324 15.88364063 34.01369357 15.88468942 29.56336498 15.87273598 C25.49038102 15.86192305 21.41765102 15.86492549 17.34467917 15.87899766 C15.87030377 15.88165729 14.39590876 15.87923853 12.92155255 15.8712618 C10.91865175 15.8611766 8.91567954 15.87135621 6.91278458 15.8825388 C5.79987661 15.88248378 4.68696864 15.88242876 3.54033619 15.88237208 C-0.1336336 16.32681577 -2.46667597 17.22386881 -5.55872822 19.25726891 Z M-7.55872822 64.25726891 C-7.62060322 107.69351891 -7.68247822 151.12976891 -7.74622822 195.88226891 C-7.77354023 209.61030113 -7.80085224 223.33833336 -7.82899189 237.48236656 C-7.83902361 249.76073152 -7.83902361 249.76073152 -7.84505939 262.03909874 C-7.84786055 267.51887459 -7.85888003 272.99856178 -7.8754549 278.47830772 C-7.89453756 284.79646923 -7.90323919 291.11454283 -7.89906307 297.43273338 C-7.89725408 300.66548699 -7.90181033 303.89800403 -7.91637361 307.13073087 C-7.93124422 310.59174226 -7.92771709 314.05225866 -7.91949177 317.51328087 C-7.92822976 318.52272444 -7.93696775 319.53216801 -7.94597054 320.57220078 C-7.9124004 325.80984171 -7.76047363 329.86861293 -4.55872822 334.25726891 C-0.89495321 336.42256292 2.42698399 336.50494489 6.62323284 336.49777794 C8.48886379 336.50190193 8.48886379 336.50190193 10.39218426 336.50610924 C11.76247026 336.49903192 13.13275529 336.49176231 14.50303936 336.48431969 C15.95203423 336.48375529 17.40102968 336.4840727 18.85002422 336.4852047 C22.7773391 336.48577808 26.7045316 336.47402603 30.63181806 336.46005678 C34.73843689 336.44754712 38.84505859 336.44637874 42.95169353 336.44400597 C50.72535887 336.43779189 58.4989679 336.42138205 66.27260846 336.40130699 C75.12381774 336.37894573 83.97502971 336.36795399 92.82626021 336.35791612 C111.03129598 336.33701577 129.23627935 336.30184119 147.44127178 336.25726891 C147.30079418 335.19598778 147.16031658 334.13470665 147.01558208 333.04126549 C145.74857484 323.31146948 145.03777491 313.82631347 145.06627178 304.00726891 C145.06681561 303.29248375 145.06735943 302.57769859 145.06791973 301.84125328 C145.10927057 289.95338399 146.05213619 278.69882558 149.44127178 267.25726891 C149.65557842 266.527015 149.86988506 265.79676109 150.09068584 265.04437828 C161.17641565 228.54376572 185.26855169 201.33718744 218.44127178 183.25726891 C220.43895416 182.25264703 222.43861892 181.25194549 224.44127178 180.25726891 C224.44713802 179.66258308 224.45300426 179.06789726 224.45904827 178.45519066 C224.52290301 172.27456136 224.60730171 166.09445661 224.70372295 159.91425133 C224.73701035 157.60670442 224.76503028 155.29907534 224.78770733 152.99139977 C224.82118286 149.67732228 224.87349577 146.36400046 224.92955303 143.05023766 C224.93594296 142.01578011 224.94233288 140.98132256 224.94891644 139.91551781 C224.97860767 138.47436356 224.97860767 138.47436356 225.00889874 137.00409508 C225.02555332 135.73501556 225.02555332 135.73501556 225.04254436 134.44029808 C225.53625547 131.73723405 226.21650001 130.84439627 228.44127178 129.25726891 C231.48989703 128.95878897 234.32987273 128.83705046 237.37877178 128.85883141 C238.69349468 128.85452614 238.69349468 128.85452614 240.03477764 128.8501339 C241.88740466 128.84809292 243.74005321 128.85362513 245.59263897 128.86615562 C248.43069357 128.88220907 251.26732405 128.86630835 254.10533428 128.84711266 C255.9048166 128.84909508 257.70429802 128.85293875 259.50377178 128.85883141 C260.35382793 128.85275871 261.20388409 128.84668602 262.07969952 128.84042931 C267.98165569 128.91099487 267.98165569 128.91099487 270.1620512 130.5537014 C272.34191737 133.45667937 271.92405228 136.92918201 271.95299053 140.42523766 C271.97991734 141.61745682 271.97991734 141.61745682 272.00738811 142.83376122 C272.06154148 145.37070991 272.09540206 147.90746997 272.12877178 150.44476891 C272.16194052 152.16549831 272.19642977 153.88620281 272.23228741 155.60687828 C272.31975652 159.82370303 272.37977831 164.03966503 272.44127178 168.25726891 C277.72127178 168.25726891 283.00127178 168.25726891 288.44127178 168.25726891 C288.4558543 165.72836998 288.47043682 163.19947105 288.48546124 160.59393883 C288.53574952 152.24783043 288.60233418 143.90190973 288.67698669 135.55598545 C288.72175562 130.49475947 288.76099725 125.4336152 288.78770733 120.37225914 C288.81367537 115.48973355 288.85403133 110.60752133 288.90445805 105.72518921 C288.92117086 103.86047125 288.93265757 101.99569904 288.93888569 100.1309166 C288.94847897 97.52320268 288.97647997 94.91629848 289.00889874 92.30878258 C289.00746365 91.53410637 289.00602856 90.75943016 289.00454998 89.96127892 C289.09572182 84.79183575 289.09572182 84.79183575 290.72049236 82.27831078 C293.93264735 80.37234613 297.74506973 80.8328727 301.37877178 80.85883141 C302.25525372 80.85596123 303.13173565 80.85309105 304.03477764 80.8501339 C305.88740466 80.84809292 307.74005321 80.85362513 309.59263897 80.86615562 C312.43069357 80.88220907 315.26732405 80.86630835 318.10533428 80.84711266 C319.9048166 80.84909508 321.70429802 80.85293875 323.50377178 80.85883141 C324.35382793 80.85275871 325.20388409 80.84668602 326.07969952 80.84042931 C331.97282289 80.91088926 331.97282289 80.91088926 334.16415405 82.53119946 C335.70982373 84.62022629 335.82314382 85.6836907 335.8399992 88.26256371 C335.85880642 89.48038788 335.85880642 89.48038788 335.87799358 90.72281456 C335.87584095 92.05314217 335.87584095 92.05314217 335.87364483 93.41034508 C335.88383648 94.34712593 335.89402813 95.28390678 335.90452862 96.24907494 C335.93475454 99.34952259 335.94393927 102.44966178 335.95299053 105.55023766 C335.96983009 107.69830421 335.98797934 109.84636087 336.00738811 111.99440575 C336.05497269 117.65131093 336.08472738 123.308176 336.11082745 128.96521568 C336.1405903 134.73647551 336.18713527 140.50759697 336.23228741 146.27875328 C336.31841677 157.60485291 336.38571921 168.93098094 336.44127178 180.25726891 C337.6003001 180.86055016 338.75932842 181.46383141 339.95347881 182.08539391 C341.49377931 182.89249729 343.03397563 183.69979951 344.57408428 184.50726891 C345.33567852 184.90301109 346.09727276 185.29875328 346.88194561 185.70648766 C356.62768 190.82863993 364.90961566 197.51401052 373.32408428 204.56976891 C375.12036689 206.36114998 375.12036689 206.36114998 376.44127178 206.25726891 C376.44127178 159.39726891 376.44127178 112.53726891 376.44127178 64.25726891 C249.72127178 64.25726891 123.00127178 64.25726891 -7.55872822 64.25726891 Z M304.44127178 96.25726891 C304.44127178 120.67726891 304.44127178 145.09726891 304.44127178 170.25726891 C312.37179159 172.3673435 312.37179159 172.3673435 320.44127178 173.25726891 C320.44127178 147.84726891 320.44127178 122.43726891 320.44127178 96.25726891 C315.16127178 96.25726891 309.88127178 96.25726891 304.44127178 96.25726891 Z M240.44127178 144.25726891 C240.44127178 153.82726891 240.44127178 163.39726891 240.44127178 173.25726891 C247.81197153 172.29561716 247.81197153 172.29561716 256.44127178 170.25726891 C256.44127178 161.67726891 256.44127178 153.09726891 256.44127178 144.25726891 C251.16127178 144.25726891 245.88127178 144.25726891 240.44127178 144.25726891 Z M195.44127178 220.25726891 C194.77869366 220.85926109 194.11611553 221.46125328 193.43345928 222.08148766 C178.61094041 235.76646438 169.88652964 255.23198839 164.44127178 274.25726891 C164.09967022 275.38648766 163.75806866 276.51570641 163.40611553 277.67914391 C158.57765659 296.81331609 159.64684761 319.44426109 165.44127178 338.25726891 C165.75475567 339.28714928 165.75475567 339.28714928 166.07457256 340.33783531 C175.30057721 369.55006126 196.33350857 395.36298191 223.53135967 409.61273766 C226.79662321 411.24869933 230.10430635 412.77397858 233.44127178 414.25726891 C234.50732647 414.73937828 235.57338116 415.22148766 236.67174053 415.71820641 C265.36149265 427.7177225 298.04425635 426.39554163 326.64415264 414.91547203 C341.6143012 408.53626246 353.93003424 399.65437237 365.44127178 388.25726891 C366.10384991 387.65527672 366.76642803 387.05328453 367.44908428 386.43305016 C377.85739111 376.82352036 384.70718391 364.02034578 390.44127178 351.25726891 C390.92467022 350.18992516 391.40806866 349.12258141 391.90611553 348.02289391 C401.94435354 323.97994087 403.10068965 295.1254325 395.44127178 270.25726891 C395.23228252 269.57068199 395.02329327 268.88409508 394.807971 268.1767025 C385.05870027 237.30766325 362.79643362 212.03861507 334.32847881 197.02484703 C287.54675231 173.63998605 232.10097215 183.96104998 195.44127178 220.25726891 Z M395.44127178 377.25726891 C394.02483063 379.00012038 392.68392713 380.80459105 391.37877178 382.63226891 C387.082201 388.52348822 382.44928783 393.9505291 377.44127178 399.25726891 C376.43193584 400.36328453 376.43193584 400.36328453 375.40220928 401.49164391 C368.83980322 408.42272447 361.21182344 413.78000259 353.44127178 419.25726891 C355.09990683 423.58231726 358.31231278 426.35145716 361.56627178 429.50726891 C362.12959209 430.06156578 362.69291241 430.61586266 363.27330303 431.18695641 C364.65813206 432.54831375 366.04910382 433.9034175 367.44127178 435.25726891 C370.80126197 433.79858137 372.99330284 431.94857942 375.56724834 429.35834312 C376.3677763 428.55766411 377.16830425 427.75698509 377.99309063 426.93204308 C378.84739666 426.06741447 379.70170269 425.20278587 380.58189678 424.31195641 C381.46407879 423.4269445 382.3462608 422.5419326 383.25517559 421.63010216 C385.59321721 419.28276759 387.92683053 416.93120105 390.25841045 414.57745934 C392.64123705 412.17412964 395.02977526 409.77649124 397.41783428 407.37836266 C402.09759041 402.67655424 406.77159045 397.96908227 411.44127178 393.25726891 C410.10706513 390.4946565 408.86043114 388.42100765 406.69127178 386.24164391 C406.16533428 385.71312828 405.63939678 385.18461266 405.09752178 384.64008141 C404.55095928 384.10125328 404.00439678 383.56242516 403.44127178 383.00726891 C402.62142803 382.17582359 402.62142803 382.17582359 401.78502178 381.32758141 C399.1152641 378.26511116 399.1152641 378.26511116 395.44127178 377.25726891 Z M412.82750225 415.64398766 C411.73267769 416.73913003 410.64336896 417.83980346 409.55845928 418.94476891 C408.98419201 419.52186607 408.40992474 420.09896324 407.81825542 420.6935482 C405.97953068 422.54349593 404.14786874 424.40026639 402.31627178 426.25726891 C401.07324018 427.51032756 399.82975632 428.76293774 398.58580303 430.01508141 C395.53234766 433.09062522 392.48521033 436.17230693 389.44127178 439.25726891 C390.78939868 442.25661285 392.29104382 444.36280738 394.60240459 446.69305992 C395.564156 447.66910934 395.564156 447.66910934 396.54533672 448.66487694 C397.23802654 449.35665535 397.93071636 450.04843376 398.64439678 450.76117516 C399.35980633 451.48086983 400.07521587 452.2005645 400.8123045 452.9420681 C402.32620966 454.46171165 403.8427365 455.97874729 405.36168194 457.49335289 C407.67746661 459.80598254 409.97963003 462.13159117 412.28111553 464.45844078 C413.75556427 465.93516311 415.23079935 467.41110081 416.70689678 468.88617516 C417.39148968 469.5799778 418.07608257 470.27378044 418.78142071 470.98860741 C424.01088558 476.16824905 428.6214142 479.66650871 436.25377178 479.81976891 C442.68526942 479.63601183 446.87096762 477.76959881 451.44127178 473.25726891 C455.40949489 468.3211865 455.89902111 463.24910664 455.97252178 457.06586266 C454.53207475 449.45055812 448.98445785 444.36906325 443.68345928 439.13617516 C442.93919689 438.39141426 442.1949345 437.64665337 441.42811871 436.87932396 C439.86334595 435.31688069 438.29490608 433.75810226 436.72301006 432.20282555 C434.30825433 429.81183034 431.90726815 427.40761482 429.50767803 425.00140953 C427.9837317 423.48303483 426.45901904 421.96542879 424.93345928 420.44867516 C424.21262157 419.72692604 423.49178387 419.00517693 422.74910259 418.26155663 C422.08145885 417.6034449 421.41381512 416.94533318 420.72593975 416.26727867 C420.13843945 415.68438576 419.55093914 415.10149284 418.9456358 414.50093651 C416.13681608 412.17886682 415.46093101 413.23931742 412.82750225 415.64398766 Z " fill="#ffff" transform="translate(31.558728218078613,7.742731094360352)"/>
<path d="M0 0 C22.17317742 16.96015986 36.72888473 39.72074954 41.9453125 67.23828125 C43.71532895 83.87974431 43.5665347 101.16347882 38.36328125 117.16796875 C38.04979736 118.13814941 38.04979736 118.13814941 37.72998047 119.12792969 C32.45971995 134.80053962 23.89884237 147.49405007 12.36328125 159.16796875 C11.72003906 159.88339844 11.07679688 160.59882813 10.4140625 161.3359375 C-4.36695257 177.39947015 -28.95282389 188.16891094 -50.65014648 189.32910156 C-85.21531709 189.78695365 -111.89551618 182.53810403 -137.13671875 158.10546875 C-157.79981634 137.4091556 -165.92022493 110.80787649 -165.95361328 82.07348633 C-165.84787496 71.96633904 -164.7608872 62.77748 -161.63671875 53.16796875 C-161.32323486 52.19778809 -161.32323486 52.19778809 -161.00341797 51.20800781 C-155.73315745 35.53539788 -147.17227987 22.84188743 -135.63671875 11.16796875 C-134.99347656 10.45253906 -134.35023438 9.73710937 -133.6875 9 C-100.00677332 -27.60313247 -38.81368102 -26.96832059 0 0 Z M-69.63671875 -1.83203125 C-69.63671875 16.31796875 -69.63671875 34.46796875 -69.63671875 53.16796875 C-64.35671875 53.16796875 -59.07671875 53.16796875 -53.63671875 53.16796875 C-53.63671875 35.01796875 -53.63671875 16.86796875 -53.63671875 -1.83203125 C-62.31395964 -3.17561353 -62.31395964 -3.17561353 -69.63671875 -1.83203125 Z M-37.63671875 1.16796875 C-37.63671875 18.32796875 -37.63671875 35.48796875 -37.63671875 53.16796875 C-32.35671875 53.16796875 -27.07671875 53.16796875 -21.63671875 53.16796875 C-21.63671875 37.98796875 -21.63671875 22.80796875 -21.63671875 7.16796875 C-29.40644369 3.0460861 -29.40644369 3.0460861 -37.63671875 1.16796875 Z M-101.63671875 7.16796875 C-101.63671875 22.34796875 -101.63671875 37.52796875 -101.63671875 53.16796875 C-96.35671875 53.16796875 -91.07671875 53.16796875 -85.63671875 53.16796875 C-85.63671875 36.00796875 -85.63671875 18.84796875 -85.63671875 1.16796875 C-91.33272125 1.16796875 -96.40126636 4.92420344 -101.63671875 7.16796875 Z M-123.13671875 22.35546875 C-141.27376056 40.77711464 -149.25623253 63.02480897 -149.1184082 88.63256836 C-148.8610204 98.92279671 -147.27265845 107.89608935 -142.63671875 117.16796875 C-89.17671875 117.16796875 -35.71671875 117.16796875 19.36328125 117.16796875 C28.21186325 95.04651375 28.09760778 71.61060759 18.72851562 49.67553711 C13.28679602 37.61279031 5.41370949 26.85384798 -4.63671875 18.16796875 C-4.96671875 18.16796875 -5.29671875 18.16796875 -5.63671875 18.16796875 C-5.63671875 29.71796875 -5.63671875 41.26796875 -5.63671875 53.16796875 C-1.67671875 53.49796875 2.28328125 53.82796875 6.36328125 54.16796875 C9.78389419 57.58858169 9.72453161 58.88017275 9.78012085 63.52954102 C9.77101181 64.80462524 9.77101181 64.80462524 9.76171875 66.10546875 C9.76602402 67.42019165 9.76602402 67.42019165 9.77041626 68.76147461 C9.77245723 70.61410163 9.76692503 72.46675017 9.75439453 74.31933594 C9.73834109 77.15739054 9.7542418 79.99402102 9.7734375 82.83203125 C9.77145507 84.63151356 9.76761141 86.43099499 9.76171875 88.23046875 C9.76779144 89.0805249 9.77386414 89.93058105 9.78012085 90.80639648 C9.71011716 96.6613589 9.71011716 96.6613589 8.18299866 98.89196205 C5.66571717 100.65710868 3.9226886 100.54544207 0.85961914 100.54891968 C-0.28449432 100.55737915 -1.42860779 100.56583862 -2.60739136 100.57455444 C-3.86359283 100.56848175 -5.11979431 100.56240906 -6.4140625 100.55615234 C-7.74952626 100.56021715 -9.08498666 100.56555852 -10.42044067 100.57208252 C-14.04853161 100.58577297 -17.67636696 100.58045049 -21.30446243 100.57094526 C-25.09873399 100.56335756 -28.89298346 100.5703918 -32.68725586 100.57510376 C-39.05944758 100.58056392 -45.43153504 100.57336292 -51.80371094 100.55908203 C-59.17408192 100.54275495 -66.54420395 100.54804328 -73.9145689 100.56456125 C-80.23906176 100.57816875 -86.56347961 100.5800994 -92.88798237 100.57224524 C-96.66688938 100.56756465 -100.44567933 100.56695439 -104.22457886 100.57685471 C-107.77706448 100.58551148 -111.32922869 100.57952648 -114.88167953 100.56217194 C-116.80979722 100.55630325 -118.73794205 100.56523366 -120.66604614 100.57455444 C-122.38221634 100.56186523 -122.38221634 100.56186523 -124.13305664 100.54891968 C-125.12930557 100.5477886 -126.1255545 100.54665752 -127.1519928 100.54549217 C-129.63671875 100.16796875 -129.63671875 100.16796875 -131.45643616 98.89196205 C-133.59999482 95.76094852 -133.06136655 91.89938975 -133.03515625 88.23046875 C-133.03946152 86.91574585 -133.03946152 86.91574585 -133.04385376 85.57446289 C-133.04589473 83.72183587 -133.04036253 81.86918733 -133.02783203 80.01660156 C-133.01177859 77.17854696 -133.0276793 74.34191648 -133.046875 71.50390625 C-133.04489257 69.70442394 -133.04104891 67.90494251 -133.03515625 66.10546875 C-133.04122894 65.2554126 -133.04730164 64.40535645 -133.05355835 63.52954102 C-132.98162124 57.51287124 -132.98162124 57.51287124 -129.63671875 54.16796875 C-123.69671875 53.67296875 -123.69671875 53.67296875 -117.63671875 53.16796875 C-117.63671875 41.61796875 -117.63671875 30.06796875 -117.63671875 18.16796875 C-119.7647759 18.16796875 -121.75448532 21.01376377 -123.13671875 22.35546875 Z M-117.63671875 69.16796875 C-117.63671875 74.44796875 -117.63671875 79.72796875 -117.63671875 85.16796875 C-80.67671875 85.16796875 -43.71671875 85.16796875 -5.63671875 85.16796875 C-5.63671875 79.88796875 -5.63671875 74.60796875 -5.63671875 69.16796875 C-42.59671875 69.16796875 -79.55671875 69.16796875 -117.63671875 69.16796875 Z M-134.63671875 133.16796875 C-121.74814338 152.50083181 -102.54335334 166.15057516 -79.63671875 171.16796875 C-56.90573572 175.36024976 -36.57892563 171.4818359 -16.63671875 160.16796875 C-15.78464844 159.68457031 -14.93257813 159.20117188 -14.0546875 158.703125 C-4.23112244 152.59658456 4.994448 143.8109205 11.36328125 134.16796875 C11.36328125 133.83796875 11.36328125 133.50796875 11.36328125 133.16796875 C-36.81671875 133.16796875 -84.99671875 133.16796875 -134.63671875 133.16796875 Z " fill="#ffff" transform="translate(373.63671875,226.83203125)"/>
<path d="M0 0 C1.02468384 -0.03371704 1.02468384 -0.03371704 2.07006836 -0.06811523 C5.24782795 -0.0526873 7.12787107 0.15549986 9.68841553 2.09588623 C11.99094688 5.07208701 11.98548932 6.66427104 11.95410156 10.39941406 C11.95379944 11.60035706 11.95349731 12.80130005 11.95318604 14.03863525 C11.93254089 15.33041687 11.91189575 16.62219849 11.890625 17.953125 C11.88316071 19.29261429 11.87746866 20.63211452 11.87347412 21.97161865 C11.85823213 25.49001436 11.81896418 29.00774515 11.7746582 32.52587891 C11.73367364 36.11872361 11.7154564 39.7116762 11.6953125 43.3046875 C11.65246745 50.34922966 11.58423446 57.39332132 11.5 64.4375 C12.24280212 64.42861755 12.98560425 64.41973511 13.75091553 64.4105835 C20.75449905 64.33040256 27.75792335 64.26951814 34.76183701 64.23025131 C38.36258286 64.20938487 41.96294916 64.18108579 45.56347656 64.13574219 C49.03887913 64.09224875 52.51391688 64.06835579 55.98957062 64.05799103 C57.95945784 64.04701385 59.92919847 64.015793 61.89886475 63.98431396 C63.70027924 63.98386078 63.70027924 63.98386078 65.53808594 63.98339844 C67.1236026 63.97007477 67.1236026 63.97007477 68.7411499 63.95648193 C72.21760527 64.56261774 73.38498341 65.65860126 75.5 68.4375 C78.04595309 84.5556295 72.51564456 101.16211959 63.5 114.4375 C52.51448356 128.97308604 37.17649793 140.09825248 19.1796875 144 C-1.99600668 146.51770462 -22.76620785 144.32858109 -40.19335938 131.15771484 C-54.54882372 119.4478065 -66.26130839 103.26649548 -68.5 84.4375 C-69.95937562 62.71712613 -67.17245401 42.48235982 -52.52075195 25.52880859 C-38.45563637 10.1228695 -21.12673001 0.45569796 0 0 Z M-37.17578125 33.953125 C-47.48226026 44.96979836 -52.05353009 58.56746923 -52.5 73.4375 C-51.99327774 84.94919034 -48.88428346 96.3501936 -40.5 104.4375 C-16.34706095 86.96742783 -16.34706095 86.96742783 -2.79492188 61.72705078 C-0.94914677 47.07112845 -2.41702615 32.00257262 -4.5 17.4375 C-16.81665598 17.4375 -28.60033881 25.92963412 -37.17578125 33.953125 Z M-28.5 116.4375 C-24.79382774 120.30925631 -22.01076962 122.3768777 -16.9375 124.1875 C-15.82246094 124.59484375 -14.70742187 125.0021875 -13.55859375 125.421875 C-1.00098668 129.59170621 14.49807001 128.96065537 26.5 123.4375 C30.37038822 121.34799629 33.94769162 119.0272474 37.5 116.4375 C38.13421875 115.99921875 38.7684375 115.5609375 39.421875 115.109375 C50.27068681 106.84835317 56.38044804 93.55955601 58.5 80.4375 C17.02968201 74.50676487 -3.38082246 82.89583156 -28.5 116.4375 Z " fill="#ffff" transform="translate(108.5,119.5625)"/>
<path d="M0 0 C1.00853027 -0.00700928 2.01706055 -0.01401855 3.05615234 -0.02124023 C6.39188114 -0.03885406 9.72676248 -0.02718497 13.0625 -0.01367188 C15.37890791 -0.0163658 17.69531472 -0.02024739 20.01171875 -0.02526855 C24.86729698 -0.03116822 29.72258096 -0.02258526 34.578125 -0.00390625 C40.80614646 0.01888316 47.03347845 0.00576265 53.26147461 -0.01819611 C58.04497485 -0.0326412 62.82831127 -0.02805393 67.61181641 -0.01768494 C69.90836671 -0.0150141 72.20493183 -0.01829988 74.50146484 -0.02760315 C77.7097114 -0.03774714 80.91683706 -0.02229671 84.125 0 C85.55271729 -0.01214539 85.55271729 -0.01214539 87.00927734 -0.02453613 C93.39320111 0.05777639 93.39320111 0.05777639 96.65124512 2.29602051 C98.14995737 4.65525105 98.56733057 5.81756917 98.58007812 8.58007812 C98.59268677 9.36769531 98.60529541 10.1553125 98.61828613 10.96679688 C98.61018921 11.80855469 98.60209229 12.6503125 98.59375 13.51757812 C98.59949036 14.82662109 98.59949036 14.82662109 98.60534668 16.16210938 C98.6080649 18.00456905 98.60070994 19.84706737 98.58398438 21.68945312 C98.56257248 24.50803746 98.58378801 27.32407297 98.609375 30.14257812 C98.60673171 31.93425041 98.60160669 33.72592111 98.59375 35.51757812 C98.60184692 36.35933594 98.60994385 37.20109375 98.61828613 38.06835938 C98.60567749 38.85597656 98.59306885 39.64359375 98.58007812 40.45507812 C98.57689575 41.14472656 98.57371338 41.834375 98.57043457 42.54492188 C97.76530425 45.67179186 96.73943632 46.67854925 94.0625 48.51757812 C90.75288099 49.11569435 87.48056152 49.06370153 84.125 49.03515625 C83.11646973 49.04216553 82.10793945 49.0491748 81.06884766 49.05639648 C77.73311886 49.07401031 74.39823752 49.06234122 71.0625 49.04882812 C68.74609209 49.05152205 66.42968528 49.05540364 64.11328125 49.0604248 C59.25770302 49.06632447 54.40241904 49.05774151 49.546875 49.0390625 C43.31885354 49.01627309 37.09152155 49.0293936 30.86352539 49.05335236 C26.08002515 49.06779745 21.29668873 49.06321018 16.51318359 49.05284119 C14.21663329 49.05017035 11.92006817 49.05345613 9.62353516 49.0627594 C6.4152886 49.07290339 3.20816294 49.05745296 0 49.03515625 C-0.95181152 49.04325317 -1.90362305 49.0513501 -2.88427734 49.05969238 C-9.26820111 48.97737986 -9.26820111 48.97737986 -12.52624512 46.73913574 C-14.02495737 44.3799052 -14.44233057 43.21758708 -14.45507812 40.45507812 C-14.46768677 39.66746094 -14.48029541 38.87984375 -14.49328613 38.06835938 C-14.48518921 37.22660156 -14.47709229 36.38484375 -14.46875 35.51757812 C-14.4725769 34.64488281 -14.47640381 33.7721875 -14.48034668 32.87304688 C-14.4830649 31.0305872 -14.47570994 29.18808888 -14.45898438 27.34570312 C-14.43757248 24.52711879 -14.45878801 21.71108328 -14.484375 18.89257812 C-14.48173171 17.10090584 -14.47660669 15.30923514 -14.46875 13.51757812 C-14.47684692 12.67582031 -14.48494385 11.8340625 -14.49328613 10.96679688 C-14.48067749 10.17917969 -14.46806885 9.3915625 -14.45507812 8.58007812 C-14.45189575 7.89042969 -14.44871338 7.20078125 -14.44543457 6.49023438 C-12.56450178 -0.81471008 -6.18642004 -0.05262699 0 0 Z M2.0625 16.51757812 C2.0625 21.79757812 2.0625 27.07757813 2.0625 32.51757812 C28.4625 32.51757812 54.8625 32.51757812 82.0625 32.51757812 C82.0625 27.23757813 82.0625 21.95757812 82.0625 16.51757812 C55.6625 16.51757812 29.2625 16.51757812 2.0625 16.51757812 Z " fill="#ffff" transform="translate(53.9375,279.482421875)"/>
<path d="M0 0 C19.98206928 3.23596264 36.04308828 14.27139712 48.1875 30.2109375 C55.76273863 41.86766246 60.13719767 54.57760678 60.4375 68.5 C60.45997803 69.18312256 60.48245605 69.86624512 60.50561523 70.57006836 C60.49040376 73.70324292 60.27159121 75.62769076 58.40649414 78.18444824 C55.15351707 80.63861929 53.05372364 80.50732441 49 80.51757812 C48.30358398 80.5245874 47.60716797 80.53159668 46.88964844 80.53881836 C44.59269068 80.55639196 42.29696979 80.54477919 40 80.53125 C38.40103927 80.53394513 36.80208013 80.53782773 35.203125 80.54284668 C31.85400774 80.54874082 28.50531757 80.54018192 25.15625 80.52148438 C20.86521409 80.49869435 16.57517889 80.51181796 12.28417969 80.53577423 C8.98299634 80.5502348 5.68204989 80.54562515 2.38085938 80.53526306 C0.79882692 80.53259646 -0.78322711 80.53586322 -2.36523438 80.54518127 C-4.57740163 80.55535179 -6.787953 80.5398419 -9 80.51757812 C-10.258125 80.51439575 -11.51625 80.51121338 -12.8125 80.50793457 C-16 80 -16 80 -18.40515137 78.40515137 C-20.56880448 75.14220018 -20.50770302 72.90404089 -20.51757812 69 C-20.5245874 68.30358398 -20.53159668 67.60716797 -20.53881836 66.88964844 C-20.55639196 64.59269068 -20.54477919 62.29696979 -20.53125 60 C-20.53394513 58.40103927 -20.53782773 56.80208013 -20.54284668 55.203125 C-20.54874082 51.85400774 -20.54018192 48.50531757 -20.52148438 45.15625 C-20.49869435 40.86521409 -20.51181796 36.57517889 -20.53577423 32.28417969 C-20.5502348 28.98299634 -20.54562515 25.68204989 -20.53526306 22.38085938 C-20.53259646 20.79882692 -20.53586322 19.21677289 -20.54518127 17.63476562 C-20.55535179 15.42259837 -20.5398419 13.212047 -20.51757812 11 C-20.51439575 9.741875 -20.51121338 8.48375 -20.50793457 7.1875 C-18.88641252 -2.98822311 -7.88797854 -0.80241017 0 0 Z M-4 17 C-4 32.51 -4 48.02 -4 64 C11.51 64 27.02 64 43 64 C38.41565524 45.66262094 31.33308859 33.01315105 15 23 C8.70783028 20.01424789 2.8780751 18.14634585 -4 17 Z " fill="#ffff" transform="translate(156,88)"/>
</svg>
