<?xml version="1.0" encoding="UTF-8"?>
<svg fill="currentColor" stroke="currentColor" version="1.1" xmlns="http://www.w3.org/2000/svg" width="512" height="512">
<path d="M0 0 C39.81397605 36.8820366 62.38504846 90.11913184 64.80078125 143.9453125 C65.05542261 150.86247168 65.17861055 157.7803748 65.23117065 164.70166016 C65.24367042 166.14442068 65.26114495 167.58714713 65.28372192 169.02978516 C65.31375154 171.07996453 65.32351937 173.12931217 65.328125 175.1796875 C65.3374707 176.37319824 65.34681641 177.56670898 65.35644531 178.79638672 C64.9604178 182.35575181 64.17633252 184.17933794 62 187 C60.33935547 188.21386719 60.33935547 188.21386719 58.4921875 189.046875 C57.78803711 189.36720703 57.08388672 189.68753906 56.35839844 190.01757812 C51.97616766 191.84305397 47.56842938 193.57907252 43.125 195.25 C42.17625 195.61351562 41.2275 195.97703125 40.25 196.3515625 C33.26051457 199 33.26051457 199 31 199 C30.85304688 199.6084375 30.70609375 200.216875 30.5546875 200.84375 C27.33653127 213.42045251 22.8467172 225.3421057 16.36450195 236.59643555 C14.77028425 239.53283128 13.89889993 241.39854023 14.4609375 244.7421875 C14.96882813 245.81726563 15.47671875 246.89234375 16 248 C16.79601779 249.80131235 17.59007547 251.60349142 18.3828125 253.40625 C19.75852632 256.47269617 21.14116562 259.53522591 22.54296875 262.58984375 C23.20619141 264.07677734 23.20619141 264.07677734 23.8828125 265.59375 C24.28902832 266.48771484 24.69524414 267.38167969 25.11376953 268.30273438 C26.21315705 271.64874906 26.63153195 273.49545767 26 277 C23.96112566 279.95409456 21.51231556 282.44596695 19 285 C18.37610382 285.66152069 17.75220764 286.32304138 17.10940552 287.00460815 C12.93311558 291.42422014 8.65637861 295.74746942 4.38500977 300.07495117 C2.83126843 301.65547834 1.28473738 303.24312473 -0.25463867 304.83764648 C-2.49549059 307.15753408 -4.75844115 309.45367318 -7.02734375 311.74609375 C-7.70780258 312.45954453 -8.38826141 313.1729953 -9.08934021 313.9080658 C-12.20282597 317.00877114 -14.673627 319.34581699 -19.09350586 320.11572266 C-23.29752844 319.99118627 -25.72759118 319.25958748 -29.4765625 317.40234375 C-30.641875 316.84869141 -31.8071875 316.29503906 -33.0078125 315.72460938 C-34.8245358 314.831264 -36.63780608 313.93114318 -38.45117188 313.03100586 C-40.22275502 312.159755 -42.00582307 311.31198133 -43.7890625 310.46484375 C-44.83787598 309.945271 -45.88668945 309.42569824 -46.96728516 308.89038086 C-51.94432921 307.42916047 -55.65552778 309.69870212 -60.07421875 311.953125 C-61.18506836 312.50383667 -61.18506836 312.50383667 -62.31835938 313.06567383 C-63.94336918 313.87801127 -65.5656377 314.69584884 -67.18554688 315.51831055 C-71.48271214 317.61843197 -75.33779563 319.21456326 -80.08203125 319.94140625 C-87.57983651 321.15909285 -87.57983651 321.15909285 -94 325 C-98.78242195 332.60393615 -101.3696911 341.37896418 -103.83764648 349.95727539 C-105.14208283 353.37193412 -106.43832226 355.39082324 -109 358 C-111.80786133 358.63491821 -111.80786133 358.63491821 -115.08203125 358.64697266 C-116.31010498 358.66273346 -117.53817871 358.67849426 -118.8034668 358.69473267 C-120.13982033 358.68578281 -121.47616568 358.6755278 -122.8125 358.6640625 C-124.18726022 358.66743221 -125.56201754 358.67228613 -126.93676758 358.67855835 C-129.81523051 358.68592268 -132.69291659 358.67524028 -135.57128906 358.65185547 C-139.25726652 358.62336561 -142.9414239 358.63977227 -146.62733459 358.66971779 C-149.46534896 358.68780405 -152.30293323 358.68202717 -155.14096069 358.66907883 C-156.4997072 358.66574837 -157.85849302 358.6698194 -159.2171936 358.68147659 C-161.11744418 358.69420299 -163.01783204 358.67135855 -164.91796875 358.64697266 C-166.53868286 358.64100571 -166.53868286 358.64100571 -168.19213867 358.63491821 C-171.95943437 357.78305113 -172.95956811 356.19696086 -175 353 C-176.13061523 349.97314453 -176.13061523 349.97314453 -177.05859375 346.6328125 C-180.57899863 333.66734026 -180.57899863 333.66734026 -188.22607422 323.16992188 C-193.27301493 320.63883388 -198.65254969 319.7565926 -204.16113281 318.72265625 C-210.12036952 317.20568509 -215.48114322 313.93780005 -220.80810547 310.93115234 C-225.03176745 308.72659045 -227.80723517 307.46638796 -232.48046875 308.9296875 C-234.00491719 309.57920606 -235.51153463 310.27179108 -237 311 C-238.21308838 311.5566333 -238.21308838 311.5566333 -239.45068359 312.12451172 C-242.86740578 313.71280794 -246.25841684 315.34703982 -249.62695312 317.03515625 C-250.46291016 317.43089844 -251.29886719 317.82664062 -252.16015625 318.234375 C-252.89886963 318.59756836 -253.63758301 318.96076172 -254.39868164 319.33496094 C-258.23974736 320.31694714 -261.3109805 320.38236797 -265 319 C-268.52869671 316.42627403 -271.47404433 313.36475434 -274.49609375 310.22265625 C-275.37024429 309.34097275 -276.24439484 308.45928925 -277.14503479 307.55088806 C-279.454247 305.21470665 -281.74718502 302.86397509 -284.0335083 300.50543213 C-286.36941988 298.10473285 -288.72818331 295.72688601 -291.08398438 293.34570312 C-294.51234757 289.86704525 -297.93775152 286.38576686 -301.34155273 282.88305664 C-302.02579819 282.17991837 -302.71004364 281.47678009 -303.4150238 280.75233459 C-305.48747053 278.46105723 -305.96826586 277.37544233 -306.23095703 274.26757812 C-305.96496986 270.50439383 -304.94916975 268.10538615 -303.3046875 264.71875 C-302.75425781 263.54699219 -302.20382812 262.37523437 -301.63671875 261.16796875 C-300.75683133 259.3280253 -299.87082763 257.49145356 -298.97607422 255.65869141 C-298.11036085 253.87432022 -297.26969031 252.07786778 -296.4296875 250.28125 C-295.91647949 249.21970703 -295.40327148 248.15816406 -294.87451172 247.06445312 C-293.4473894 242.06354879 -295.69059636 238.36035958 -297.953125 233.92578125 C-298.32026611 233.18521484 -298.68740723 232.44464844 -299.06567383 231.68164062 C-299.87801127 230.05663082 -300.69584884 228.4343623 -301.51831055 226.81445312 C-303.61843197 222.51728786 -305.21456326 218.66220437 -305.94140625 213.91796875 C-307.15909285 206.42016349 -307.15909285 206.42016349 -311 200 C-318.60393615 195.21757805 -327.37896418 192.6303089 -335.95727539 190.16235352 C-339.27741713 188.89402367 -341.42970919 187.44202294 -344 185 C-345.13651265 181.59046204 -345.1294448 178.96978056 -345.1328125 175.375 C-345.13431305 174.72055908 -345.1358136 174.06611816 -345.13735962 173.3918457 C-345.13971823 171.26116849 -345.13345122 169.13066045 -345.125 167 C-345.12278442 166.27248535 -345.12056885 165.5449707 -345.11828613 164.79541016 C-344.97363962 124.44570867 -338.30087712 86.84859732 -319 51 C-318.38640625 49.83339844 -317.7728125 48.66679687 -317.140625 47.46484375 C-304.69519433 24.65679208 -286.41432377 3.9276592 -266 -12 C-265.0409375 -12.7528125 -264.081875 -13.505625 -263.09375 -14.28125 C-256.02569145 -19.71249499 -248.72985781 -24.56566175 -241 -29 C-240.33178223 -29.38800781 -239.66356445 -29.77601562 -238.97509766 -30.17578125 C-161.07834897 -74.90118719 -65.17696079 -59.03071977 0 0 Z M-170.9375 -36.375 C-172.42576294 -36.10768066 -172.42576294 -36.10768066 -173.9440918 -35.83496094 C-191.98111175 -32.43711926 -210.3698182 -26.8797431 -226 -17 C-222.57572588 -9.77561679 -218.84163823 -2.75155259 -214.875 4.1875 C-214.45557129 4.94216553 -214.03614258 5.69683105 -213.60400391 6.47436523 C-212.99177979 7.52926147 -212.99177979 7.52926147 -212.3671875 8.60546875 C-211.82747314 9.55135864 -211.82747314 9.55135864 -211.27685547 10.51635742 C-209.61542631 12.4468555 -208.51199107 12.74432585 -206 13 C-203.53211909 12.04717308 -201.2432567 11.03182565 -198.875 9.875 C-184.06688768 3.07315513 -168.98517305 0.20193108 -152.86914062 -1.69042969 C-150.91476132 -1.91967868 -150.91476132 -1.91967868 -149 -3 C-149 -14.55 -149 -26.1 -149 -38 C-156.71718688 -38 -163.46424155 -37.72846056 -170.9375 -36.375 Z M-131 -38 C-131 -26.45 -131 -14.9 -131 -3 C-128.8429222 -1.9214611 -127.33602005 -1.72391594 -124.94921875 -1.45703125 C-107.73594698 0.62826601 -91.32328828 4.37466471 -75.71484375 12.09375 C-73.12351501 13.2571901 -73.12351501 13.2571901 -71.01220703 12.35644531 C-68.44756697 10.62760035 -67.53534082 8.93051596 -66.08984375 6.203125 C-65.57486328 5.2440625 -65.05988281 4.285 -64.52929688 3.296875 C-64.00400391 2.29140625 -63.47871094 1.2859375 -62.9375 0.25 C-62.40833984 -0.74 -61.87917969 -1.73 -61.33398438 -2.75 C-58.82122166 -7.46655335 -56.35729767 -12.20383727 -54 -17 C-78.18988118 -29.6739537 -103.42446706 -38 -131 -38 Z M-39 -8 C-43.48230886 -0.86738863 -47.85122042 6.32889763 -52.0625 13.625 C-52.46847412 14.31142578 -52.87444824 14.99785156 -53.29272461 15.70507812 C-54.27490215 17.42694672 -55.14717433 19.21053288 -56 21 C-54.74803439 24.75589682 -53.43144194 25.30952704 -50.1875 27.5 C-35.12564282 38.1720672 -23.10987001 51.63983518 -13 67 C-9.6847291 66.34027536 -7.14961069 65.09930974 -4.2265625 63.41796875 C-3.3190625 62.89783203 -2.4115625 62.37769531 -1.4765625 61.84179688 C-0.53554688 61.29587891 0.40546875 60.74996094 1.375 60.1875 C2.30828125 59.65318359 3.2415625 59.11886719 4.203125 58.56835938 C8.9125553 55.85676813 13.52807715 53.08846846 18 50 C4.18890567 27.29801369 -15.49581927 4.98915251 -39 -8 Z M-242 -8 C-263.99761525 7.61532843 -284.8955251 26.03219554 -298 50 C-297.43603516 50.33733154 -296.87207031 50.67466309 -296.29101562 51.0222168 C-293.69352856 52.57650753 -291.09676093 54.13199644 -288.5 55.6875 C-287.613125 56.21794922 -286.72625 56.74839844 -285.8125 57.29492188 C-284.9359375 57.82021484 -284.059375 58.34550781 -283.15625 58.88671875 C-281.85300781 59.66668213 -281.85300781 59.66668213 -280.5234375 60.46240234 C-277.53037899 62.28615259 -274.59335289 64.18911512 -271.67382812 66.12817383 C-269.87109208 67.23097569 -269.87109208 67.23097569 -267 67 C-265.39634419 64.97032557 -263.97849455 62.967727 -262.5625 60.8125 C-252.18400842 45.67977765 -239.02041986 33.48002678 -224 23 C-226.14866572 17.38007344 -229.00692677 12.21626788 -231.875 6.9375 C-232.40480469 5.94427734 -232.93460937 4.95105469 -233.48046875 3.92773438 C-233.99996094 2.97060547 -234.51945312 2.01347656 -235.0546875 1.02734375 C-235.52374512 0.15843506 -235.99280273 -0.71047363 -236.47607422 -1.60571289 C-238.06789008 -4.10666422 -239.8329958 -5.98828126 -242 -8 Z M-242.27099609 61.08007812 C-259.27412455 79.96070537 -268.65936315 103.49961334 -274 128 C-274.21011719 128.95777344 -274.42023438 129.91554688 -274.63671875 130.90234375 C-275.18425559 135.5711256 -275 140.29922128 -275 145 C-240.02 145 -205.04 145 -169 145 C-167.35 141.7 -165.7 138.4 -164 135 C-159.84412018 129.94555158 -154.21852012 126.07284004 -148 124 C-146.49034731 122.24714197 -145.06696013 120.41955473 -143.6875 118.5625 C-142.79504997 117.37441434 -141.90177353 116.18694914 -141.0078125 115 C-140.52602539 114.35675781 -140.04423828 113.71351563 -139.54785156 113.05078125 C-136.75976748 109.35678972 -133.90819657 105.71217078 -131.0625 102.0625 C-130.46268311 101.29172119 -129.86286621 100.52094238 -129.24487305 99.72680664 C-125.23972111 94.58197292 -121.21721896 89.45108482 -117.18383789 84.32836914 C-112.83890125 78.80557392 -108.52647565 73.25763237 -104.2199707 67.70483398 C-101.39879114 64.0702358 -98.56704689 60.44560253 -95.69921875 56.84765625 C-94.93448242 55.88569336 -94.93448242 55.88569336 -94.15429688 54.90429688 C-93.20215091 53.70872611 -92.24661132 52.51584722 -91.28710938 51.32617188 C-89.33924087 48.87716721 -87.99938908 46.99816725 -87 44 C-79.7761959 42.65318907 -79.7761959 42.65318907 -76.0625 44.3125 C-74 46 -74 46 -73 48 C-72.58608485 52.94371304 -73.67297305 56.31687759 -75.61328125 60.84375 C-75.89481552 61.5097673 -76.17634979 62.17578461 -76.46641541 62.86198425 C-77.08176512 64.31431349 -77.70200453 65.76457846 -78.32653809 67.21298218 C-79.32922651 69.53879847 -80.3191425 71.8696764 -81.30566406 74.20239258 C-82.37190029 76.72316473 -83.43896678 79.24355448 -84.50973511 81.7624054 C-88.72955222 91.69080767 -92.86148979 101.65536146 -96.98275757 111.625 C-98.23171234 114.64330487 -99.48536968 117.65962468 -100.73950195 120.67578125 C-101.51926018 122.5585038 -102.29881092 124.44131231 -103.078125 126.32421875 C-103.43067856 127.16977829 -103.78323212 128.01533783 -104.14646912 128.88652039 C-104.47873001 129.69184708 -104.81099091 130.49717377 -105.15332031 131.3269043 C-105.43894836 132.01552048 -105.72457642 132.70413666 -106.01885986 133.41362 C-107.4673101 137.23187448 -108.70860249 141.12580746 -110 145 C-75.02 145 -40.04 145 -4 145 C-5.61601541 130.57032885 -5.61601541 130.57032885 -8.625 116.5625 C-8.88442383 115.59368896 -9.14384766 114.62487793 -9.41113281 113.62670898 C-19.18810218 78.68064957 -43.59699671 48.30377097 -75.08691406 30.39453125 C-89.39136946 22.60056485 -104.90295979 17.43304719 -121 15 C-121.82886719 14.86980469 -122.65773437 14.73960937 -123.51171875 14.60546875 C-169.39687992 8.76270629 -211.31692255 28.16027817 -242.27099609 61.08007812 Z M-307 65 C-319.05468849 90.36181214 -327 116.76758584 -327 145 C-315.78 145 -304.56 145 -293 145 C-291.81187117 142.62374233 -291.70048237 140.46531023 -291.45605469 137.84741211 C-289.83543189 120.85967525 -286.28175341 101.8406945 -277.76171875 86.81640625 C-276.74503135 84.39199783 -277.02760018 83.42755744 -278 81 C-279.96911223 79.41077342 -279.96911223 79.41077342 -282.48046875 78.125 C-283.39763672 77.61453125 -284.31480469 77.1040625 -285.25976562 76.578125 C-286.22591797 76.05734375 -287.19207031 75.5365625 -288.1875 75 C-290.07786891 73.96023276 -291.96721888 72.91861054 -293.85546875 71.875 C-294.7479834 71.38515625 -295.64049805 70.8953125 -296.56005859 70.390625 C-298.62923567 69.21131415 -300.59251527 67.97692352 -302.55078125 66.625 C-304.78788031 64.81571377 -304.78788031 64.81571377 -307 65 Z M26 65 C16.18445992 70.44327768 6.50422573 76.0273102 -3 82 C-2.33661332 86.20934643 -0.9196023 89.77598328 0.75 93.6875 C6.98468449 108.79621874 10.59655772 124.52295558 11.75390625 140.8203125 C11.87831439 143.04333215 11.87831439 143.04333215 13 145 C24.22 145 35.44 145 47 145 C47 136.75951201 46.76357105 129.49294546 45.375 121.5 C45.19678711 120.46391602 45.01857422 119.42783203 44.83496094 118.36035156 C41.86447086 101.94977609 37.27810216 77.84935478 26 65 Z M-115 108 C-114 110 -114 110 -114 110 Z M-116 110 C-117.65450699 111.90973946 -119.29850015 113.8270261 -120.9375 115.75 C-121.40607422 116.28882813 -121.87464844 116.82765625 -122.35742188 117.3828125 C-125.6378046 121.23630269 -125.6378046 121.23630269 -127 126 C-124.525 126.99 -124.525 126.99 -122 128 C-121.20576139 126.43880578 -120.41472877 124.87598036 -119.625 123.3125 C-119.18414062 122.44238281 -118.74328125 121.57226562 -118.2890625 120.67578125 C-115.45286281 115.51608059 -115.45286281 115.51608059 -116 110 Z M-151.875 146.25 C-153.36637686 149.89558788 -153.68604454 153.15513499 -153 157 C-150.33356986 162.04717134 -147.65971003 165.09328067 -142.25 166.9375 C-137.68820986 167.02522673 -134.65275813 165.69109781 -131 163 C-128.34346091 160.19869039 -127.10606416 157.58552314 -126.84765625 153.72265625 C-127.17178108 148.72780945 -128.26161562 145.52476242 -132 142 C-135.04510267 139.716173 -138.20882729 139.57845886 -141.97265625 139.68359375 C-146.37715431 140.37100096 -149.11259365 142.93511238 -151.875 146.25 Z M-328 162 C-328 166.29 -328 170.58 -328 175 C-326.70582153 175.46841309 -326.70582153 175.46841309 -325.38549805 175.94628906 C-322.17799742 177.11406737 -318.97511841 178.29311001 -315.7746582 179.47998047 C-314.39026507 179.99072745 -313.00419921 180.49696455 -311.61645508 180.99853516 C-309.61860558 181.72151187 -307.62739103 182.46064965 -305.63671875 183.203125 C-303.83787231 183.86296387 -303.83787231 183.86296387 -302.00268555 184.53613281 C-298.89261549 186.05235202 -297.67942427 187.02759277 -296 190 C-295.16883829 192.58457136 -294.43370403 195.12800244 -293.75 197.75 C-290.88543702 208.02710265 -286.97666436 217.73018173 -281.7734375 227.0546875 C-281.22103394 228.04831299 -281.22103394 228.04831299 -280.6574707 229.06201172 C-279.95201847 230.31059139 -279.23029009 231.55018252 -278.48901367 232.77783203 C-275.96207505 237.19543427 -275.00898014 241.03097172 -276 246 C-277.56663126 250.46166043 -279.50303481 254.71658326 -281.5 259 C-282.28697266 260.73443359 -282.28697266 260.73443359 -283.08984375 262.50390625 C-284.38002476 265.34230447 -285.68360157 268.17369003 -287 271 C-281.47349666 277.74080425 -275.30550441 283.8071129 -269.125 289.9375 C-268.04403726 291.01343727 -266.96330617 292.08960731 -265.8828125 293.16601562 C-263.25787359 295.78003292 -260.62981372 298.39088596 -258 301 C-256.13695535 300.23852595 -254.27405792 299.47668993 -252.41186523 298.71313477 C-250.84037622 298.06889449 -249.26826785 297.426163 -247.69555664 296.78491211 C-243.09126039 294.89782683 -238.56524868 292.93674931 -234.15234375 290.62890625 C-228.23356037 288.89946138 -224.17980725 289.64336404 -218.8203125 292.4140625 C-216.91516499 293.47238512 -215.01697459 294.54330413 -213.125 295.625 C-202.56766851 301.410106 -192.15087239 305.42457132 -180.60058594 308.67529297 C-179.80168945 308.91521973 -179.00279297 309.15514648 -178.1796875 309.40234375 C-177.45249512 309.61238037 -176.72530273 309.82241699 -175.97607422 310.03881836 C-171.49331161 312.21927752 -170.19137533 316.6488238 -168.51953125 321.078125 C-168.12096924 322.12387695 -167.72240723 323.16962891 -167.31176758 324.24707031 C-166.56963013 326.22852051 -166.56963013 326.22852051 -165.8125 328.25 C-164.224375 332.4575 -162.63625 336.665 -161 341 C-147.14 341 -133.28 341 -119 341 C-115.54643753 331.92543029 -115.54643753 331.92543029 -112.12011719 322.84057617 C-111.68344727 321.71111572 -111.24677734 320.58165527 -110.796875 319.41796875 C-110.35698242 318.26063232 -109.91708984 317.1032959 -109.46386719 315.91088867 C-107.59275064 312.19018778 -105.81099483 310.69399754 -101.96386719 309.21972656 C-101.24875977 309.02862305 -100.53365234 308.83751953 -99.796875 308.640625 C-98.58547852 308.30333374 -98.58547852 308.30333374 -97.34960938 307.95922852 C-96.49173828 307.72518311 -95.63386719 307.4911377 -94.75 307.25 C-81.84295877 303.54238455 -70.04757788 298.7818352 -58.84375 291.28515625 C-53.81461952 289.01237613 -50.09960279 289.26558589 -45.01757812 291.04321289 C-41.63851184 292.45275616 -38.31829589 293.95298233 -35 295.5 C-33.26556641 296.28697266 -33.26556641 296.28697266 -31.49609375 297.08984375 C-28.65769553 298.38002476 -25.82630997 299.68360157 -23 301 C-16.25919575 295.47349666 -10.1928871 289.30550441 -4.0625 283.125 C-2.98656273 282.04403726 -1.91039269 280.96330617 -0.83398438 279.8828125 C1.78003292 277.25787359 4.39088596 274.62981372 7 272 C4.46951136 265.25687676 1.94642164 258.61271243 -1.3125 252.1875 C-5.55741384 242.94596882 -5.55741384 242.94596882 -4 238 C-2.4834003 235.10343121 -0.79303078 232.35467676 0.93359375 229.578125 C7.44145492 218.72240604 11.61353279 206.233269 14.83422852 194.05444336 C15.15411743 192.92921265 15.15411743 192.92921265 15.48046875 191.78125 C15.74186646 190.7922168 15.74186646 190.7922168 16.00854492 189.78320312 C18.37194063 185.53246631 23.86201929 184.15578579 28.17578125 182.51953125 C29.33271484 182.07802734 30.48964844 181.63652344 31.68164062 181.18164062 C33.47891602 180.50391602 33.47891602 180.50391602 35.3125 179.8125 C36.53001953 179.34908203 37.74753906 178.88566406 39.00195312 178.40820312 C41.99968971 177.26788764 44.99963338 176.13337733 48 175 C48 170.71 48 166.42 48 162 C19.29 162 -9.42 162 -39 162 C-40.32 168.6 -41.64 175.2 -43 182 C-51.78432855 209.17013248 -68.6450786 230.40102943 -94.03369141 244.00683594 C-118.35465038 256.29112463 -147.22838049 257.69813829 -173.00537109 249.35058594 C-198.51030291 240.68710601 -218.21707817 222.78680934 -230.3125 199 C-236.19251408 187.00938306 -238.50744217 175.29364178 -241 162 C-269.71 162 -298.42 162 -328 162 Z M-224 162 C-223.3321208 168.01091277 -222.67399691 173.11119328 -220.875 178.75 C-220.65763184 179.43392822 -220.44026367 180.11785645 -220.21630859 180.82250977 C-212.70016996 203.38402 -196.56268541 219.20398003 -176.26171875 230.52734375 C-158.00120845 239.64374419 -135.99353677 240.86591643 -116.54296875 235.1953125 C-102.24676838 230.37211811 -90.78610477 223.61100567 -80 213 C-79.2265625 212.23945313 -78.453125 211.47890625 -77.65625 210.6953125 C-66.47446117 199.01570431 -59.32752327 184.23059514 -56.93701172 168.26000977 C-56.76048065 167.08809586 -56.58394958 165.91618195 -56.40206909 164.70875549 C-56.26938629 163.81486618 -56.13670349 162.92097687 -56 162 C-63.72226678 161.74622415 -71.44345805 161.57124363 -79.16894531 161.45068359 C-81.79598161 161.40042556 -84.42273862 161.33220499 -87.04882812 161.24560547 C-90.82752274 161.12412701 -94.60252032 161.0675598 -98.3828125 161.0234375 C-99.55490265 160.97182465 -100.7269928 160.92021179 -101.93460083 160.86703491 C-105.24259903 160.86476491 -107.8566999 160.96032361 -111 162 C-113.16096084 164.35628911 -114.42577695 166.55834747 -115.74655151 169.46231079 C-118.39681635 174.82794691 -123.26331249 178.03517361 -128.375 180.875 C-137.34840428 183.65984961 -145.17984987 183.42807455 -154 180 C-162.09062422 175.63874468 -164.41305049 170.40940743 -169 162 C-187.15 162 -205.3 162 -224 162 Z " fill="#ffff" transform="translate(357,147)"/>
<path d="M0 0 C1.12535156 0.10054688 1.12535156 0.10054688 2.2734375 0.203125 C8.18064089 1.57689323 11.25556366 5.3913135 14.75 10.0625 C15.72113265 11.32959689 16.69249319 12.59651915 17.6640625 13.86328125 C18.15551758 14.50990723 18.64697266 15.1565332 19.15332031 15.82275391 C21.44504532 18.82389479 23.78594146 21.78571086 26.125 24.75 C27.04193297 25.91645738 27.95859896 27.08312468 28.875 28.25 C29.555625 29.11625 29.555625 29.11625 30.25 30 C31.625 31.75 33 33.5 34.375 35.25 C34.82915283 35.82790283 35.28330566 36.40580566 35.7512207 37.0012207 C36.66425008 38.16347935 37.57685054 39.32607506 38.48901367 40.48901367 C40.83285842 43.47608614 43.18474197 46.45624872 45.55078125 49.42578125 C60.75844865 68.54377306 60.75844865 68.54377306 60.625 75.75 C59.00725583 80.96273121 56.77583425 84.22179089 52.625 87.75 C49.00632441 88.9562252 45.69993749 88.85816918 41.9375 88.8125 C41.23560547 88.80798828 40.53371094 88.80347656 39.81054688 88.79882812 C38.08199462 88.78706927 36.35348635 88.76913454 34.625 88.75 C34.62960896 89.38445384 34.63421793 90.01890768 34.63896656 90.67258739 C34.74940624 106.11291047 34.83213703 121.55309611 34.88406086 136.99371624 C34.90983856 144.46071752 34.94498029 151.92745509 35.00219727 159.39428711 C35.05204614 165.90268356 35.08429419 172.41088903 35.09544247 178.91947109 C35.10195892 182.36557299 35.11726388 185.81112856 35.15365028 189.25705528 C35.19394826 193.1046609 35.19494846 196.95173288 35.19262695 200.79956055 C35.21060333 201.94107574 35.22857971 203.08259094 35.24710083 204.25869751 C35.19670947 211.95838634 35.19670947 211.95838634 32.30827332 215.95783997 C28.74270348 218.33928643 26.83197529 218.50124559 22.625 217.75 C20.05348166 216.09064211 19.05240415 215.35577719 17.625 212.75 C16.86322862 208.43281936 16.94249244 204.15153134 16.97802734 199.77734375 C16.96926575 198.45815948 16.96050415 197.13897522 16.95147705 195.77981567 C16.92871247 192.16808662 16.93750756 188.55707289 16.95337248 184.94533157 C16.96604654 181.16267239 16.9542872 177.38007375 16.94644165 173.59741211 C16.93734941 167.2454938 16.94932158 160.89386632 16.97314453 154.54199219 C17.00035533 147.20214118 16.99154084 139.86298463 16.9640125 132.52315044 C16.94131006 126.2172308 16.93812679 119.91152001 16.95120585 113.6055727 C16.95899425 109.84108919 16.96005917 106.07693193 16.94352341 102.31246948 C16.92637479 98.11544787 16.95015246 93.91962017 16.97802734 89.72265625 C16.96284561 87.853853 16.96284561 87.853853 16.94735718 85.94729614 C17.06278602 76.58164761 17.06278602 76.58164761 20.03816223 73.48042297 C22.50464084 71.8305123 23.7013323 71.1139919 26.61328125 71.04296875 C27.67192383 70.99946289 27.67192383 70.99946289 28.75195312 70.95507812 C29.47318359 70.94927734 30.19441406 70.94347656 30.9375 70.9375 C31.67806641 70.91236328 32.41863281 70.88722656 33.18164062 70.86132812 C34.99552969 70.80281557 36.81031903 70.77345651 38.625 70.75 C32.15343096 62.29905734 25.62173574 53.89850138 19.03369141 45.53808594 C16.64520899 42.50632766 14.25991647 39.47206377 11.875 36.4375 C11.19099121 35.56726196 11.19099121 35.56726196 10.49316406 34.67944336 C6.85500398 30.04827491 3.23301144 25.40470418 -0.375 20.75 C-4.20545053 22.02681684 -5.57788175 24.30851841 -7.875 27.4375 C-8.77134435 28.63080295 -9.66850784 29.82349096 -10.56640625 31.015625 C-11.02934082 31.63373047 -11.49227539 32.25183594 -11.96923828 32.88867188 C-14.20897717 35.85424486 -16.50981267 38.77070777 -18.8125 41.6875 C-19.73179614 42.85544883 -20.65106678 44.02341773 -21.5703125 45.19140625 C-22.99142572 46.99497344 -24.41299775 48.79817708 -25.83496094 50.60107422 C-31.08925258 57.26407462 -36.32690534 63.92825046 -41.375 70.75 C-39.72951172 70.77126953 -39.72951172 70.77126953 -38.05078125 70.79296875 C-36.59631302 70.83988708 -35.14188723 70.88813438 -33.6875 70.9375 C-32.6056543 70.94620117 -32.6056543 70.94620117 -31.50195312 70.95507812 C-30.79619141 70.98408203 -30.09042969 71.01308594 -29.36328125 71.04296875 C-28.71915283 71.0586792 -28.07502441 71.07438965 -27.41137695 71.09057617 C-23.8342432 72.24893108 -22.56343304 73.66379613 -20.375 76.75 C-19.63339755 80.87442838 -19.69850106 84.94799745 -19.74609375 89.12890625 C-19.74368179 90.33312729 -19.74126984 91.53734833 -19.73878479 92.77806091 C-19.73976328 95.32074277 -19.75315699 97.86344592 -19.77807617 100.40600586 C-19.81240751 104.3020036 -19.79872676 108.19573666 -19.77929688 112.09179688 C-19.78619448 114.56250967 -19.79586607 117.03321661 -19.80859375 119.50390625 C-19.80363388 120.6706337 -19.79867401 121.83736115 -19.79356384 123.03944397 C-19.81731834 124.66649513 -19.81731834 124.66649513 -19.84155273 126.32641602 C-19.84775131 127.27952164 -19.85394989 128.23262726 -19.8603363 129.21461487 C-20.52294989 132.47884477 -21.81970624 133.68291482 -24.375 135.75 C-28.11890967 136.67866509 -31.43947074 136.25374653 -34.8125 134.4375 C-37.32216803 131.72705853 -37.49938448 129.17495635 -37.48852539 125.64575195 C-37.48844986 124.82512772 -37.48837433 124.00450348 -37.48829651 123.15901184 C-37.48313522 122.27767075 -37.47797394 121.39632965 -37.47265625 120.48828125 C-37.4712413 119.58248825 -37.46982635 118.67669525 -37.46836853 117.74345398 C-37.46277001 114.84976909 -37.45021781 111.95616151 -37.4375 109.0625 C-37.43248481 107.10091258 -37.42792193 105.13932394 -37.42382812 103.17773438 C-37.41280107 98.36845979 -37.39553747 93.559243 -37.375 88.75 C-38.92525879 88.77936646 -38.92525879 88.77936646 -40.50683594 88.80932617 C-41.8743438 88.82515924 -43.24185724 88.84051499 -44.609375 88.85546875 C-45.28919434 88.86960815 -45.96901367 88.88374756 -46.66943359 88.89831543 C-52.24546919 88.94404841 -55.12951107 88.32007024 -59.375 84.75 C-63.00964278 80.88086414 -62.76320838 76.6226341 -62.87109375 71.56640625 C-61.8133807 65.56159436 -57.03183278 60.92054145 -53.3125 56.25 C-52.33197148 55.01046395 -51.35150446 53.77087924 -50.37109375 52.53125 C-49.87335449 51.90347656 -49.37561523 51.27570313 -48.86279297 50.62890625 C-46.52471334 47.67618868 -44.20036006 44.71273661 -41.875 41.75 C-40.95575764 40.58070678 -40.03648676 39.41143598 -39.1171875 38.2421875 C-37.30625825 35.93771898 -35.49925437 33.63025413 -33.6953125 31.3203125 C-30.93400003 27.78723574 -28.15933926 24.2649557 -25.375 20.75 C-24.82457031 20.05455078 -24.27414062 19.35910156 -23.70703125 18.64257812 C-21.97794037 16.46470074 -20.24022688 14.29398559 -18.5 12.125 C-17.6968335 11.11203857 -17.6968335 11.11203857 -16.87744141 10.07861328 C-12.20295396 4.28424236 -8.00880822 -0.82001449 0 0 Z " fill="#ffff" transform="translate(439.375,68.25)"/>
<path d="M0 0 C7.49360995 3.78828252 12.53791579 12.54765969 17.53808594 19.10302734 C19.93442812 22.21250944 22.40883452 25.25834236 24.875 28.3125 C30.32059794 35.08888923 35.61369547 41.97543934 40.87109375 48.8984375 C42.88336179 51.5462567 44.91506648 54.17631561 46.97265625 56.7890625 C47.66270752 57.66957275 47.66270752 57.66957275 48.36669922 58.56787109 C49.5986534 60.13684786 50.83622133 61.70141223 52.07421875 63.265625 C55.58607989 68.25204042 56.44238545 71.83117537 55.609375 77.78125 C54.45423725 81.98713617 51.92448978 84.65786174 48.34765625 87.15234375 C44.85727777 88.41259688 41.40805968 88.20901904 37.75 88.125 C37.00492187 88.11597656 36.25984375 88.10695313 35.4921875 88.09765625 C33.66131941 88.07418358 31.83061762 88.03831525 30 88 C30.02618408 89.18553467 30.05236816 90.37106934 30.0793457 91.5925293 C30.16999021 95.99988866 30.22730088 100.407166 30.2746582 104.81518555 C30.29976999 106.72125107 30.33386645 108.62722059 30.37719727 110.53295898 C30.43799744 113.27611998 30.46624245 116.01800586 30.48828125 118.76171875 C30.51408768 119.61086349 30.5398941 120.46000824 30.56648254 121.33488464 C30.56853869 125.69295843 30.40844238 127.46158886 27.69213867 131.04223633 C25 133 25 133 21.4375 133.5625 C17.51898289 132.92128811 16.37441774 132.10500781 14 129 C12.78018965 126.5603793 12.86665959 124.97337087 12.85473633 122.24658203 C12.84835648 121.25860626 12.84197662 120.27063049 12.83540344 119.25271606 C12.83429062 118.18189789 12.8331778 117.11107971 12.83203125 116.0078125 C12.82703865 114.36158401 12.82703865 114.36158401 12.82194519 112.68209839 C12.81687523 110.35691752 12.81453689 108.03172936 12.81469727 105.70654297 C12.81251331 102.14668789 12.79436505 98.58714385 12.77539062 95.02734375 C12.77245624 92.7708344 12.77047175 90.51432357 12.76953125 88.2578125 C12.76234573 87.19104279 12.75516022 86.12427307 12.74775696 85.025177 C12.75083359 84.03089691 12.75391022 83.03661682 12.75708008 82.01220703 C12.75565506 81.13887726 12.75423004 80.26554749 12.75276184 79.36575317 C13.02160102 76.79330589 13.64793955 75.19146077 15 73 C18.4870077 70.42625622 22.57049829 70.56461823 26.75 70.375 C27.44738281 70.33632812 28.14476562 70.29765625 28.86328125 70.2578125 C30.57510818 70.16401376 32.28751682 70.08093826 34 70 C27.52843096 61.54905734 20.99673574 53.14850138 14.40869141 44.78808594 C12.49334755 42.35689384 10.58003209 39.92411177 8.66748047 37.49072266 C7.73343068 36.30248777 6.79887252 35.11465232 5.86376953 33.92724609 C2.64826397 29.8404121 -0.52406308 25.72244957 -3.66015625 21.57421875 C-4.93338717 19.87027896 -4.93338717 19.87027896 -7 19 C-7.22816406 19.52851563 -7.45632813 20.05703125 -7.69140625 20.6015625 C-9.43558872 23.7983626 -11.66675072 26.54442611 -13.9375 29.375 C-14.93629186 30.6327379 -15.93498711 31.89055253 -16.93359375 33.1484375 C-17.69905518 34.1089502 -17.69905518 34.1089502 -18.47998047 35.08886719 C-20.83383526 38.0483878 -23.16640526 41.02449833 -25.5 44 C-26.40744412 45.15503274 -27.31499681 46.3099802 -28.22265625 47.46484375 C-30.14774113 49.91488948 -32.07211212 52.36549408 -33.99609375 54.81640625 C-34.48851562 55.44353516 -34.9809375 56.07066406 -35.48828125 56.71679688 C-36.42466414 57.90935999 -37.36087423 59.10205882 -38.296875 60.29492188 C-40.84792835 63.54346866 -43.41458807 66.7787327 -46 70 C-44.35451172 70.02126953 -44.35451172 70.02126953 -42.67578125 70.04296875 C-41.22131302 70.08988708 -39.76688723 70.13813438 -38.3125 70.1875 C-37.2306543 70.19620117 -37.2306543 70.19620117 -36.12695312 70.20507812 C-32.23009676 70.36522291 -30.32372096 70.78164704 -27.01171875 73.015625 C-24.32374408 77.00322238 -24.3226056 79.86558006 -24.5 84.5625 C-24.49613281 85.69461914 -24.49613281 85.69461914 -24.4921875 86.84960938 C-24.54950822 90.10256046 -24.77472429 92.57877441 -26.3203125 95.46875 C-29.02770357 97.93688326 -31.41980976 97.93827258 -35 98 C-38.01452417 96.72720091 -39.51946238 95.7322478 -41.3125 93 C-42 91 -42 91 -42 88 C-43.00160156 88.04640625 -44.00320313 88.0928125 -45.03515625 88.140625 C-58.68561253 88.58969827 -58.68561253 88.58969827 -64 84 C-67.3850198 79.30464996 -67.84176432 74.60516006 -67 69 C-64.46854087 62.90148483 -59.94723446 58.2239 -55.703125 53.23046875 C-52.63769832 49.60260864 -49.76184084 45.83792908 -46.88549805 42.05908203 C-43.2319773 37.27190462 -39.47015727 32.577775 -35.68774414 27.89208984 C-32.91151378 24.43748242 -30.18989812 20.95036814 -27.5234375 17.41015625 C-26.9456958 16.64413086 -26.3679541 15.87810547 -25.77270508 15.08886719 C-24.66017228 13.60803124 -23.55293685 12.12319554 -22.4519043 10.63378906 C-16.16634062 2.26896292 -10.74432042 -1.66873641 0 0 Z " fill="#ffff" transform="translate(338,7)"/>
</svg>
