<?xml version="1.0" encoding="UTF-8"?>
<svg fill="currentColor" stroke="currentColor" version="1.1" xmlns="http://www.w3.org/2000/svg" width="512" height="512">
<path d="M0 0 C1.74884671 -0.00417583 3.49769071 -0.00965472 5.2465297 -0.01631981 C10.03928032 -0.03076039 14.83185878 -0.02653401 19.62461877 -0.019153 C24.79855983 -0.01442021 29.9724637 -0.02693218 35.14639282 -0.03717041 C45.27758227 -0.0543616 55.4087097 -0.05519774 65.53990994 -0.04995751 C73.77521049 -0.04591513 82.01049272 -0.04736017 90.24579239 -0.05270576 C92.0043291 -0.0538284 92.0043291 -0.0538284 93.7983918 -0.05497371 C96.18008295 -0.0565052 98.5617741 -0.05804354 100.94346525 -0.05958868 C123.27579586 -0.07331491 145.60809143 -0.06787518 167.94042124 -0.05640347 C188.3666763 -0.04647123 208.79284078 -0.0594114 229.21908186 -0.08333766 C250.19810955 -0.10772608 271.17709505 -0.11733714 292.15613663 -0.11068493 C303.93212971 -0.10719211 315.70805313 -0.10942896 327.48403549 -0.12693596 C337.50877907 -0.14165469 347.53340391 -0.14229761 357.55814515 -0.12486505 C362.67141762 -0.11635 367.78447797 -0.11421797 372.89773941 -0.1295166 C377.58213203 -0.14335841 382.2661307 -0.13860692 386.9505005 -0.11927737 C388.64153195 -0.11551551 390.33259492 -0.11844467 392.0235983 -0.12888902 C405.42945186 -0.20577568 415.69238017 1.2989663 425.6645813 10.9540863 C434.41349555 20.49974931 436.19742611 28.71584309 436.16247559 41.36151123 C436.1670067 42.56508449 436.17153781 43.76865775 436.17620623 45.00870293 C436.18665538 48.33711747 436.18817971 51.66531543 436.18581748 54.9937309 C436.18540848 58.58825873 436.19645638 62.18275461 436.20593262 65.77726746 C436.22252525 72.8148911 436.22804137 79.85248124 436.22915737 86.89012281 C436.23010863 92.61212923 436.23422281 98.33412462 436.24055862 104.05612755 C436.25816597 120.28869036 436.26739824 136.52122675 436.26589768 152.75379918 C436.26581776 153.62837782 436.26573785 154.50295645 436.26565552 155.40403748 C436.26557376 156.27968722 436.26549199 157.15533696 436.26540776 158.05752154 C436.26459491 172.24762532 436.28373362 186.43762294 436.31193225 200.62769601 C436.34067594 215.20739347 436.35447174 229.78703917 436.3527447 244.36676568 C436.35208133 252.54840243 436.35755035 260.72992788 436.3791008 268.91153908 C436.39733211 275.87752448 436.40164395 282.84334811 436.38808195 289.80934707 C436.38156218 293.36104019 436.38139877 296.91242313 436.39878845 300.46408653 C436.41747549 304.32049972 436.40493876 308.17646257 436.38952637 312.03289795 C436.39981349 313.14682444 436.41010062 314.26075094 436.42069948 315.40843278 C436.31843329 327.00751377 432.27099921 335.76650208 424.27005005 344.07518005 C417.16163886 350.65704226 408.90622948 353.51543176 399.33981323 353.50793457 C398.35463412 353.50921621 398.35463412 353.50921621 397.34955239 353.51052374 C395.15082326 353.51216964 392.95217058 353.50667174 390.75344849 353.50120544 C389.17652386 353.50092335 387.59959911 353.50108173 386.02267456 353.50164795 C381.74204472 353.50193507 377.46144285 353.49605202 373.18081951 353.48907399 C368.70716684 353.48282636 364.23351354 353.48223554 359.75985718 353.48104858 C351.28848482 353.47793943 342.81712535 353.46973164 334.34575868 353.45969909 C324.70135299 353.44852506 315.05694669 353.44302425 305.41253614 353.43800366 C285.57336691 353.42754869 265.73420929 353.40995728 245.89505005 353.38768005 C245.98274658 353.9528685 246.07044312 354.51805695 246.16079712 355.10037231 C247.07363825 360.98833808 247.98122264 366.87709709 248.88577271 372.76634216 C249.22394507 374.96348984 249.56345267 377.16043243 249.90432739 379.35716248 C250.39434211 382.51654309 250.87953444 385.67663252 251.36380005 388.8368988 C251.59347473 390.30747993 251.59347473 390.30747993 251.82778931 391.80776978 C251.96793457 392.72834671 252.10807983 393.64892365 252.25247192 394.59739685 C252.4390033 395.80651985 252.4390033 395.80651985 252.62930298 397.04006958 C252.90873165 399.50854335 252.94034859 401.90557106 252.89505005 404.38768005 C254.00428833 404.36673279 255.11352661 404.34578552 256.25637817 404.32420349 C260.40110184 404.25139538 264.54576981 404.2057331 268.69094849 404.16795349 C270.47945689 404.14793046 272.26790059 404.12070351 274.05618286 404.08592224 C276.63805167 404.0369905 279.21904955 404.01461841 281.80130005 403.99705505 C282.59121338 403.97640991 283.38112671 403.95576477 284.19497681 403.93449402 C291.38053655 403.93163822 296.47619025 406.17915589 301.77005005 411.01268005 C305.16003767 416.39677804 306.58131151 422.16967091 305.45755005 428.51268005 C303.81307323 433.8008016 299.84269973 438.41312522 295.27192497 441.47496986 C291.88244733 442.77651533 288.59277948 442.66994836 285.01348877 442.65510559 C284.2139282 442.6596367 283.41436764 442.66416782 282.59057796 442.66883624 C279.90831869 442.68150807 277.22626174 442.67985808 274.54397583 442.6782074 C272.62210834 442.6841909 270.70024326 442.69099603 268.77838135 442.69856262 C263.5552286 442.71624766 258.33214137 442.72091905 253.10896158 442.72219419 C248.75005362 442.72409234 244.39116095 442.73144889 240.03225887 442.73853838 C229.74904728 442.75482934 219.46587071 442.75970668 209.18264771 442.75828552 C198.57166322 442.75708378 187.96088203 442.77819048 177.349949 442.80977285 C168.24240922 442.83591547 159.13493592 442.84665367 150.02735889 442.8453747 C144.58669001 442.84486449 139.14620177 442.85058041 133.70557022 442.8717308 C128.58866826 442.89107929 123.47211989 442.89126082 118.35520554 442.87669754 C116.47747533 442.87460416 114.59972318 442.87934177 112.72203064 442.89141846 C110.15779657 442.90684222 107.59478611 442.89758234 105.03057861 442.88215637 C104.28815827 442.8924435 103.54573794 442.90273062 102.78082001 442.91332948 C96.90633573 442.83527523 93.36235777 440.83740601 89.2505188 436.75486755 C84.23642172 430.34889737 84.20240108 425.44934449 84.89505005 417.38768005 C86.45074735 412.46694184 89.62698992 409.19835379 93.89505005 406.38768005 C98.48307285 404.01059269 102.65676258 404.12778309 107.6958313 404.19236755 C108.95039375 404.1966124 108.95039375 404.1966124 110.2303009 404.20094299 C112.88953231 404.21209685 115.54842123 404.23719243 118.20755005 404.26268005 C120.01548788 404.27271606 121.82343101 404.28184083 123.63137817 404.2900238 C128.05273317 404.31202047 132.47383363 404.34651711 136.89505005 404.38768005 C136.95982544 403.28565247 136.95982544 403.28565247 137.02590942 402.16136169 C137.61334925 393.39759489 138.74118654 384.78094799 140.05178833 376.10032654 C140.39918786 373.79775456 140.73941477 371.49420299 141.0786438 369.19041443 C141.29828554 367.71313982 141.51832277 366.23592394 141.73880005 364.7587738 C141.83987061 364.07649216 141.94094116 363.39421051 142.04507446 362.69125366 C142.5228053 359.5404021 143.09354557 356.47069091 143.89505005 353.38768005 C143.0805926 353.39136723 142.26613516 353.3950544 141.42699718 353.3988533 C121.57829052 353.4873217 101.72961799 353.5534467 81.88075542 353.59492874 C72.28185111 353.61552411 62.68307868 353.64358668 53.08425903 353.68943787 C44.71460386 353.72939847 36.34504424 353.75513484 27.97529632 353.76403403 C23.54655327 353.76923321 19.1180835 353.7813896 14.68942833 353.81060028 C10.51400643 353.83791542 6.33896827 353.84609283 2.1634655 353.84011078 C0.63774779 353.84120387 -0.88798384 353.84906152 -2.41362381 353.86450195 C-15.04935038 353.98602262 -25.5398942 352.15389598 -35.10494995 343.38768005 C-40.95237247 337.62166017 -45.77786565 330.42061725 -46.23375112 322.01199478 C-46.23553969 321.12333648 -46.23732826 320.23467818 -46.23917103 319.31909084 C-46.24362887 318.29030864 -46.24808672 317.26152644 -46.25267965 316.20156902 C-46.25249528 315.07289396 -46.25231092 313.94421889 -46.25212097 312.78134155 C-46.25579766 311.58103713 -46.25947435 310.38073271 -46.26326245 309.14405543 C-46.27238175 305.81085152 -46.27699733 302.47769681 -46.27965176 299.14448512 C-46.28355839 295.54989332 -46.29313654 291.95531574 -46.30186462 288.36073303 C-46.32161982 279.67855246 -46.33169444 270.99637074 -46.34059241 262.31417331 C-46.34497722 258.22371571 -46.35034356 254.13325939 -46.35558128 250.04280281 C-46.37259328 236.44167697 -46.38708661 222.84055192 -46.39433002 209.23941708 C-46.39623986 205.71046892 -46.3981602 202.18152077 -46.40011597 198.65257263 C-46.40059971 197.77548869 -46.40108345 196.89840476 -46.40158185 195.99474252 C-46.409879 181.79219578 -46.43521071 167.58973335 -46.46769664 153.38722342 C-46.50079063 138.79971189 -46.51878093 124.21224318 -46.52197427 109.62469393 C-46.52413729 101.43682506 -46.53285541 93.24907911 -46.55843544 85.06124687 C-46.58017451 78.08680834 -46.58817718 71.11252258 -46.57846866 64.13805401 C-46.57393307 60.58220111 -46.57576636 57.02666321 -46.5952301 53.47085381 C-46.61619062 49.60807441 -46.60584701 45.74572553 -46.59269714 41.88290405 C-46.60366639 40.76984404 -46.61463564 39.65678403 -46.62593728 38.50999492 C-46.53223651 27.07667161 -43.36492604 18.74878513 -35.3979187 10.5478363 C-24.78465008 0.54930556 -13.95248257 -0.05416629 0 0 Z M-27.10494995 20.38768005 C-34.13169267 28.374173 -34.40921532 38.77513185 -34.34545898 48.92933655 C-34.34717102 49.9400119 -34.34888306 50.95068726 -34.35064697 51.99198914 C-34.353937 55.36305467 -34.34294356 58.73391807 -34.33200073 62.10496521 C-34.33138763 64.56921062 -34.33165579 67.03345639 -34.33273125 69.49770164 C-34.33313612 75.41481993 -34.32459488 81.33188322 -34.31172859 87.24898364 C-34.29728107 94.0995015 -34.29573649 100.94998912 -34.29415894 107.80052185 C-34.28367494 125.87125089 -34.25575253 143.9419664 -34.22994995 162.01268005 C-34.18869995 202.39643005 -34.14744995 242.78018005 -34.10494995 284.38768005 C117.03505005 284.38768005 268.17505005 284.38768005 423.89505005 284.38768005 C423.93630005 244.00393005 423.97755005 203.62018005 424.02005005 162.01268005 C424.03825806 149.26079041 424.05646606 136.50890076 424.07522583 123.37059021 C424.08191465 111.94119317 424.08191465 111.94119317 424.0859375 100.51179504 C424.08780099 95.42055291 424.09513068 90.32934264 424.10620117 85.2381134 C424.1203073 78.74118339 424.12403002 72.24429643 424.1211946 65.74735141 C424.12178741 63.36469838 424.12574597 60.98204321 424.13348031 58.59940267 C424.14345673 55.3759712 424.14101943 52.15277361 424.13555908 48.92933655 C424.14429708 47.53767304 424.14429708 47.53767304 424.15321159 46.11789513 C424.10713749 35.96872985 422.8117165 27.16508721 415.89505005 19.38768005 C406.34069164 10.98148489 393.29082675 12.0978396 381.34646606 12.13371277 C379.67029211 12.13140584 377.99411918 12.12822776 376.31794834 12.12425828 C371.73078128 12.11593358 367.14369778 12.12002497 362.55653048 12.12623072 C357.60213444 12.13076372 352.64775258 12.12376723 347.69335938 12.11827087 C337.99512371 12.1093843 328.29691903 12.11129561 318.59868217 12.11709616 C310.71570822 12.12161553 302.83274294 12.12222435 294.94976807 12.12004852 C293.82721353 12.11974206 292.704659 12.11943559 291.54808766 12.11911984 C289.26753831 12.11848038 286.98698896 12.11783195 284.70643961 12.11717466 C263.32887997 12.11147352 241.95133749 12.11802587 220.57378066 12.12877539 C202.23652592 12.1377107 183.89929651 12.1361586 165.56204224 12.12693787 C144.26022773 12.11623143 122.95842826 12.11202282 101.65661144 12.11816239 C99.38451831 12.11879948 97.11242517 12.11942822 94.84033203 12.12004852 C93.16352438 12.12051135 93.16352438 12.12051135 91.45284182 12.12098353 C83.58063843 12.12270934 75.70844459 12.1197978 67.83624268 12.11508942 C58.24081517 12.10947644 48.64542038 12.11100583 39.04999661 12.1216509 C34.15562594 12.12690197 29.2613098 12.12897394 24.36693954 12.1223526 C19.88381924 12.11637941 15.40080385 12.11969088 10.91769302 12.1303077 C9.29871406 12.13253592 7.67972618 12.13141848 6.06075299 12.12655613 C-11.85705203 11.97338849 -11.85705203 11.97338849 -27.10494995 20.38768005 Z M-34.10494995 297.38768005 C-35.12089186 317.4783253 -35.12089186 317.4783253 -26.10494995 333.38768005 C-20.35185719 338.84574241 -14.54545582 340.76107431 -6.74348736 340.7707901 C-6.03266621 340.77574962 -5.32184507 340.78070913 -4.58948389 340.78581893 C-2.21332665 340.79874762 0.16226612 340.79039929 2.53843689 340.78208923 C4.26152195 340.78697944 5.98460372 340.79316985 7.70767993 340.80054712 C12.43846552 340.8169534 17.16908454 340.8146273 21.89988863 340.80917215 C27.00363819 340.8065028 32.10734325 340.82103201 37.21107483 340.83326721 C47.20851265 340.85432761 57.20589249 340.8588617 67.20334987 340.85707933 C75.32953521 340.85577197 83.45570245 340.85957449 91.58188438 340.86700439 C93.92217006 340.86910358 96.26245574 340.87120118 98.60274142 340.87329721 C99.76755271 340.87434074 100.932364 340.87538427 102.1324726 340.87645942 C124.16527283 340.89536436 146.19803977 340.89431085 168.23084476 340.88749009 C188.38632585 340.88191483 208.54167982 340.90273896 228.69713119 340.93585056 C249.39245915 340.9695852 270.08772622 340.98475615 290.78308219 340.98013353 C302.40203863 340.97788857 314.0208776 340.98313598 325.63981056 341.00802612 C335.53179898 341.0290363 345.42360551 341.03263399 355.31560139 341.01372653 C360.36194973 341.00456692 365.4079589 341.00343275 370.45428085 341.02408218 C375.07647799 341.0427868 379.69805803 341.03829436 384.32023164 341.01553637 C385.98977295 341.01134932 387.65936152 341.01555417 389.32885287 341.02913231 C399.75771882 341.10815555 408.05095848 340.33268061 416.33255005 333.32518005 C425.4606763 322.0063035 423.89505005 312.6596356 423.89505005 297.38768005 C272.75505005 297.38768005 121.61505005 297.38768005 -34.10494995 297.38768005 Z M156.89505005 353.38768005 C155.74005005 361.06018005 154.58505005 368.73268005 153.39505005 376.63768005 C153.02960083 379.05499451 152.66415161 381.47230896 152.28762817 383.96287537 C152.00028687 385.88048386 151.7131627 387.7981249 151.42630005 389.71580505 C151.19958618 391.20733093 151.19958618 391.20733093 150.96829224 392.72898865 C150.8261731 393.68273376 150.68405396 394.63647888 150.53762817 395.61912537 C150.41327393 396.44519287 150.28891968 397.27126038 150.16079712 398.12236023 C149.81737532 400.66966389 149.81737532 400.66966389 149.89505005 404.38768005 C179.59505005 404.38768005 209.29505005 404.38768005 239.89505005 404.38768005 C237.76669046 387.36080336 235.40973474 370.36180169 232.89505005 353.38768005 C207.81505005 353.38768005 182.73505005 353.38768005 156.89505005 353.38768005 Z M97.89505005 420.38768005 C97.42154821 423.63454979 97.24928413 425.49590807 99.20755005 428.20018005 C102.92967233 430.81945129 106.78401297 430.53106615 111.1315918 430.52139282 C112.24495476 430.52479116 112.24495476 430.52479116 113.3808099 430.52825814 C115.87499289 430.53460259 118.36912159 430.53376849 120.86331177 430.53294373 C122.64872305 430.53593494 124.43413368 430.53933739 126.21954346 430.54312134 C131.07492203 430.55196945 135.93028299 430.5542998 140.78566885 430.55493712 C144.83643503 430.55588572 148.8871971 430.55956346 152.9379617 430.56310922 C162.49380967 430.57125691 172.04964822 430.57369317 181.60549927 430.57298279 C191.46831567 430.57238194 201.3310774 430.58293446 211.19387996 430.59872645 C219.65679618 430.61179496 228.11969451 430.61716697 236.58262074 430.61652738 C241.63924589 430.61627218 246.69582247 430.61913523 251.75243759 430.62970543 C256.50809869 430.63937478 261.26366465 430.63947358 266.01932907 430.6321888 C267.76524494 430.6311415 269.5111667 430.63351443 271.25707245 430.63954926 C273.63967438 430.6472517 276.02194634 430.64263604 278.40454102 430.63491821 C279.09608304 430.64006178 279.78762506 430.64520534 280.5001229 430.65050477 C284.38681634 430.62266708 287.4396005 430.21831881 290.89505005 428.38768005 C292.30946879 425.55884258 292.21405337 423.51391261 291.89505005 420.38768005 C289.502802 417.81363574 288.02623271 417.40230697 284.50920105 417.01015663 C283.13278861 416.9936769 281.75611903 416.99374315 280.37966919 417.00672913 C279.61953301 417.00204915 278.85939684 416.99736918 278.07622623 416.99254739 C275.52737581 416.98057473 272.97906079 416.99006331 270.4302063 416.99949646 C268.60361415 416.99543176 266.77702447 416.99009046 264.95043945 416.98356628 C259.98769492 416.96987477 255.02513722 416.97519892 250.06238937 416.98470354 C244.87257121 416.99229062 239.68276922 416.98525718 234.49295044 416.98054504 C225.77701948 416.97508472 217.06116475 416.98228638 208.34524536 416.99656677 C198.26365456 417.0128938 188.18224576 417.00760549 178.10065937 416.99108756 C169.45004116 416.97748059 160.7994778 416.97554916 152.14885235 416.98340356 C146.9799215 416.98808442 141.81107625 416.98869359 136.64215088 416.9787941 C131.78300569 416.97013821 126.9240955 416.97612113 122.06497574 416.99347687 C120.27994299 416.99744908 118.49489051 416.99629514 116.70986557 416.98968887 C114.27645222 416.98151221 111.8437958 416.9917475 109.41043091 417.00672913 C108.70109437 417.00003696 107.99175783 416.9933448 107.26092625 416.98644984 C103.23126788 417.03469679 100.70810283 417.38308845 97.89505005 420.38768005 Z " fill="#ffff" transform="translate(61.104949951171875,34.61231994628906)"/>
<path d="M0 0 C1.1149585 -0.00430527 1.1149585 -0.00430527 2.25244141 -0.00869751 C3.8225989 -0.01073726 5.39278186 -0.0052135 6.96289062 0.00732422 C9.36646332 0.02338047 11.76835461 0.00747398 14.171875 -0.01171875 C15.69792038 -0.0097363 17.22396471 -0.00589259 18.75 0 C19.46881348 -0.00607269 20.18762695 -0.01214539 20.92822266 -0.0184021 C25.89971951 0.05168311 25.89971951 0.05168311 28.06583118 1.63203144 C29.75656675 3.91326937 29.74516984 5.22409629 29.73576355 8.04911804 C29.74194954 9.48150314 29.74194954 9.48150314 29.7482605 10.94282532 C29.73747467 11.98867294 29.72668884 13.03452057 29.71557617 14.11206055 C29.71601425 15.2146521 29.71645233 16.31724365 29.71690369 17.45324707 C29.71480998 21.10572889 29.69145089 24.7577544 29.66796875 28.41015625 C29.66237488 30.93935393 29.6581038 33.46855486 29.65510559 35.99775696 C29.64481291 41.9795057 29.62115738 47.96105792 29.59105712 53.94272786 C29.55753173 60.75280184 29.54103181 67.56288363 29.52597082 74.37301958 C29.4946082 88.38158325 29.44183611 102.39000138 29.375 116.3984375 C30.20644531 116.36363281 31.03789062 116.32882812 31.89453125 116.29296875 C33.52455078 116.25236328 33.52455078 116.25236328 35.1875 116.2109375 C36.26644531 116.17613281 37.34539062 116.14132812 38.45703125 116.10546875 C41.375 116.3984375 41.375 116.3984375 43.234375 117.69140625 C45.17102367 120.5897469 44.79480773 123.03997568 44.375 126.3984375 C41.95653177 129.07014318 40.44244488 129.39119576 36.83297729 129.77875423 C35.38208537 129.79654656 33.93093468 129.79777188 32.47998047 129.78611755 C31.67900877 129.79150309 30.87803707 129.79688863 30.0527935 129.80243737 C27.36576908 129.81675819 24.67923442 129.80960317 21.9921875 129.80249023 C20.0670736 129.80819161 18.14196308 129.81515496 16.21685791 129.82328796 C10.98553949 129.84125908 5.75438844 129.8400437 0.5230484 129.83434558 C-3.84102403 129.8312598 -8.20506403 129.83733928 -12.56913185 129.84338433 C-22.86187044 129.85744059 -33.15452605 129.85585876 -43.44726562 129.84448242 C-54.07420518 129.83299644 -64.70089252 129.84708251 -75.32779884 129.8738789 C-84.44550673 129.89601095 -93.5631353 129.90267902 -102.68086815 129.89680248 C-108.12928684 129.89342617 -113.57754378 129.89589282 -119.02593994 129.91305351 C-124.14777652 129.92848111 -129.26923833 129.92461372 -134.39105988 129.90574837 C-136.27284929 129.90205104 -138.15466622 129.90520409 -140.03643036 129.91563416 C-142.60138358 129.9287677 -145.16508204 129.91736538 -147.72998047 129.89964294 C-148.47822649 129.90924795 -149.22647251 129.91885296 -149.99739265 129.92874902 C-153.41346362 129.88003612 -155.32162643 129.61767728 -158.12234497 127.59367466 C-159.625 125.3984375 -159.625 125.3984375 -159.5625 121.7734375 C-158.625 118.3984375 -158.625 118.3984375 -155.625 116.3984375 C-153.36328125 116.203125 -153.36328125 116.203125 -150.9375 116.2734375 C-150.12925781 116.29148437 -149.32101562 116.30953125 -148.48828125 116.328125 C-147.87339844 116.35132813 -147.25851562 116.37453125 -146.625 116.3984375 C-146.65118408 115.63700439 -146.67736816 114.87557129 -146.7043457 114.09106445 C-146.80847015 110.63123315 -146.87337729 107.17173165 -146.9375 103.7109375 C-146.97939453 102.51275391 -147.02128906 101.31457031 -147.06445312 100.08007812 C-147.08056641 98.92314453 -147.09667969 97.76621094 -147.11328125 96.57421875 C-147.13946533 95.51114502 -147.16564941 94.44807129 -147.19262695 93.3527832 C-146.40601053 89.25865619 -144.9593922 87.85003297 -141.625 85.3984375 C-138.18334961 84.76733398 -138.18334961 84.76733398 -134.27734375 84.76953125 C-133.58363174 84.76711929 -132.88991974 84.76470734 -132.17518616 84.76222229 C-130.71528378 84.76319782 -129.25534307 84.77652176 -127.7956543 84.80151367 C-125.56496388 84.83589952 -123.33822314 84.82214547 -121.10742188 84.80273438 C-119.68487903 84.80963171 -118.26234637 84.8193031 -116.83984375 84.83203125 C-115.55198975 84.84290771 -114.26413574 84.85378418 -112.93725586 84.86499023 C-109.625 85.3984375 -109.625 85.3984375 -107.19848633 87.0402832 C-105.14905286 90.1117305 -105.16502955 92.02000361 -105.234375 95.6953125 C-105.24726563 96.90058594 -105.26015625 98.10585937 -105.2734375 99.34765625 C-105.30695313 100.60191406 -105.34046875 101.85617188 -105.375 103.1484375 C-105.39304687 104.41816406 -105.41109375 105.68789062 -105.4296875 106.99609375 C-105.47682847 110.13096827 -105.54262336 113.2643231 -105.625 116.3984375 C-103.975 116.3984375 -102.325 116.3984375 -100.625 116.3984375 C-100.63166183 115.77869553 -100.63832367 115.15895355 -100.64518738 114.52043152 C-100.71146509 108.0806496 -100.75676909 101.64096428 -100.78979492 95.20092773 C-100.80489816 92.79626532 -100.82538208 90.39163052 -100.85131836 87.98706055 C-100.88763351 84.53427319 -100.904711 81.08184946 -100.91796875 77.62890625 C-100.93345261 76.55070114 -100.94893646 75.47249603 -100.96488953 74.36161804 C-100.96511612 73.36080704 -100.96534271 72.35999603 -100.96557617 71.32885742 C-100.97223801 70.44727463 -100.97889984 69.56569183 -100.98576355 68.65739441 C-100.625 66.3984375 -100.625 66.3984375 -99.31036377 64.61553955 C-96.56385818 62.63212348 -93.51677837 62.95103779 -90.25390625 62.96484375 C-89.17579933 62.95698097 -89.17579933 62.95698097 -88.07591248 62.94895935 C-86.55705048 62.94254144 -85.03813877 62.94387325 -83.51928711 62.95239258 C-81.19880314 62.96089608 -78.88078714 62.9321545 -76.56054688 62.90039062 C-75.08333407 62.89877826 -73.60611692 62.89935681 -72.12890625 62.90234375 C-71.43712784 62.89110977 -70.74534943 62.87987579 -70.03260803 62.86830139 C-66.99846769 62.91204373 -64.85227738 63.27416469 -62.18041992 64.73510742 C-59.62924716 69.1034552 -60.1369698 73.54831963 -60.234375 78.5078125 C-60.24003479 79.58975891 -60.24569458 80.67170532 -60.25152588 81.78643799 C-60.27391001 85.24088857 -60.32411209 88.69430061 -60.375 92.1484375 C-60.39506228 94.49087043 -60.41331352 96.83331963 -60.4296875 99.17578125 C-60.47378145 104.9170208 -60.54071445 110.65765495 -60.625 116.3984375 C-58.975 116.3984375 -57.325 116.3984375 -55.625 116.3984375 C-55.63499275 115.13056648 -55.63499275 115.13056648 -55.64518738 113.83708191 C-55.70526525 105.87661306 -55.75095743 97.91622021 -55.78043652 89.9555769 C-55.79610146 85.86278307 -55.81735458 81.77017636 -55.85131836 77.67749023 C-55.88388267 73.72878998 -55.90184677 69.78026985 -55.90963173 65.83144569 C-55.91518054 64.32391842 -55.92601595 62.81640114 -55.94219017 61.30895042 C-55.9639263 59.19948291 -55.96696864 57.09076241 -55.96557617 54.98120117 C-55.97556892 53.17917488 -55.97556892 53.17917488 -55.98576355 51.34074402 C-55.625 48.3984375 -55.625 48.3984375 -54.3170929 46.51127625 C-51.46929503 44.638365 -48.29607508 44.97215404 -45 45 C-44.25669434 44.99712982 -43.51338867 44.99425964 -42.74755859 44.99130249 C-41.1774011 44.98926274 -39.60721814 44.9947865 -38.03710938 45.00732422 C-35.63353668 45.02338047 -33.23164539 45.00747398 -30.828125 44.98828125 C-29.30207962 44.9902637 -27.77603529 44.99410741 -26.25 45 C-25.53118652 44.99392731 -24.81237305 44.98785461 -24.07177734 44.9815979 C-19.15338509 45.05093447 -19.15338509 45.05093447 -16.9329071 46.51127625 C-14.98433776 49.32284028 -15.26559485 51.58570825 -15.28442383 54.98120117 C-15.28398575 55.64488205 -15.28354767 56.30856293 -15.28309631 56.99235535 C-15.28518481 59.18400589 -15.30851732 61.37488951 -15.33203125 63.56640625 C-15.33762702 65.0866911 -15.34189721 66.60698136 -15.34489441 68.12727356 C-15.35634476 72.12721715 -15.38581328 76.12683356 -15.41900635 80.12664795 C-15.44970331 84.2087359 -15.46339893 88.29087675 -15.47851562 92.37304688 C-15.51068305 100.38166051 -15.5618814 108.39000829 -15.625 116.3984375 C-13.975 116.3984375 -12.325 116.3984375 -10.625 116.3984375 C-10.62776538 115.81883113 -10.63053076 115.23922476 -10.63337994 114.64205456 C-10.69960178 100.5459903 -10.74926201 86.44994934 -10.78043652 72.35376263 C-10.79591258 65.53697312 -10.81701605 58.72028737 -10.85131836 51.90356445 C-10.88438675 45.32892395 -10.90183781 38.75436316 -10.90963173 32.179636 C-10.91518824 29.66732902 -10.92603826 27.15502816 -10.94219017 24.64276695 C-10.96386791 21.13240011 -10.96697093 17.62248321 -10.96557617 14.11206055 C-10.976362 13.06621292 -10.98714783 12.0203653 -10.9982605 10.94282532 C-10.99413651 9.98790192 -10.99001251 9.03297852 -10.98576355 8.04911804 C-10.98852893 7.21858256 -10.99129431 6.38804708 -10.99414349 5.53234386 C-9.95741581 -0.4606639 -5.05287193 -0.04268776 0 0 Z M2.375 13.3984375 C2.375 47.3884375 2.375 81.3784375 2.375 116.3984375 C6.995 116.3984375 11.615 116.3984375 16.375 116.3984375 C16.375 82.4084375 16.375 48.4184375 16.375 13.3984375 C11.755 13.3984375 7.135 13.3984375 2.375 13.3984375 Z M-42.625 58.3984375 C-42.625 77.5384375 -42.625 96.6784375 -42.625 116.3984375 C-38.005 116.3984375 -33.385 116.3984375 -28.625 116.3984375 C-28.625 97.2584375 -28.625 78.1184375 -28.625 58.3984375 C-33.245 58.3984375 -37.865 58.3984375 -42.625 58.3984375 Z M-87.625 76.3984375 C-87.625 89.5984375 -87.625 102.7984375 -87.625 116.3984375 C-83.005 116.3984375 -78.385 116.3984375 -73.625 116.3984375 C-73.625 103.1984375 -73.625 89.9984375 -73.625 76.3984375 C-78.245 76.3984375 -82.865 76.3984375 -87.625 76.3984375 Z M-133.625 98.3984375 C-133.625 104.3384375 -133.625 110.2784375 -133.625 116.3984375 C-128.675 116.3984375 -123.725 116.3984375 -118.625 116.3984375 C-118.625 110.4584375 -118.625 104.5184375 -118.625 98.3984375 C-123.575 98.3984375 -128.525 98.3984375 -133.625 98.3984375 Z " fill="#ffff" transform="translate(424.625,142.6015625)"/>
<path d="M0 0 C19.91547851 18.02994972 35.17198267 44.03583527 37.25 71.27734375 C37.43134565 76.31535254 37.49182952 79.96169324 35.3125 84.5625 C31.14112106 88.95935888 28.00363302 91.88872505 21.75398254 92.12025452 C20.39694338 92.12315302 19.03988568 92.12049651 17.68286133 92.11352539 C16.57029716 92.11374443 16.57029716 92.11374443 15.43525696 92.1139679 C12.98415195 92.11327134 10.53312298 92.10549097 8.08203125 92.09765625 C6.38238059 92.09579116 4.68272939 92.09436768 2.983078 92.09336853 C-1.49019861 92.08955055 -5.96344276 92.07972638 -10.43670654 92.06866455 C-15.00141969 92.05843499 -19.56613807 92.0538676 -24.13085938 92.04882812 C-33.08725385 92.03810349 -42.04362422 92.02103567 -51 92 C-51.29777344 92.928125 -51.59554687 93.85625 -51.90234375 94.8125 C-54.52443055 102.42681612 -59.12476704 106.24138368 -66 110 C-74.22101401 113.11831566 -81.07777812 112.38284657 -89 109 C-95.51109646 105.3144737 -98.9826257 100.78909218 -102 94 C-102 93.34 -102 92.68 -102 92 C-103.40821518 92.00999275 -103.40821518 92.00999275 -104.84487915 92.02018738 C-113.70209149 92.08106242 -122.55926126 92.1260033 -131.41663551 92.15543652 C-135.97006592 92.17107726 -140.52332712 92.1922864 -145.07666016 92.22631836 C-149.47275831 92.25896866 -153.86869395 92.27686499 -158.26490402 92.28463173 C-159.9402052 92.29016507 -161.61549772 92.30097039 -163.29072952 92.31719017 C-165.64144199 92.33904018 -167.9914871 92.34196382 -170.34228516 92.34057617 C-171.03136963 92.351362 -171.7204541 92.36214783 -172.43041992 92.3732605 C-177.67881502 92.33984448 -181.76682504 91.08465026 -185.64453125 87.46484375 C-190.68626372 80.87180898 -190.58579899 76.2259379 -190 68 C-185.60616732 38.2433933 -168.73138944 11.28298444 -145.06518555 -7.0065918 C-101.69189642 -38.91474744 -40.08425249 -35.56858825 0 0 Z M-100.0625 -13.4375 C-100.79001465 -13.26041504 -101.5175293 -13.08333008 -102.26708984 -12.90087891 C-115.76298346 -9.411014 -135.19438262 -2.25791899 -143 10 C-142.07316406 10.86882812 -141.14632812 11.73765625 -140.19140625 12.6328125 C-138.98111506 13.79619317 -137.77151566 14.96029382 -136.5625 16.125 C-135.95083984 16.69476563 -135.33917969 17.26453125 -134.70898438 17.8515625 C-131.84173535 20.63960575 -130.18727041 22.39100825 -128.9921875 26.27734375 C-129 29 -129 29 -130.5625 31.4375 C-133 33 -133 33 -135.72265625 33.0078125 C-140.30639341 31.59827235 -142.66117783 28.88763262 -145.875 25.4375 C-146.46796875 24.82197266 -147.0609375 24.20644531 -147.671875 23.57226562 C-149.12622022 22.05927745 -150.5647306 20.531096 -152 19 C-166.01663808 29.13132437 -172.81895483 49.80455697 -176.37109375 66.0625 C-177.03153951 70.19746478 -177.18766437 73.82561213 -177 78 C-175.88995879 79.33587809 -175.88995879 79.33587809 -173.07041931 79.12025452 C-171.10184715 79.1169236 -171.10184715 79.1169236 -169.09350586 79.11352539 C-168.01064049 79.11374443 -168.01064049 79.11374443 -166.90589905 79.1139679 C-164.50885053 79.11326869 -162.11187877 79.10547595 -159.71484375 79.09765625 C-158.05717511 79.0957921 -156.39950593 79.09436818 -154.74183655 79.09336853 C-150.37045786 79.08954312 -145.99911219 79.07971265 -141.62774658 79.06866455 C-137.17045539 79.05845092 -132.71315889 79.05387101 -128.25585938 79.04882812 C-119.50389107 79.0380904 -110.75194964 79.02101371 -102 79 C-101.67676758 78.31800537 -101.35353516 77.63601074 -101.02050781 76.93334961 C-100.58577148 76.03624268 -100.15103516 75.13913574 -99.703125 74.21484375 C-99.27676758 73.32659912 -98.85041016 72.43835449 -98.41113281 71.52319336 C-95.02643738 65.47114712 -90.06109392 62.6005415 -83.6015625 60.54296875 C-81.16964068 60.03540549 -78.80568296 59.73128722 -76.33740234 59.46606445 C-75.52556488 59.3781514 -74.71372742 59.29023834 -73.87728882 59.19966125 C-73.25778351 59.13377304 -72.6382782 59.06788483 -72 59 C-71.62190186 57.95545654 -71.24380371 56.91091309 -70.85424805 55.8347168 C-69.44814179 51.9570959 -68.03104031 48.08357065 -66.6105957 44.21118164 C-65.99756416 42.53519459 -65.38751286 40.85811429 -64.78051758 39.17993164 C-63.90708694 36.7667492 -63.02298445 34.35771221 -62.13671875 31.94921875 C-61.86784348 31.19912033 -61.5989682 30.44902191 -61.32194519 29.67619324 C-60.00583025 26.1308661 -58.95746165 23.40491566 -56 21 C-52.9375 20.6875 -52.9375 20.6875 -50 21 C-48 23 -48 23 -47.70874023 26.15356445 C-48.02429298 30.32081806 -49.10017762 33.71803281 -50.66015625 37.54296875 C-50.92888046 38.23385086 -51.19760468 38.92473297 -51.47447205 39.6365509 C-52.32606152 41.8247502 -53.19240676 44.00659815 -54.0625 46.1875 C-55.21193934 49.07202577 -56.34646836 51.96179889 -57.47265625 54.85546875 C-57.87412621 55.84150337 -57.87412621 55.84150337 -58.28370667 56.84745789 C-59.29673444 59.45150408 -60.05011687 61.49481984 -59.77124023 64.3059082 C-58.99509811 66.19666602 -58.99509811 66.19666602 -57.1875 68.25 C-55.33358951 70.58063033 -54.15000752 72.52828643 -52.86328125 75.171875 C-52.51177002 75.88956055 -52.16025879 76.60724609 -51.7980957 77.34667969 C-51.53472412 77.89227539 -51.27135254 78.43787109 -51 79 C-41.51652748 79.02313912 -32.03306464 79.04092312 -22.54957008 79.05181217 C-18.14631785 79.05703755 -13.74308489 79.06412897 -9.33984375 79.07543945 C-5.09290756 79.08628054 -0.84598994 79.09227944 3.40095901 79.09487724 C5.02372149 79.09672928 6.64648292 79.10034568 8.26923752 79.10573006 C10.53677339 79.11295668 12.80423187 79.11399025 15.07177734 79.11352539 C16.36417328 79.115746 17.65656921 79.11796661 18.98812866 79.12025452 C21.9230403 79.20980249 21.9230403 79.20980249 24 78 C24.55458971 57.24910153 15.15287358 36.69934467 2 21 C1.01 20.34 0.02 19.68 -1 19 C-1.86882812 19.92683594 -2.73765625 20.85367188 -3.6328125 21.80859375 C-4.79619317 23.01888494 -5.96029382 24.22848434 -7.125 25.4375 C-7.69476563 26.04916016 -8.26453125 26.66082031 -8.8515625 27.29101562 C-11.63960575 30.15826465 -13.39100825 31.81272959 -17.27734375 33.0078125 C-20 33 -20 33 -22.4375 31.4375 C-24 29 -24 29 -24.0078125 26.27734375 C-22.59827235 21.69360659 -19.88763262 19.33882217 -16.4375 16.125 C-15.82197266 15.53203125 -15.20644531 14.9390625 -14.57226562 14.328125 C-13.05927745 12.87377978 -11.531096 11.4352694 -10 10 C-13.19067406 5.45693363 -16.71864844 2.89795988 -21.375 0.0625 C-22.43956421 -0.58936279 -22.43956421 -0.58936279 -23.52563477 -1.25439453 C-32.8105589 -6.81892919 -42.28387584 -10.79575888 -52.8125 -13.375 C-53.49368896 -13.54306152 -54.17487793 -13.71112305 -54.87670898 -13.88427734 C-60.20073402 -15.07598289 -64.29498666 -15 -70 -15 C-70.33 -7.41 -70.66 0.18 -71 8 C-78 9 -78 9 -82 8 C-82.33 0.41 -82.66 -7.18 -83 -15 C-89.23232182 -15 -94.18066002 -14.8717175 -100.0625 -13.4375 Z M-87.3125 77.1875 C-89.47990228 80.79983713 -90.20653931 83.79485971 -90 88 C-88.37970278 92.68085865 -86.25123377 95.44925974 -82 98 C-77.84481553 99.25342342 -74.86881346 99.30074312 -70.75 97.875 C-67.19789565 95.45311067 -64.70533764 93.33824259 -63.4296875 89.109375 C-62.5559943 84.23900012 -63.14544631 81.18667875 -66 77 C-69.34092615 73.46816378 -72.27374594 72.26817593 -77.01171875 71.90234375 C-81.4450172 72.12008925 -84.19086434 74.2346014 -87.3125 77.1875 Z " fill="#ffff" transform="translate(233,118)"/>
<path d="M0 0 C3.3228743 3.47360262 4.35696386 8.74204805 5.6875 13.3125 C6.02491211 14.3943457 6.02491211 14.3943457 6.36914062 15.49804688 C7.89733622 20.67718999 9.60500912 26.97880637 6.9375 32 C3.7930558 33.62293894 1.45914297 33.49416328 -2 33 C-3.8125 30.6875 -3.8125 30.6875 -5 28 C-5.99 26.515 -5.99 26.515 -7 25 C-7.40557129 25.74890503 -7.40557129 25.74890503 -7.81933594 26.51293945 C-15.60595509 40.55071912 -15.60595509 40.55071912 -20.91015625 43.76171875 C-24.01033621 44.55032442 -26.80300363 44.87928516 -30 45 C-32.54178943 45.14367772 -35.08345715 45.28952457 -37.625 45.4375 C-38.79289062 45.45683594 -39.96078125 45.47617188 -41.1640625 45.49609375 C-42.09992188 45.66238281 -43.03578125 45.82867187 -44 46 C-45.04439815 47.80904474 -45.04439815 47.80904474 -46 50 C-48.19583853 53.23566095 -50.54793453 56.35775069 -52.875 59.5 C-53.50019531 60.35464844 -54.12539063 61.20929688 -54.76953125 62.08984375 C-55.37925781 62.91613281 -55.98898437 63.74242187 -56.6171875 64.59375 C-57.17003418 65.34333984 -57.72288086 66.09292969 -58.29248047 66.86523438 C-63.04988147 72.81300595 -63.04988147 72.81300595 -66.80224609 73.55151367 C-67.86523926 73.58994385 -68.92823242 73.62837402 -70.0234375 73.66796875 C-85.83166531 74.30383208 -85.83166531 74.30383208 -98.46191406 82.69628906 C-100.65384192 85.65017893 -102.69949494 88.65241375 -104.62109375 91.7890625 C-106.73496223 95.17843802 -109.17588927 98.2871559 -111.625 101.4375 C-112.38039063 102.46746094 -113.13578125 103.49742187 -113.9140625 104.55859375 C-119.28381617 110.8434178 -128.20269426 110.57076738 -135.96875 111.265625 C-140.93606983 111.4701617 -140.93606983 111.4701617 -143 111 C-144.77734375 109.16796875 -144.77734375 109.16796875 -146 107 C-145.93312905 103.72332358 -145.75289801 101.80515571 -143.48046875 99.375 C-139.30301269 97.05930782 -134.72136951 97.20866089 -130.0234375 96.91601562 C-127.50511775 96.73862441 -127.50511775 96.73862441 -124 96 C-122.87676168 94.15816481 -122.87676168 94.15816481 -122 92 C-121.11569164 90.79388218 -120.19396462 89.61455866 -119.2421875 88.4609375 C-118.70271484 87.80246826 -118.16324219 87.14399902 -117.60742188 86.46557617 C-117.03572266 85.77568604 -116.46402344 85.0857959 -115.875 84.375 C-114.69477614 82.94184779 -113.51508777 81.50825441 -112.3359375 80.07421875 C-111.76327148 79.3786084 -111.19060547 78.68299805 -110.60058594 77.96630859 C-109.22161197 76.27224875 -107.87056678 74.56343932 -106.5390625 72.83203125 C-105.52972656 71.52298828 -105.52972656 71.52298828 -104.5 70.1875 C-103.9328125 69.43855469 -103.365625 68.68960938 -102.78125 67.91796875 C-99.18823552 64.04917465 -95.63087491 62.65492761 -90.4375 62.2265625 C-88.87128906 62.071875 -88.87128906 62.071875 -87.2734375 61.9140625 C-85.09181661 61.7214134 -82.90949777 61.53651056 -80.7265625 61.359375 C-74.58968248 60.78778464 -74.58968248 60.78778464 -69.2109375 58.03515625 C-68.48132813 57.03355469 -67.75171875 56.03195313 -67 55 C-66.17870605 53.8867334 -66.17870605 53.8867334 -65.34082031 52.75097656 C-62.74824634 49.21317918 -60.20248814 45.64528016 -57.703125 42.04101562 C-52.91065452 35.41469165 -52.91065452 35.41469165 -48.5859375 33.4453125 C-45.17271079 33.02144775 -41.76099013 32.64402702 -38.33740234 32.31591797 C-30.59835274 31.54446055 -30.59835274 31.54446055 -24.2734375 27.39453125 C-21.28829839 23.01733036 -21.28829839 23.01733036 -20 18 C-21.258125 18.061875 -22.51625 18.12375 -23.8125 18.1875 C-27.70339488 18.16684038 -27.70339488 18.16684038 -30 16.875 C-31.46221217 14.13335219 -31.31833733 12.05603838 -31 9 C-28.06817824 4.60226736 -24.36256806 4.24647021 -19.4375 2.8125 C-18.13329102 2.40354492 -18.13329102 2.40354492 -16.80273438 1.98632812 C-11.35462542 0.36530242 -5.68232339 -1.24011123 0 0 Z " fill="#ffff" transform="translate(421,102)"/>
<path d="M0 0 C1.27866943 -0.00845947 2.55733887 -0.01691895 3.87475586 -0.02563477 C5.28955206 -0.019802 6.70434699 -0.0136575 8.11914062 -0.00723267 C9.61076237 -0.01129825 11.10238111 -0.01664006 12.59399414 -0.02316284 C16.64355853 -0.0368439 20.69289374 -0.0315346 24.74246216 -0.02202559 C28.97935608 -0.01443306 33.21623031 -0.02147346 37.453125 -0.02618408 C44.56839523 -0.03164282 51.68357207 -0.02444692 58.79882812 -0.01016235 C67.02635941 0.00616442 75.25366767 0.00087599 83.48119354 -0.01564157 C90.54371806 -0.02925307 97.60617541 -0.03117775 104.6687088 -0.02332556 C108.88749345 -0.01864719 113.10617325 -0.01802868 117.32495117 -0.02793503 C121.29111171 -0.03659756 125.25698457 -0.03059603 129.22311401 -0.01325226 C130.67918419 -0.00928357 132.13527854 -0.01042801 133.59133911 -0.01704025 C135.57781106 -0.02522986 137.56433589 -0.01314201 139.55078125 0 C141.21880798 0.00169662 141.21880798 0.00169662 142.92053223 0.00342751 C146.1213709 0.42670299 147.48517202 1.14176448 149.77539062 3.38095093 C150.81378762 6.27362827 151.01068064 7.72937857 149.96289062 10.63095093 C148.77539062 12.38095093 148.77539062 12.38095093 146.77539062 13.38095093 C144.74248182 13.483591 142.70615345 13.52047337 140.67066956 13.52812195 C139.36806183 13.53527725 138.0654541 13.54243256 136.72337341 13.54980469 C135.27139306 13.55264505 133.81941245 13.55535677 132.36743164 13.55795288 C130.84492843 13.56421627 129.32242675 13.57086295 127.79992676 13.5778656 C123.65741922 13.5952835 119.51492322 13.60582887 115.37238812 13.61407113 C112.78633691 13.61921817 110.20028931 13.62529394 107.61424065 13.63158226 C99.52885182 13.65063402 91.44347215 13.66486684 83.35806519 13.67319423 C74.01357479 13.68297654 64.66932066 13.70932189 55.32491356 13.74969512 C48.10874811 13.77980753 40.89265058 13.79465833 33.67642349 13.79797524 C29.36311523 13.80033075 25.05005938 13.80935608 20.73681831 13.83443642 C16.68120543 13.8576381 12.62601257 13.86198262 8.57035065 13.85167503 C7.07997939 13.85117767 5.58958801 13.85755689 4.0992794 13.87123108 C2.06862742 13.8888243 0.03779481 13.8794998 -1.99290466 13.86869812 C-3.13056495 13.87108647 -4.26822523 13.87347483 -5.44036007 13.87593555 C-8.22460938 13.38095093 -8.22460938 13.38095093 -10.11799717 11.54187298 C-11.71138921 8.43039817 -11.2718552 6.66232119 -10.22460938 3.38095093 C-6.99419076 0.16943887 -4.45524271 0.0045316 0 0 Z " fill="#ffff" transform="translate(88.224609375,234.61904907226563)"/>
<path d="M0 0 C1.31102188 -0.00997513 2.62204376 -0.01995026 3.97279358 -0.03022766 C5.43421924 -0.03112353 6.89564506 -0.03178707 8.35707092 -0.03224182 C9.88942877 -0.03985957 11.42178278 -0.0482864 12.95413208 -0.0574646 C17.12351091 -0.07945314 21.29281639 -0.08821419 25.46224666 -0.09329104 C28.0650557 -0.09692916 30.66784537 -0.10316631 33.27064705 -0.11029243 C42.34503655 -0.13480102 51.41936876 -0.14784209 60.49378967 -0.15138245 C68.96222831 -0.15501995 77.430305 -0.1849269 85.89863294 -0.22678703 C93.16151776 -0.26143431 100.4242823 -0.27692991 107.68724924 -0.27762848 C112.02854786 -0.27842314 116.36947796 -0.28724773 120.71069145 -0.31562614 C124.79265602 -0.34171236 128.87394407 -0.34406565 132.9559536 -0.3279705 C134.45600097 -0.32614848 135.9560864 -0.33291447 137.45605087 -0.34878922 C139.49981695 -0.36910443 141.54383588 -0.35576448 143.58764648 -0.34057617 C144.73268111 -0.3425875 145.87771574 -0.34459883 147.05744839 -0.3466711 C149.85731506 0.27415466 149.85731506 0.27415466 151.79604435 2.60945034 C152.85731506 5.27415466 152.85731506 5.27415466 152.10731506 8.52415466 C150.85731506 11.27415466 150.85731506 11.27415466 149.85731506 12.27415466 C147.85201276 12.37966473 145.8429468 12.41383479 143.83488464 12.42132568 C142.52523743 12.42848099 141.21559021 12.43563629 139.86625671 12.44300842 C138.40119958 12.44584897 136.93614219 12.44856067 135.47108459 12.45115662 C133.93887679 12.45741822 132.40667053 12.46406475 130.87446594 12.47106934 C126.70090841 12.48850617 122.52736237 12.49903815 118.35377741 12.50727487 C115.748803 12.51241878 113.14383219 12.51849475 110.53886032 12.524786 C102.39580297 12.54384459 94.25275472 12.55807492 86.10967934 12.56639796 C76.696129 12.57617728 67.28281338 12.60251197 57.86934578 12.64289886 C50.60224551 12.67301198 43.3352127 12.68786221 36.06805122 12.69117898 C31.72342971 12.69353479 27.37905876 12.70256366 23.03450394 12.72764015 C18.94853652 12.75084252 14.86298601 12.75518606 10.77696991 12.74487877 C9.27531171 12.74438139 7.77363353 12.75076104 6.27203751 12.76443481 C4.22600472 12.78202736 2.17979268 12.77270376 0.13371277 12.76190186 C-1.01262068 12.76429021 -2.15895412 12.76667856 -3.34002495 12.76913929 C-6.14268494 12.27415466 -6.14268494 12.27415466 -8.04667854 10.43898296 C-9.59353151 7.38364396 -9.05664356 5.50816209 -8.14268494 2.27415466 C-5.39566965 -0.47286063 -3.84870483 0.01563649 0 0 Z " fill="#ffff" transform="translate(86.14268493652344,264.72584533691406)"/>
<path d="M0 0 C3.41377569 2.90170933 3.9331269 4.47337433 4.5 8.9375 C4.29249732 13.15140065 2.69593666 15.74901756 0 19 C-3.73268649 20.86634324 -7.93486964 20.54329572 -12 20 C-15.21245432 17.96763094 -16.53214044 16.5149738 -17.65625 12.875 C-18.38770288 8.71134515 -18.2136379 6.47000338 -16.4375 2.5625 C-11.49275522 -2.63582143 -6.30808882 -2.80508631 0 0 Z " fill="#ffff" transform="translate(422,344)"/>
<path d="M0 0 C2.99983163 3.22481901 3.90120358 5.19551484 4.4375 9.5625 C3.97208307 13.2193473 3.23647173 15.10086998 1 18 C-3.2258785 20.81725233 -7.03624688 20.79958384 -12 20 C-14.82424288 17.80977082 -16.41508603 16.16982793 -18 13 C-18.39964884 8.84365207 -18.22832432 6.46543034 -16.375 2.6875 C-11.6887351 -2.6153787 -6.18425871 -2.98686538 0 0 Z " fill="#ffff" transform="translate(395,344)"/>
<path d="M0 0 C2.96583433 2.79635808 3.37348475 4.41307515 3.5 8.375 C3.47163514 11.89791599 3.25400675 12.95608919 1.3125 16.0625 C-2.21944038 19.38667918 -4.86177217 19.40410904 -9.5546875 19.34375 C-12.9632503 18.91915394 -14.55865278 17.58954082 -16.8125 15.0625 C-18.64798272 11.97555179 -18.81457001 10.17842056 -18.75 6.5625 C-17.62464114 2.36116027 -16.19760863 0.73909752 -12.8125 -1.9375 C-8.28467315 -3.98232503 -3.94344204 -2.71659341 0 0 Z " fill="#ffff" transform="translate(449.8125,344.9375)"/>
</svg>
