<?xml version="1.0" encoding="UTF-8"?>
<svg fill="currentColor" stroke="currentColor" version="1.1" xmlns="http://www.w3.org/2000/svg" width="512" height="512">
<path d="M0 0 C1.19367188 -0.01675781 2.38734375 -0.03351562 3.6171875 -0.05078125 C9.47586193 0.55596343 13.19412296 2.85086777 16.9375 7.3125 C17.52144531 7.993125 18.10539063 8.67375 18.70703125 9.375 C22.59997561 14.69428486 21.73429465 22.06030604 21.125 28.3125 C19.08606771 34.06896831 15.46951828 37.4078705 10.125 40.3125 C9.135 40.6425 8.145 40.9725 7.125 41.3125 C6.795 62.1025 6.465 82.8925 6.125 104.3125 C10.415 104.3125 14.705 104.3125 19.125 104.3125 C22.77317308 104.73664746 26.32675514 105.20106952 29.9375 105.8125 C30.83275391 105.95558594 31.72800781 106.09867187 32.65039062 106.24609375 C34.81005657 106.59256422 36.96777053 106.95116944 39.125 107.3125 C39.0621582 105.36815063 39.0621582 105.36815063 38.99804688 103.38452148 C38.85279241 98.55619837 38.76124428 93.72806644 38.68554688 88.89819336 C38.64541696 86.81159955 38.59089728 84.7252293 38.52148438 82.6394043 C38.42396317 79.63273959 38.37897098 76.62905614 38.34375 73.62109375 C38.30245972 72.69477646 38.26116943 71.76845917 38.21862793 70.81407166 C38.21598071 66.95709832 38.27299438 64.36418659 40.75611877 61.29910278 C42.80262034 59.50132503 44.9134573 57.9009715 47.125 56.3125 C48.14001829 55.43895777 49.14295866 54.55102276 50.12866211 53.64453125 C51.04397705 52.81308594 51.95929199 51.98164062 52.90234375 51.125 C54.44169553 49.68414239 55.97370275 48.23616151 57.50024414 46.78173828 C58.54134272 45.80262729 59.59555824 44.83727854 60.66235352 43.88623047 C67.5081693 37.77689168 67.5081693 37.77689168 70.93017578 29.4296875 C71.18234203 25.49040802 71.18234203 25.49040802 71.00219727 21.7578125 C71.18698342 16.57351385 73.11848909 13.45144656 76.5 9.625 C81.3382889 5.36269787 84.53920754 3.89500298 91.0625 3.9375 C92.24714844 3.92976562 93.43179687 3.92203125 94.65234375 3.9140625 C100.47952562 4.58264805 104.20633802 6.86542658 107.9375 11.3125 C108.52144531 11.993125 109.10539062 12.67375 109.70703125 13.375 C113.59997561 18.69428486 112.73429465 26.06030604 112.125 32.3125 C110.08606771 38.06896831 106.46951828 41.4078705 101.125 44.3125 C97.65672305 45.46859232 94.9034416 45.44522398 91.25 45.4375 C90.03570312 45.44007812 88.82140625 45.44265625 87.5703125 45.4453125 C84.125 45.3125 84.125 45.3125 81.76171875 44.48657227 C78.90872516 44.00950092 78.90872516 44.00950092 76.40185547 46.37036133 C75.41656055 47.36336556 74.447522 48.37267046 73.4921875 49.39453125 C72.97367218 49.92390793 72.45515686 50.45328461 71.92092896 50.998703 C70.26593113 52.69389974 68.63274395 54.40838386 67 56.125 C65.35600849 57.82645188 63.70782879 59.52371397 62.05764771 61.21916199 C61.03247049 62.2753861 60.01167344 63.33588356 58.99581909 64.40107727 C56.7957734 66.69327885 54.78365938 68.54006041 52.125 70.3125 C51.858513 73.36325084 51.77742854 76.20876179 51.83203125 79.2578125 C51.83627609 80.1428244 51.84052094 81.0278363 51.84489441 81.93966675 C51.86171741 84.77258445 51.89937575 87.60479652 51.9375 90.4375 C51.95254218 92.35545849 51.96623139 94.27342811 51.97851562 96.19140625 C52.01163273 100.89871031 52.06343945 105.60548544 52.125 110.3125 C52.71051636 110.50658447 53.29603271 110.70066895 53.89929199 110.90063477 C65.83557842 114.86654047 77.0779094 119.28458434 88.125 125.3125 C89.18074219 125.87710938 90.23648437 126.44171875 91.32421875 127.0234375 C112.26392766 138.68398128 130.40559139 156.04748761 143.125 176.3125 C143.68550049 177.20098633 143.68550049 177.20098633 144.25732422 178.10742188 C153.33398264 192.73845336 163.628789 212.67988483 163.125 230.3125 C163.785 230.3125 164.445 230.3125 165.125 230.3125 C174.05082681 278.51286321 151.06957025 327.57649892 133.30859375 371.05078125 C131.91262501 374.47076971 130.51809973 377.89134187 129.125 381.3125 C128.75707336 382.21580048 128.38914673 383.11910095 128.0100708 384.04977417 C126.91026058 386.75553927 125.81571862 389.46337788 124.72265625 392.171875 C124.22432533 393.39569633 124.22432533 393.39569633 123.71592712 394.64424133 C115.95756172 413.93681635 116.60716263 434.26237332 121.125 454.3125 C121.29128906 455.05064941 121.45757812 455.78879883 121.62890625 456.54931641 C125.33727375 472.38198542 131.42957139 487.10145379 140.65625 500.515625 C142.36966907 503.77841237 142.64709632 505.67790641 142.125 509.3125 C141.11721897 510.96544838 141.11721897 510.96544838 139.125 512.3125 C136.29154237 512.60737826 133.67775364 512.71707048 130.84324646 512.69345093 C129.56132458 512.70047089 129.56132458 512.70047089 128.25350529 512.70763266 C125.3790525 512.71963473 122.50507188 512.71010518 119.63061523 512.70068359 C117.57432781 512.70474695 115.51804256 512.7100875 113.46176147 512.71661377 C107.8689538 512.73032036 102.27631167 512.72497514 96.68350101 512.71547651 C90.84010788 512.70789824 84.99672923 512.71492032 79.15333557 512.71963501 C69.34023484 512.72509748 59.52720179 512.71788759 49.71411133 512.70361328 C38.35499287 512.68728132 26.9960359 512.69257732 15.63692135 512.7090925 C5.897618 512.72268794 -3.84163662 512.72463668 -13.58094639 512.71677649 C-19.4037538 512.71208986 -25.22648521 512.71150231 -31.0492878 512.72138596 C-36.52152349 512.73002529 -41.99355009 512.72408942 -47.46576309 512.70670319 C-49.47900609 512.70272227 -51.49226656 512.70389961 -53.5055027 512.71049118 C-56.24398614 512.7186335 -58.98179048 512.70847437 -61.7202301 512.69345093 C-62.92823433 512.70348918 -62.92823433 512.70348918 -64.16064268 512.71373022 C-66.37325382 512.69002342 -66.37325382 512.69002342 -69.875 512.3125 C-72.3743103 508.56353455 -72.26802381 505.64755263 -71.875 501.3125 C-71.27009666 498.68765158 -70.61274173 496.14615907 -69.875 493.5625 C-66.87981823 481.93529831 -65.06727457 467.17808349 -70.6875 456.09375 C-74.06752054 451.02371919 -77.73502914 449.91002965 -83.40222168 448.7116394 C-87.30262137 448.08206287 -91.1068991 448.12395285 -95.046875 448.22265625 C-96.7812471 448.24308582 -98.51562223 448.26326004 -100.25 448.28320312 C-102.93307984 448.32647072 -105.61594544 448.37481729 -108.29882812 448.42895508 C-136.50595529 448.95563341 -136.50595529 448.95563341 -147.875 440.3125 C-152.41678736 435.93634405 -156.5918163 431.65656637 -157.140625 425.17578125 C-157.13546875 424.00402344 -157.1303125 422.83226562 -157.125 421.625 C-157.13015625 420.46613281 -157.1353125 419.30726563 -157.140625 418.11328125 C-156.92011276 414.95801051 -156.44993864 412.91179381 -155.52734375 409.97265625 C-154.33598678 404.97247036 -155.956286 402.17251754 -158.56054688 397.9140625 C-159.09744141 397.09679687 -159.63433594 396.27953125 -160.1875 395.4375 C-161.2268995 393.7744608 -162.26473121 392.11044042 -163.30078125 390.4453125 C-163.76911377 389.72230957 -164.23744629 388.99930664 -164.7199707 388.25439453 C-167.66817356 383.29772458 -167.33445433 377.89979283 -166.875 372.3125 C-165.53323592 369.15935441 -164.41229127 367.73917248 -161.75 365.625 C-158.84398059 362.04090939 -158.49011747 357.85411388 -158.875 353.3125 C-160.28795615 349.98023822 -161.1197228 348.63683826 -164.4765625 347.1953125 C-165.47429687 346.94523437 -166.47203125 346.69515625 -167.5 346.4375 C-174.22491493 344.4077984 -179.95245962 341.45276554 -184.09375 335.5859375 C-186.85567832 329.98536062 -186.64848877 324.08707 -184.75 318.3125 C-182.04110156 311.83912298 -177.91602352 307.06422475 -172.44140625 302.76171875 C-150.17072799 282.15717602 -147.83500874 241.11468538 -146.5 212.8125 C-144.89981737 187.97032048 -134.00474082 166.15956665 -116.875 148.3125 C-116.11574219 147.49007812 -115.35648437 146.66765625 -114.57421875 145.8203125 C-97.96846011 128.37203583 -74.99445248 116.50666588 -51.875 110.3125 C-51.215 110.3125 -50.555 110.3125 -49.875 110.3125 C-49.82001132 104.74298684 -49.81760154 99.17678081 -49.86279297 93.60717773 C-49.87087741 91.71493229 -49.86488171 89.82257003 -49.84423828 87.93041992 C-49.320951 77.34957473 -49.320951 77.34957473 -52.56445312 67.63134766 C-54.58173331 65.88106044 -56.54399641 64.60179425 -58.875 63.3125 C-60.39410593 61.83185245 -61.89789681 60.33505252 -63.375 58.8125 C-69.20646302 52.91077839 -75.48008583 47.58830419 -81.875 42.3125 C-82.865 42.8075 -82.865 42.8075 -83.875 43.3125 C-91.37605012 44.00157285 -98.11975477 44.43826241 -104.328125 39.7421875 C-108.45877051 35.92446968 -111.56657877 32.02373783 -112.2109375 26.359375 C-112.29144237 19.56476368 -112.33182239 13.74463809 -107.875 8.3125 C-101.52451288 2.48589613 -96.5257123 0.92916727 -87.94921875 1.04296875 C-82.48229565 1.52227967 -78.8093017 3.20889399 -75.08984375 7.25390625 C-72.77239268 10.22879024 -71.07318803 12.7179359 -69.875 16.3125 C-70.10509766 17.94094849 -70.10509766 17.94094849 -70.33984375 19.60229492 C-71.03193621 24.67912157 -71.64589284 29.78861413 -68.56689453 34.17681885 C-64.79730823 38.08802361 -60.44071515 41.36982916 -56.19433594 44.74365234 C-46.66871362 52.47043609 -37.64171555 60.26118979 -35.96777344 72.94535828 C-35.13510294 84.43080864 -36.19678599 95.94582744 -37.875 107.3125 C-36.82183594 107.0959375 -35.76867187 106.879375 -34.68359375 106.65625 C-33.22670337 106.37427122 -31.7696635 106.093064 -30.3125 105.8125 C-29.62736328 105.66941406 -28.94222656 105.52632813 -28.23632812 105.37890625 C-20.80875981 103.97999204 -13.40224373 104.17791804 -5.875 104.3125 C-5.82029877 96.18416027 -5.80866502 88.05737467 -5.85165405 79.92902088 C-5.87027189 76.15433516 -5.87418599 72.3808388 -5.84423828 68.60620117 C-5.81586721 64.96155639 -5.82645816 61.31889579 -5.86380005 57.67435265 C-5.87123315 56.28573706 -5.86474617 54.89697338 -5.84396362 53.50849342 C-5.43045892 45.9040671 -5.43045892 45.9040671 -8.61938477 39.43002319 C-10.69692715 38.07881311 -10.69692715 38.07881311 -12.87329102 37.20976257 C-16.22254497 35.70846531 -17.76279247 33.25678928 -19.875 30.3125 C-21.79061899 24.56564302 -22.09146949 17.5328632 -19.93359375 11.8203125 C-15.18498049 3.93076695 -9.16756677 0.0295728 0 0 Z M-6.375 14.875 C-8.45892818 18.26138329 -8.43302097 20.40635318 -7.875 24.3125 C-6.5219872 26.91564994 -6.5219872 26.91564994 -3.875 28.3125 C0.17060357 29.11664661 3.10373756 28.95078902 6.625 26.75 C8.70892818 23.36361671 8.68302097 21.21864682 8.125 17.3125 C6.7719872 14.70935006 6.7719872 14.70935006 4.125 13.3125 C0.07939643 12.50835339 -2.85373756 12.67421098 -6.375 14.875 Z M-97.375 15.8125 C-99.49653384 19.34838973 -99.666013 22.29151723 -98.875 26.3125 C-97.54166667 28.97916667 -97.54166667 28.97916667 -94.875 30.3125 C-90.85401723 31.103513 -87.91088973 30.93403384 -84.375 28.8125 C-82.25346616 25.27661027 -82.083987 22.33348277 -82.875 18.3125 C-84.20833333 15.64583333 -84.20833333 15.64583333 -86.875 14.3125 C-90.89598277 13.521487 -93.83911027 13.69096616 -97.375 15.8125 Z M85.6875 18.875 C83.52103972 22.25467804 83.56211998 24.37233987 84.125 28.3125 C85.54166667 30.89583333 85.54166667 30.89583333 88.125 32.3125 C92.06516013 32.87538002 94.18282196 32.91646028 97.5625 30.75 C99.72896028 27.37032196 99.68788002 25.25266013 99.125 21.3125 C97.70833333 18.72916667 97.70833333 18.72916667 95.125 17.3125 C91.18483987 16.74961998 89.06717804 16.70853972 85.6875 18.875 Z M-29.75 118.8125 C-30.94302734 119.02712891 -30.94302734 119.02712891 -32.16015625 119.24609375 C-34.06709528 119.59072129 -35.97139499 119.94990857 -37.875 120.3125 C-37.91258423 121.57694946 -37.91258423 121.57694946 -37.95092773 122.86694336 C-38.04588155 125.98491674 -38.14512448 129.10271503 -38.24731445 132.22045898 C-38.29071223 133.57164147 -38.3323837 134.92288053 -38.37231445 136.27416992 C-38.42989952 138.21286701 -38.49414298 140.15136276 -38.55859375 142.08984375 C-38.61358032 143.84155884 -38.61358032 143.84155884 -38.66967773 145.62866211 C-38.875 148.3125 -38.875 148.3125 -39.875 149.3125 C-41.6875 149.4453125 -41.6875 149.4453125 -43.875 149.4375 C-44.596875 149.44007813 -45.31875 149.44265625 -46.0625 149.4453125 C-47.875 149.3125 -47.875 149.3125 -48.875 148.3125 C-49.03264405 146.53380274 -49.12600677 144.74931524 -49.19140625 142.96484375 C-49.23330078 141.88525391 -49.27519531 140.80566406 -49.31835938 139.69335938 C-49.35767578 138.55705078 -49.39699219 137.42074219 -49.4375 136.25 C-49.48068359 135.10982422 -49.52386719 133.96964844 -49.56835938 132.79492188 C-49.67482839 129.96757805 -49.77684207 127.14014262 -49.875 124.3125 C-55.7347528 124.86648462 -60.55099257 126.54905792 -65.9375 128.875 C-67.18660156 129.41072632 -67.18660156 129.41072632 -68.4609375 129.95727539 C-80.52975087 135.2396986 -90.88830024 141.63768198 -100.875 150.3125 C-101.48472656 150.77785156 -102.09445313 151.24320313 -102.72265625 151.72265625 C-120.32763585 165.33217948 -130.60223772 188.86637349 -133.484375 210.40234375 C-134.01356865 215.69957216 -134.41066009 221.00429867 -134.8125 226.3125 C-137.1823943 257.48055216 -141.5212393 291.75567761 -165.69995117 314.07910156 C-169.03083093 317.2016999 -171.1548625 320.07695595 -172.875 324.3125 C-172.875 327.64814027 -172.25942709 328.87504849 -170.0625 331.375 C-166.9584268 333.2617896 -164.32787641 334.18822989 -160.875 335.25 C-155.29494965 337.02329207 -151.78353072 338.68223093 -148.95703125 344.05859375 C-145.543357 352.02383366 -145.08855933 359.79247388 -147.8359375 367.99609375 C-148.87462907 370.31167307 -150.06033957 372.07389527 -151.625 374.0625 C-154.18046033 377.04639952 -154.18046033 377.04639952 -153.7265625 380.16796875 C-152.79573065 383.60521481 -151.48616969 385.92926732 -149.5 388.875 C-144.31059237 396.65911145 -141.09844986 401.70494949 -141.875 411.3125 C-142.53083207 413.64890176 -143.19715008 415.98239091 -143.875 418.3125 C-144.39248376 422.60022256 -144.48551594 424.4656553 -141.9375 428 C-135.54695502 432.82551356 -128.84722696 434.95594877 -120.9375 435.625 C-120.09775635 435.70492188 -119.2580127 435.78484375 -118.39282227 435.8671875 C-109.93542021 436.54077912 -101.52802752 436.16266465 -93.07250977 435.5949707 C-83.18142272 435.00028996 -74.08788639 435.43410699 -65.87890625 441.484375 C-57.83785315 448.82007256 -54.7005512 458.74544459 -53.875 469.3125 C-53.875 478.3125 -53.875 478.3125 -56.875 500.3125 C2.855 500.3125 62.585 500.3125 124.125 500.3125 C121.155 493.7125 118.185 487.1125 115.125 480.3125 C108.39166059 462.35692823 104.96404619 443.85469237 104.875 424.6875 C104.8440625 423.05748047 104.8440625 423.05748047 104.8125 421.39453125 C104.74853345 407.84961411 108.23262036 396.01597598 113.3125 383.5625 C113.81004082 382.31934506 114.30693878 381.07593266 114.80322266 379.83227539 C117.38464701 373.39966968 120.09567782 367.04282843 123 360.75 C143.80356671 315.50541621 163.64054276 261.168393 146.22949219 212.10131836 C140.49215674 196.83434462 132.77488093 182.68234538 122.125 170.3125 C121.01705078 168.99765625 121.01705078 168.99765625 119.88671875 167.65625 C101.7865807 146.82340905 77.62443689 131.97374732 51.125 124.3125 C51.08741577 125.39519165 51.08741577 125.39519165 51.04907227 126.49975586 C50.93348698 129.750035 50.81059226 132.99999688 50.6875 136.25 C50.64818359 137.38630859 50.60886719 138.52261719 50.56835938 139.69335938 C50.52646484 140.77294922 50.48457031 141.85253906 50.44140625 142.96484375 C50.38641968 144.46519165 50.38641968 144.46519165 50.33032227 145.99584961 C50.125 148.3125 50.125 148.3125 49.125 149.3125 C47.3125 149.4453125 47.3125 149.4453125 45.125 149.4375 C44.403125 149.44007813 43.68125 149.44265625 42.9375 149.4453125 C41.125 149.3125 41.125 149.3125 40.125 148.3125 C39.96674742 146.31467874 39.87380829 144.31161166 39.80859375 142.30859375 C39.74575195 140.48618164 39.74575195 140.48618164 39.68164062 138.62695312 C39.64232422 137.34755859 39.60300781 136.06816406 39.5625 134.75 C39.51931641 133.46673828 39.47613281 132.18347656 39.43164062 130.86132812 C39.325152 127.67850147 39.22314038 124.49559326 39.125 121.3125 C27.6714465 118.77160612 17.96597393 117.3125 6.125 117.3125 C5.795 127.5425 5.465 137.7725 5.125 148.3125 C1.825 148.3125 -1.475 148.3125 -4.875 148.3125 C-5.205 138.0825 -5.535 127.8525 -5.875 117.3125 C-18.00849052 117.27589502 -18.00849052 117.27589502 -29.75 118.8125 Z " fill="#ffff" transform="translate(265.875,-0.3125)"/>
<path d="M0 0 C0.85095749 -0.00807175 1.70191498 -0.01614349 2.57865906 -0.02445984 C4.38176434 -0.03830169 6.18489584 -0.0490234 7.98803711 -0.05688477 C10.74057942 -0.07408664 13.49191713 -0.11796924 16.24414062 -0.16210938 C17.99608492 -0.17223738 19.74803942 -0.18075315 21.5 -0.1875 C22.32099686 -0.20500809 23.14199371 -0.22251617 23.98786926 -0.24055481 C28.00796327 -0.22535918 29.96771773 -0.06725125 33.44604492 2.13989258 C36.67614304 5.5235237 36.56914317 7.53385111 36.546875 12.12109375 C36.54365234 13.28769531 36.54042969 14.45429688 36.53710938 15.65625 C36.52873047 16.87957031 36.52035156 18.10289062 36.51171875 19.36328125 C36.50720703 20.59433594 36.50269531 21.82539063 36.49804688 23.09375 C36.48623205 26.14197517 36.46975903 29.19010439 36.44921875 32.23828125 C37.85276611 32.44674683 37.85276611 32.44674683 39.28466797 32.65942383 C43.43583134 33.41875174 46.46236667 35.28326237 50.08203125 37.375 C52.38211261 38.50747398 52.38211261 38.50747398 54.38574219 37.49365234 C56.53475762 36.18624139 58.08268749 34.81824956 59.83203125 33.015625 C60.44175781 32.39494141 61.05148437 31.77425781 61.6796875 31.13476562 C62.30488281 30.48830078 62.93007813 29.84183594 63.57421875 29.17578125 C64.82457949 27.89104195 66.07708391 26.60838444 67.33203125 25.328125 C67.88262207 24.75956787 68.43321289 24.19101074 69.00048828 23.60522461 C71.97874364 20.79510467 74.97228652 20.70009633 78.91967773 20.79418945 C81.89624871 21.31676282 82.97165278 22.14444581 85.1640625 24.1875 C85.85113281 24.82284668 86.53820312 25.45819336 87.24609375 26.11279297 C87.973125 26.8142041 88.70015625 27.51561523 89.44921875 28.23828125 C90.21234375 28.97449707 90.97546875 29.71071289 91.76171875 30.46923828 C94.15569933 32.81145445 96.52430282 35.17675639 98.88671875 37.55078125 C99.70076172 38.36095703 100.51480469 39.17113281 101.35351562 40.00585938 C102.12630859 40.77994141 102.89910156 41.55402344 103.6953125 42.3515625 C104.39325928 43.05063721 105.09120605 43.74971191 105.81030273 44.4699707 C108.86350949 47.76423207 109.20167831 50.91864737 109.1953125 55.3046875 C107.61107501 61.53380977 101.97872209 65.92016494 97.44921875 70.23828125 C95.77530053 71.89783108 94.11293408 73.56848286 92.44921875 75.23828125 C92.64257812 75.85574219 92.8359375 76.47320312 93.03515625 77.109375 C93.29554688 77.95628906 93.5559375 78.80320312 93.82421875 79.67578125 C94.07945312 80.49949219 94.3346875 81.32320313 94.59765625 82.171875 C95.7055848 86.16143422 96.58098319 90.19078776 97.44921875 94.23828125 C98.63680786 94.20686035 98.63680786 94.20686035 99.84838867 94.17480469 C103.44436893 94.09152658 107.04014611 94.03958234 110.63671875 93.98828125 C111.88259766 93.95476562 113.12847656 93.92125 114.41210938 93.88671875 C116.21518555 93.86738281 116.21518555 93.86738281 118.0546875 93.84765625 C119.71213989 93.81623535 119.71213989 93.81623535 121.40307617 93.78417969 C125.14202159 94.34156035 126.76588676 95.63218705 129.44921875 98.23828125 C131.09260565 101.52505505 130.65521728 105.17456419 130.6875 108.7890625 C130.69557175 109.64001999 130.70364349 110.49097748 130.71195984 111.36772156 C130.72580169 113.17082684 130.7365234 114.97395834 130.74438477 116.77709961 C130.76158664 119.52964192 130.80546924 122.28097963 130.84960938 125.03320312 C130.85973738 126.78514742 130.86825315 128.53710192 130.875 130.2890625 C130.89250809 131.11005936 130.91001617 131.93105621 130.92805481 132.77693176 C130.91285918 136.79702577 130.75475125 138.75678023 128.54760742 142.23510742 C125.1090875 145.51760375 123.01399315 145.35774281 118.34765625 145.3359375 C117.1359375 145.33271484 115.92421875 145.32949219 114.67578125 145.32617188 C113.40476562 145.31779297 112.13375 145.30941406 110.82421875 145.30078125 C109.54546875 145.29626953 108.26671875 145.29175781 106.94921875 145.28710938 C103.78250583 145.27529328 100.61588519 145.2588194 97.44921875 145.23828125 C97.32442139 145.84373779 97.19962402 146.44919434 97.07104492 147.07299805 C96.90064697 147.87390869 96.73024902 148.67481934 96.5546875 149.5 C96.30561646 150.68662231 96.30561646 150.68662231 96.05151367 151.8972168 C95.48258257 154.10859917 94.73630563 155.99245598 93.76171875 158.05078125 C92.37674437 161.41429045 92.20313459 162.01270788 93.44921875 165.23828125 C94.82158766 167.00502317 94.82158766 167.00502317 96.57421875 168.62109375 C97.198125 169.23082031 97.82203125 169.84054687 98.46484375 170.46875 C99.1196875 171.09394531 99.77453125 171.71914063 100.44921875 172.36328125 C101.74296728 173.61373505 103.03473381 174.86624373 104.32421875 176.12109375 C104.89914062 176.67168457 105.4740625 177.22227539 106.06640625 177.78955078 C108.3369266 180.16830568 108.72596758 182.15962701 108.94921875 185.36328125 C108.85575363 189.28432659 108.16713432 191.09101237 105.5 193.953125 C104.54697998 194.98373047 104.54697998 194.98373047 103.57470703 196.03515625 C102.8732959 196.7621875 102.17188477 197.48921875 101.44921875 198.23828125 C100.71300293 199.00140625 99.97678711 199.76453125 99.21826172 200.55078125 C96.87604555 202.94476183 94.51074361 205.31336532 92.13671875 207.67578125 C91.32654297 208.48982422 90.51636719 209.30386719 89.68164062 210.14257812 C88.52051758 211.30176758 88.52051758 211.30176758 87.3359375 212.484375 C86.63686279 213.18232178 85.93778809 213.88026855 85.2175293 214.59936523 C81.99610485 217.58506485 79.14481243 217.76445592 74.87890625 217.703125 C69.32022926 216.63964821 65.81448651 211.70909912 62.125 207.734375 C61.34511719 206.91066406 60.56523437 206.08695313 59.76171875 205.23828125 C59.05660156 204.45453125 58.35148438 203.67078125 57.625 202.86328125 C55.57797055 200.97419345 55.57797055 200.97419345 53.03125 201.359375 C49.30999977 202.62606381 45.64099688 203.98637761 41.97265625 205.3984375 C39.44921875 206.23828125 39.44921875 206.23828125 36.44921875 206.23828125 C36.47016602 207.03000732 36.49111328 207.8217334 36.51269531 208.63745117 C36.59597342 212.23343143 36.64791766 215.82920861 36.69921875 219.42578125 C36.73273438 220.67166016 36.76625 221.91753906 36.80078125 223.20117188 C36.81367188 224.40322266 36.8265625 225.60527344 36.83984375 226.84375 C36.86079102 227.94871826 36.88173828 229.05368652 36.90332031 230.19213867 C36.34593965 233.93108409 35.05531295 235.55494926 32.44921875 238.23828125 C29.16244495 239.88166815 25.51293581 239.44427978 21.8984375 239.4765625 C21.04748001 239.48463425 20.19652252 239.49270599 19.31977844 239.50102234 C17.51667316 239.51486419 15.71354166 239.5255859 13.91040039 239.53344727 C11.15785808 239.55064914 8.40652037 239.59453174 5.65429688 239.63867188 C3.90235258 239.64879988 2.15039808 239.65731565 0.3984375 239.6640625 C-0.42255936 239.68157059 -1.24355621 239.69907867 -2.08943176 239.71711731 C-6.10952577 239.70192168 -8.06928023 239.54381375 -11.54760742 237.33666992 C-14.83010375 233.89815 -14.67024281 231.80305565 -14.6484375 227.13671875 C-14.64360352 225.31914062 -14.64360352 225.31914062 -14.63867188 223.46484375 C-14.62610352 221.55832031 -14.62610352 221.55832031 -14.61328125 219.61328125 C-14.60876953 218.33453125 -14.60425781 217.05578125 -14.59960938 215.73828125 C-14.58779328 212.57156833 -14.5713194 209.40494769 -14.55078125 206.23828125 C-15.59878906 206.11839844 -16.64679688 205.99851562 -17.7265625 205.875 C-22.01023834 205.16178329 -25.32362322 203.71689582 -29.21875 201.8828125 C-31.48939382 201.03957037 -31.48939382 201.03957037 -33.51171875 201.78515625 C-36.86657523 204.17597351 -39.57575682 207.18489208 -42.39648438 210.16210938 C-46.33842482 214.23599762 -49.99658694 217.62732645 -55.86328125 217.86328125 C-59.6724099 217.6558268 -61.46491023 216.86416441 -64.25390625 214.28125 C-64.94266846 213.64703125 -65.63143066 213.0128125 -66.34106445 212.359375 C-70.26740939 208.59050031 -74.14927786 204.78364953 -77.98828125 200.92578125 C-78.80232422 200.11560547 -79.61636719 199.30542969 -80.45507812 198.47070312 C-81.61426758 197.30958008 -81.61426758 197.30958008 -82.796875 196.125 C-83.49482178 195.42592529 -84.19276855 194.72685059 -84.91186523 194.0065918 C-87.89831314 190.78435999 -88.07978054 187.93153681 -88.01171875 183.6640625 C-87.13211435 179.03495797 -83.84680684 176.39528292 -80.55078125 173.23828125 C-79.66261719 172.33980469 -78.77445313 171.44132813 -77.859375 170.515625 C-75.44158814 168.07032421 -73.00443611 165.64750373 -70.55078125 163.23828125 C-70.98390625 162.19027344 -71.41703125 161.14226562 -71.86328125 160.0625 C-72.4260546 158.68370529 -72.9885396 157.30479286 -73.55078125 155.92578125 C-73.83695313 155.23548828 -74.123125 154.54519531 -74.41796875 153.83398438 C-75.63988869 150.82282451 -76.55078125 148.51941141 -76.55078125 145.23828125 C-77.31221436 145.25922852 -78.07364746 145.28017578 -78.8581543 145.30175781 C-82.31806157 145.3850592 -85.77775763 145.43698709 -89.23828125 145.48828125 C-90.43646484 145.52179688 -91.63464844 145.5553125 -92.86914062 145.58984375 C-94.02607422 145.60273438 -95.18300781 145.615625 -96.375 145.62890625 C-97.43807373 145.64985352 -98.50114746 145.67080078 -99.59643555 145.69238281 C-103.27168819 145.12747331 -104.90349359 143.79321822 -107.55078125 141.23828125 C-109.19416815 137.95150745 -108.75677978 134.30199831 -108.7890625 130.6875 C-108.79713425 129.83654251 -108.80520599 128.98558502 -108.81352234 128.10884094 C-108.82736419 126.30573566 -108.8380859 124.50260416 -108.84594727 122.69946289 C-108.86314914 119.94692058 -108.90703174 117.19558287 -108.95117188 114.44335938 C-108.96129988 112.69141508 -108.96981565 110.93946058 -108.9765625 109.1875 C-108.99407059 108.36650314 -109.01157867 107.54550629 -109.02961731 106.69963074 C-109.01442168 102.67953673 -108.85631375 100.71978227 -106.64916992 97.24145508 C-103.2655388 94.01135696 -101.25521139 94.11835683 -96.66796875 94.140625 C-94.91806641 94.14545898 -94.91806641 94.14545898 -93.1328125 94.15039062 C-91.90949219 94.15876953 -90.68617188 94.16714844 -89.42578125 94.17578125 C-88.19472656 94.18029297 -86.96367187 94.18480469 -85.6953125 94.18945312 C-82.64708733 94.20126795 -79.59895811 94.21774097 -76.55078125 94.23828125 C-76.37337402 93.33879761 -76.37337402 93.33879761 -76.19238281 92.42114258 C-75.14738621 87.38713114 -73.8495277 83.45575405 -71.16015625 79.0625 C-70.32360672 77.2120365 -70.32360672 77.2120365 -71.3112793 75.33569336 C-72.60311064 73.14973254 -73.95456201 71.6205831 -75.7734375 69.85546875 C-76.39412109 69.24574219 -77.01480469 68.63601562 -77.65429688 68.0078125 C-78.30076172 67.38261719 -78.94722656 66.75742188 -79.61328125 66.11328125 C-80.89802055 64.86292051 -82.18067806 63.61041609 -83.4609375 62.35546875 C-84.31377319 61.52958252 -84.31377319 61.52958252 -85.18383789 60.68701172 C-87.99395783 57.70875636 -88.08896617 54.71521348 -87.99487305 50.76782227 C-87.47229968 47.79125129 -86.64461669 46.71584722 -84.6015625 44.5234375 C-83.96621582 43.83636719 -83.33086914 43.14929688 -82.67626953 42.44140625 C-81.9748584 41.714375 -81.27344727 40.98734375 -80.55078125 40.23828125 C-79.81456543 39.47515625 -79.07834961 38.71203125 -78.31982422 37.92578125 C-75.97760805 35.53180067 -73.61230611 33.16319718 -71.23828125 30.80078125 C-70.02301758 29.5797168 -70.02301758 29.5797168 -68.78320312 28.33398438 C-68.00912109 27.56119141 -67.23503906 26.78839844 -66.4375 25.9921875 C-65.73842529 25.29424072 -65.03935059 24.59629395 -64.3190918 23.87719727 C-61.09685999 20.89074936 -58.24403681 20.70928196 -53.9765625 20.77734375 C-49.34745797 21.65694815 -46.70778292 24.94225566 -43.55078125 28.23828125 C-42.65230469 29.12644531 -41.75382812 30.01460937 -40.828125 30.9296875 C-38.38282421 33.34747436 -35.96000373 35.78462639 -33.55078125 38.23828125 C-28.86693576 36.72030505 -24.35545145 34.95176763 -19.8203125 33.04296875 C-17.55078125 32.23828125 -17.55078125 32.23828125 -14.55078125 32.23828125 C-14.58220215 31.09613159 -14.58220215 31.09613159 -14.61425781 29.9309082 C-14.6975592 26.47100093 -14.74948709 23.01130487 -14.80078125 19.55078125 C-14.83429688 18.35259766 -14.8678125 17.15441406 -14.90234375 15.91992188 C-14.92167969 14.18452148 -14.92167969 14.18452148 -14.94140625 12.4140625 C-14.97282715 10.8194519 -14.97282715 10.8194519 -15.00488281 9.19262695 C-14.43997331 5.51737431 -13.10571822 3.88556891 -10.55078125 1.23828125 C-7.26400745 -0.40510565 -3.61449831 0.03228272 0 0 Z M-2.55078125 12.23828125 C-2.88078125 21.80828125 -3.21078125 31.37828125 -3.55078125 41.23828125 C-13.55078125 45.23828125 -13.55078125 45.23828125 -17.66796875 46.87109375 C-18.29445313 47.11988281 -18.9209375 47.36867187 -19.56640625 47.625 C-20.82891547 48.12629043 -22.0919558 48.62624489 -23.35546875 49.125 C-27.08312548 50.60533855 -27.08312548 50.60533855 -30.62109375 52.48046875 C-33.75709859 53.71201721 -35.34924814 53.31575741 -38.55078125 52.23828125 C-41.41069721 49.99830006 -43.86950284 47.43567102 -46.36328125 44.80078125 C-47.04326172 44.10662109 -47.72324219 43.41246094 -48.42382812 42.69726562 C-53.36658932 37.60666511 -53.36658932 37.60666511 -54.55078125 35.23828125 C-57.70283106 36.63175501 -59.81249898 38.26313204 -62.22265625 40.71484375 C-62.88652344 41.38515625 -63.55039063 42.05546875 -64.234375 42.74609375 C-64.91628906 43.44476563 -65.59820312 44.1434375 -66.30078125 44.86328125 C-66.99816406 45.5696875 -67.69554687 46.27609375 -68.4140625 47.00390625 C-70.13090613 48.74426828 -71.84289957 50.48913106 -73.55078125 52.23828125 C-72.17073329 55.3705394 -70.59497812 57.39481047 -68.109375 59.734375 C-67.44357422 60.37568359 -66.77777344 61.01699219 -66.09179688 61.67773438 C-64.68934445 63.00986885 -63.28308237 64.33800402 -61.87304688 65.66210938 C-61.20853516 66.30470703 -60.54402344 66.94730469 -59.859375 67.609375 C-59.24892334 68.1861499 -58.63847168 68.7629248 -58.00952148 69.35717773 C-56.20160525 71.68855758 -55.78021614 73.30835489 -55.55078125 76.23828125 C-56.12402344 78.17602539 -56.12402344 78.17602539 -57.09765625 80.0234375 C-57.44828125 80.72017578 -57.79890625 81.41691406 -58.16015625 82.13476562 C-58.5365625 82.84955078 -58.91296875 83.56433594 -59.30078125 84.30078125 C-62.96410259 91.28071673 -64.55976551 97.27421831 -66.55078125 105.23828125 C-76.45078125 105.56828125 -86.35078125 105.89828125 -96.55078125 106.23828125 C-96.55078125 115.14828125 -96.55078125 124.05828125 -96.55078125 133.23828125 C-94.56433594 133.27566406 -92.57789063 133.31304687 -90.53125 133.3515625 C-88.60503512 133.40023941 -86.6788213 133.44901933 -84.75268555 133.50073242 C-82.75787495 133.55029444 -80.76270868 133.58479258 -78.76757812 133.61914062 C-76.8871582 133.67231445 -76.8871582 133.67231445 -74.96875 133.7265625 C-73.81141357 133.75274658 -72.65407715 133.77893066 -71.46166992 133.8059082 C-68.55078125 134.23828125 -68.55078125 134.23828125 -66.70947266 135.6027832 C-65.04017467 137.95900469 -64.48339557 140.33016017 -63.73828125 143.11328125 C-61.98205445 149.27040578 -59.51028459 154.7084171 -56.52734375 160.36328125 C-55.55078125 163.23828125 -55.55078125 163.23828125 -56.125 165.80859375 C-57.74751575 168.57353839 -59.55683153 170.76287243 -61.73828125 173.11328125 C-62.53492188 173.974375 -63.3315625 174.83546875 -64.15234375 175.72265625 C-67.23073888 178.95146156 -70.35030246 182.13042082 -73.55078125 185.23828125 C-72.16392902 188.35783845 -70.54888634 190.49683924 -68.14453125 192.91015625 C-67.48324219 193.57402344 -66.82195312 194.23789062 -66.140625 194.921875 C-65.45097656 195.60378906 -64.76132813 196.28570312 -64.05078125 196.98828125 C-63.01630859 198.03435547 -63.01630859 198.03435547 -61.9609375 199.1015625 C-61.29964844 199.76027344 -60.63835937 200.41898438 -59.95703125 201.09765625 C-59.04920898 202.00209473 -59.04920898 202.00209473 -58.12304688 202.92480469 C-56.63642093 204.45198846 -56.63642093 204.45198846 -54.55078125 204.23828125 C-53.08436371 202.78823882 -53.08436371 202.78823882 -51.55078125 200.86328125 C-48.60330613 197.43684142 -45.63705259 194.04096796 -42.55078125 190.73828125 C-41.76703125 189.88234375 -40.98328125 189.02640625 -40.17578125 188.14453125 C-36.67689241 185.60367149 -34.80087128 185.66730491 -30.55078125 186.23828125 C-27.2265625 187.62890625 -27.2265625 187.62890625 -23.86328125 189.48828125 C-18.31215022 192.46239635 -12.82633239 194.67503586 -6.78125 196.51171875 C-4.55078125 197.23828125 -4.55078125 197.23828125 -3.55078125 198.23828125 C-3.39219283 200.38214782 -3.29948827 202.53094963 -3.234375 204.6796875 C-3.19248047 205.98486328 -3.15058594 207.29003906 -3.10742188 208.63476562 C-3.06760517 210.02343455 -3.027893 211.41210647 -2.98828125 212.80078125 C-2.94510136 214.19337308 -2.90148725 215.58595153 -2.85742188 216.97851562 C-2.75092319 220.39830674 -2.65031069 223.81828021 -2.55078125 227.23828125 C6.35921875 227.23828125 15.26921875 227.23828125 24.44921875 227.23828125 C24.77921875 217.33828125 25.10921875 207.43828125 25.44921875 197.23828125 C27.67671875 196.53703125 29.90421875 195.83578125 32.19921875 195.11328125 C38.41448721 193.10947381 44.05922181 190.588393 49.765625 187.375 C52.98296467 186.01219673 54.97542696 185.88461282 58.44921875 186.23828125 C60.78271484 187.890625 60.78271484 187.890625 62.97265625 190.17578125 C63.76542969 190.98789062 64.55820312 191.8 65.375 192.63671875 C66.18324219 193.49523437 66.99148438 194.35375 67.82421875 195.23828125 C69.07138672 196.52605469 69.07138672 196.52605469 70.34375 197.83984375 C72.39304713 199.9598063 74.427059 202.09247109 76.44921875 204.23828125 C79.60126856 202.84480749 81.71093648 201.21343046 84.12109375 198.76171875 C84.78496094 198.09140625 85.44882812 197.42109375 86.1328125 196.73046875 C86.81472656 196.03179687 87.49664062 195.333125 88.19921875 194.61328125 C88.89660156 193.906875 89.59398437 193.20046875 90.3125 192.47265625 C92.02934363 190.73229422 93.74133707 188.98743144 95.44921875 187.23828125 C94.03498878 183.98330752 92.34877048 181.9620907 89.75390625 179.55859375 C89.03847656 178.87667969 88.32304687 178.19476563 87.5859375 177.4921875 C86.07786031 176.07266752 84.56218938 174.66117214 83.0390625 173.2578125 C77.65750121 168.09034588 77.65750121 168.09034588 76.71875 164.25 C77.70922447 160.16627904 79.35853645 156.65826003 81.26171875 152.92578125 C84.12618556 147.10797844 86.56155567 141.45646552 88.44921875 135.23828125 C90.3088695 133.3786305 93.39810994 133.99740576 95.890625 133.921875 C97.19580078 133.87998047 98.50097656 133.83808594 99.84570312 133.79492188 C101.23437205 133.75510517 102.62304397 133.715393 104.01171875 133.67578125 C105.40431058 133.63260136 106.79688903 133.58898725 108.18945312 133.54492188 C111.60924424 133.43842319 115.02921771 133.33781069 118.44921875 133.23828125 C118.44921875 124.32828125 118.44921875 115.41828125 118.44921875 106.23828125 C108.87921875 105.90828125 99.30921875 105.57828125 89.44921875 105.23828125 C87.46921875 100.28828125 87.46921875 100.28828125 85.44921875 95.23828125 C84.60126312 93.13160394 83.74822742 91.02695256 82.88671875 88.92578125 C82.49355469 87.96027344 82.10039062 86.99476563 81.6953125 86 C80.5333811 83.21029102 80.5333811 83.21029102 78.796875 80.8203125 C76.89600556 77.17835685 76.70365658 75.30887933 77.44921875 71.23828125 C79.73629349 68.08166522 82.47387738 65.50898273 85.32421875 62.86328125 C86.07058594 62.14011719 86.81695312 61.41695312 87.5859375 60.671875 C93.02070848 55.45253639 93.02070848 55.45253639 95.44921875 54.23828125 C94.05574499 51.08623144 92.42436796 48.97656352 89.97265625 46.56640625 C89.30234375 45.90253906 88.63203125 45.23867187 87.94140625 44.5546875 C87.24273437 43.87277344 86.5440625 43.19085938 85.82421875 42.48828125 C85.1178125 41.79089844 84.41140625 41.09351563 83.68359375 40.375 C81.94323172 38.65815637 80.19836894 36.94616293 78.44921875 35.23828125 C73.6939449 37.40786699 70.5928132 40.99143389 67.046875 44.71875 C63.78566908 48.08004408 60.60035777 50.96989927 56.44921875 53.23828125 C53.1285415 52.4884509 50.55807053 51.55043111 47.44921875 50.23828125 C46.14299967 49.75010868 44.8341791 49.26886494 43.5234375 48.79296875 C37.86840551 46.7319833 37.86840551 46.7319833 35.21875 45.73828125 C34.63714111 45.52171875 34.05553223 45.30515625 33.45629883 45.08203125 C30.72703189 43.93468342 28.09728296 42.56231335 25.44921875 41.23828125 C25.11921875 31.66828125 24.78921875 22.09828125 24.44921875 12.23828125 C15.53921875 12.23828125 6.62921875 12.23828125 -2.55078125 12.23828125 Z " fill="#ffff" transform="translate(255.55078125,158.76171875)"/>
<path d="M0 0 C16.47528999 12.24125567 27.06246569 28.13075898 30.609375 48.41015625 C32.09012479 69.59815391 29.55928666 89.30469522 15.5703125 106.1953125 C3.10705151 120.27234234 -12.56152711 131.23403364 -31.92333984 132.5871582 C-57.05148513 133.16210483 -75.76653722 128.36249453 -94.453125 110.78515625 C-109.90512892 94.87727022 -113.928595 75.9501778 -113.66796875 54.52734375 C-113.05382682 34.59981297 -103.16571758 18.42104934 -89.17578125 4.83203125 C-64.75476072 -16.40363878 -26.66493281 -17.73305172 0 0 Z M-84.703125 19.34765625 C-97.18967549 32.49675839 -100.91893125 47.68312268 -100.671875 65.30859375 C-100.43232138 71.80289237 -98.90175776 77.43166469 -96.390625 83.41015625 C-96.06320313 84.26480469 -95.73578125 85.11945313 -95.3984375 86 C-89.31854728 100.04587776 -76.16170081 110.51126554 -62.390625 116.41015625 C-47.22908744 122.26581419 -31.39722574 121.13635863 -16.4921875 114.953125 C-0.94151888 107.21696114 10.27130637 94.26453008 15.8828125 77.91796875 C19.66815842 64.85241993 18.8511806 49.88981925 13.609375 37.41015625 C13.28195312 36.55550781 12.95453125 35.70085937 12.6171875 34.8203125 C6.53729728 20.77443474 -6.61954919 10.30904696 -20.390625 4.41015625 C-43.59878215 -4.5532506 -67.16847344 2.67645344 -84.703125 19.34765625 Z " fill="#ffff" transform="translate(307.390625,217.58984375)"/>
</svg>
